%TF.GenerationSoftware,KiCad,Pcbnew,6.0.7*%
%TF.CreationDate,2023-02-15T11:14:18-05:00*%
%TF.ProjectId,Actuator Driver,41637475-6174-46f7-9220-447269766572,rev?*%
%TF.SameCoordinates,Original*%
%TF.FileFunction,Plated,1,2,PTH,Drill*%
%TF.FilePolarity,Positive*%
%FSLAX46Y46*%
G04 Gerber Fmt 4.6, Leading zero omitted, Abs format (unit mm)*
G04 Created by KiCad (PCBNEW 6.0.7) date 2023-02-15 11:14:18*
%MOMM*%
%LPD*%
G01*
G04 APERTURE LIST*
%TA.AperFunction,ComponentDrill*%
%ADD10C,0.800000*%
%TD*%
%TA.AperFunction,ViaDrill*%
%ADD11C,1.000000*%
%TD*%
%TA.AperFunction,ComponentDrill*%
%ADD12C,1.000000*%
%TD*%
%TA.AperFunction,ComponentDrill*%
%ADD13C,1.100000*%
%TD*%
%TA.AperFunction,ComponentDrill*%
%ADD14C,1.900000*%
%TD*%
%TA.AperFunction,ComponentDrill*%
%ADD15C,3.000000*%
%TD*%
G04 APERTURE END LIST*
D10*
%TO.C,R6*%
X108890000Y-108300000D03*
X116510000Y-108300000D03*
%TO.C,R5*%
X119790000Y-108300000D03*
X127410000Y-108300000D03*
%TD*%
D11*
X137250000Y-123500000D03*
X141000000Y-112500000D03*
X154500000Y-123000000D03*
X177150000Y-124590000D03*
D12*
%TO.C,PWRIN*%
X107500000Y-131075000D03*
%TO.C,Transmitter*%
X118320000Y-95940000D03*
X118320000Y-98480000D03*
X118320000Y-101020000D03*
X118320000Y-103560000D03*
%TO.C,PWRIN*%
X118500000Y-131075000D03*
%TO.C,A1*%
X127450000Y-88370000D03*
X127450000Y-103610000D03*
X129990000Y-88370000D03*
X129990000Y-103610000D03*
X132530000Y-88370000D03*
X132530000Y-103610000D03*
X135070000Y-88370000D03*
X135070000Y-103610000D03*
X137610000Y-88370000D03*
X137610000Y-103610000D03*
X140150000Y-88370000D03*
X140150000Y-103610000D03*
X142690000Y-88370000D03*
X142690000Y-103610000D03*
X145230000Y-88370000D03*
X145230000Y-103610000D03*
X147770000Y-88370000D03*
X147770000Y-103610000D03*
X150310000Y-88370000D03*
X150310000Y-103610000D03*
X152850000Y-88370000D03*
X152850000Y-103610000D03*
X155390000Y-88370000D03*
X155390000Y-103610000D03*
X157930000Y-88370000D03*
X157930000Y-103610000D03*
X160470000Y-88370000D03*
X160470000Y-103610000D03*
X163010000Y-88370000D03*
X163010000Y-103610000D03*
%TO.C,MD2*%
X189525000Y-101500000D03*
X189525000Y-104040000D03*
X189525000Y-106580000D03*
X189525000Y-109120000D03*
X189525000Y-111660000D03*
X189525000Y-114200000D03*
X189525000Y-116740000D03*
X189525000Y-119280000D03*
X189525000Y-121820000D03*
X189525000Y-124360000D03*
D13*
%TO.C,RV1*%
X180900000Y-131750000D03*
X185500000Y-131750000D03*
X190100000Y-131750000D03*
D14*
%TO.C,PWRIN*%
X110500000Y-121075000D03*
X115500000Y-121075000D03*
D15*
%TO.C,M1*%
X146650000Y-129750000D03*
X153850000Y-129750000D03*
M02*
