%TF.GenerationSoftware,KiCad,Pcbnew,6.0.7*%
%TF.CreationDate,2023-02-15T11:14:21-05:00*%
%TF.ProjectId,Actuator Driver,41637475-6174-46f7-9220-447269766572,rev?*%
%TF.SameCoordinates,Original*%
%TF.FileFunction,Copper,L2,Bot*%
%TF.FilePolarity,Positive*%
%FSLAX46Y46*%
G04 Gerber Fmt 4.6, Leading zero omitted, Abs format (unit mm)*
G04 Created by KiCad (PCBNEW 6.0.7) date 2023-02-15 11:14:21*
%MOMM*%
%LPD*%
G01*
G04 APERTURE LIST*
G04 Aperture macros list*
%AMRoundRect*
0 Rectangle with rounded corners*
0 $1 Rounding radius*
0 $2 $3 $4 $5 $6 $7 $8 $9 X,Y pos of 4 corners*
0 Add a 4 corners polygon primitive as box body*
4,1,4,$2,$3,$4,$5,$6,$7,$8,$9,$2,$3,0*
0 Add four circle primitives for the rounded corners*
1,1,$1+$1,$2,$3*
1,1,$1+$1,$4,$5*
1,1,$1+$1,$6,$7*
1,1,$1+$1,$8,$9*
0 Add four rect primitives between the rounded corners*
20,1,$1+$1,$2,$3,$4,$5,0*
20,1,$1+$1,$4,$5,$6,$7,0*
20,1,$1+$1,$6,$7,$8,$9,0*
20,1,$1+$1,$8,$9,$2,$3,0*%
G04 Aperture macros list end*
%TA.AperFunction,NonConductor*%
%ADD10C,0.200000*%
%TD*%
%TA.AperFunction,ComponentPad*%
%ADD11C,1.600000*%
%TD*%
%TA.AperFunction,ComponentPad*%
%ADD12O,1.600000X1.600000*%
%TD*%
%TA.AperFunction,ComponentPad*%
%ADD13C,1.400000*%
%TD*%
%TA.AperFunction,ComponentPad*%
%ADD14R,3.500000X3.500000*%
%TD*%
%TA.AperFunction,ComponentPad*%
%ADD15C,3.500000*%
%TD*%
%TA.AperFunction,ComponentPad*%
%ADD16R,1.700000X1.700000*%
%TD*%
%TA.AperFunction,ComponentPad*%
%ADD17O,1.700000X1.700000*%
%TD*%
%TA.AperFunction,ComponentPad*%
%ADD18RoundRect,0.250001X-0.799999X-0.799999X0.799999X-0.799999X0.799999X0.799999X-0.799999X0.799999X0*%
%TD*%
%TA.AperFunction,ComponentPad*%
%ADD19C,2.100000*%
%TD*%
%TA.AperFunction,ComponentPad*%
%ADD20RoundRect,0.250000X1.750000X1.750000X-1.750000X1.750000X-1.750000X-1.750000X1.750000X-1.750000X0*%
%TD*%
%TA.AperFunction,ComponentPad*%
%ADD21C,4.000000*%
%TD*%
%TA.AperFunction,ComponentPad*%
%ADD22R,1.600000X1.600000*%
%TD*%
%TA.AperFunction,ViaPad*%
%ADD23C,2.000000*%
%TD*%
%TA.AperFunction,ViaPad*%
%ADD24C,2.300000*%
%TD*%
%TA.AperFunction,Conductor*%
%ADD25C,2.000000*%
%TD*%
%TA.AperFunction,Conductor*%
%ADD26C,1.500000*%
%TD*%
%TA.AperFunction,Conductor*%
%ADD27C,0.250000*%
%TD*%
G04 APERTURE END LIST*
D10*
X192750000Y-85250000D02*
X104250000Y-85250000D01*
X104250000Y-85250000D02*
X104250000Y-135250000D01*
X104250000Y-135250000D02*
X192750000Y-135250000D01*
X192750000Y-135250000D02*
X192750000Y-85250000D01*
D11*
%TO.P,R5,1*%
%TO.N,Net-(MD1-Pad)*%
X119790000Y-108300000D03*
D12*
%TO.P,R5,2*%
%TO.N,Net-(A1-Pad1)*%
X127410000Y-108300000D03*
%TD*%
D13*
%TO.P,PWRIN,*%
%TO.N,*%
X107500000Y-131075000D03*
X118500000Y-131075000D03*
D14*
%TO.P,PWRIN,1*%
%TO.N,GND*%
X110500000Y-121075000D03*
D15*
%TO.P,PWRIN,2*%
%TO.N,+12V*%
X115500000Y-121075000D03*
%TD*%
D11*
%TO.P,R6,1*%
%TO.N,GND*%
X108890000Y-108300000D03*
D12*
%TO.P,R6,2*%
%TO.N,Net-(MD1-Pad)*%
X116510000Y-108300000D03*
%TD*%
D16*
%TO.P,Transmitter,1*%
%TO.N,Net-(A1-Pad27)*%
X118320000Y-95940000D03*
D17*
%TO.P,Transmitter,2*%
%TO.N,GND*%
X118320000Y-98480000D03*
%TO.P,Transmitter,3*%
%TO.N,Net-(A1-Pad2)*%
X118320000Y-101020000D03*
%TO.P,Transmitter,4*%
%TO.N,Net-(MD1-Pad)*%
X118320000Y-103560000D03*
%TD*%
D18*
%TO.P,RV1,1,1*%
%TO.N,Net-(A1-Pad27)*%
X180900000Y-131750000D03*
D19*
%TO.P,RV1,2,2*%
%TO.N,Net-(MD2-Pad7)*%
X185500000Y-131750000D03*
%TO.P,RV1,3,3*%
%TO.N,GND*%
X190100000Y-131750000D03*
%TD*%
D20*
%TO.P,M1,1,+*%
%TO.N,Net-(D1-Pad2)*%
X153850000Y-129750000D03*
D21*
%TO.P,M1,2,-*%
%TO.N,Net-(D2-Pad2)*%
X146650000Y-129750000D03*
%TD*%
D22*
%TO.P,A1,1,TX1*%
%TO.N,Net-(A1-Pad1)*%
X127450000Y-103610000D03*
D12*
%TO.P,A1,2,RX1*%
%TO.N,Net-(A1-Pad2)*%
X129990000Y-103610000D03*
%TO.P,A1,3,~{RESET}*%
%TO.N,unconnected-(A1-Pad3)*%
X132530000Y-103610000D03*
%TO.P,A1,4,GND*%
%TO.N,GND*%
X135070000Y-103610000D03*
%TO.P,A1,5,D2*%
%TO.N,Net-(A1-Pad5)*%
X137610000Y-103610000D03*
%TO.P,A1,6,D3*%
%TO.N,Net-(A1-Pad6)*%
X140150000Y-103610000D03*
%TO.P,A1,7,D4*%
%TO.N,unconnected-(A1-Pad7)*%
X142690000Y-103610000D03*
%TO.P,A1,8,D5*%
%TO.N,Net-(A1-Pad8)*%
X145230000Y-103610000D03*
%TO.P,A1,9,D6*%
%TO.N,Net-(A1-Pad9)*%
X147770000Y-103610000D03*
%TO.P,A1,10,D7*%
%TO.N,unconnected-(A1-Pad10)*%
X150310000Y-103610000D03*
%TO.P,A1,11,D8*%
%TO.N,unconnected-(A1-Pad11)*%
X152850000Y-103610000D03*
%TO.P,A1,12,D9*%
%TO.N,unconnected-(A1-Pad12)*%
X155390000Y-103610000D03*
%TO.P,A1,13,D10*%
%TO.N,unconnected-(A1-Pad13)*%
X157930000Y-103610000D03*
%TO.P,A1,14,MOSI*%
%TO.N,unconnected-(A1-Pad14)*%
X160470000Y-103610000D03*
%TO.P,A1,15,MISO*%
%TO.N,unconnected-(A1-Pad15)*%
X163010000Y-103610000D03*
%TO.P,A1,16,SCK*%
%TO.N,unconnected-(A1-Pad16)*%
X163010000Y-88370000D03*
%TO.P,A1,17,3V3*%
%TO.N,unconnected-(A1-Pad17)*%
X160470000Y-88370000D03*
%TO.P,A1,18,AREF*%
%TO.N,unconnected-(A1-Pad18)*%
X157930000Y-88370000D03*
%TO.P,A1,19,A0*%
%TO.N,unconnected-(A1-Pad19)*%
X155390000Y-88370000D03*
%TO.P,A1,20,A1*%
%TO.N,unconnected-(A1-Pad20)*%
X152850000Y-88370000D03*
%TO.P,A1,21,A2*%
%TO.N,unconnected-(A1-Pad21)*%
X150310000Y-88370000D03*
%TO.P,A1,22,A3*%
%TO.N,unconnected-(A1-Pad22)*%
X147770000Y-88370000D03*
%TO.P,A1,23,SDA/A4*%
%TO.N,Net-(A1-Pad23)*%
X145230000Y-88370000D03*
%TO.P,A1,24,SCL/A5*%
%TO.N,Net-(A1-Pad24)*%
X142690000Y-88370000D03*
%TO.P,A1,25,A6*%
%TO.N,unconnected-(A1-Pad25)*%
X140150000Y-88370000D03*
%TO.P,A1,26,A7*%
%TO.N,unconnected-(A1-Pad26)*%
X137610000Y-88370000D03*
%TO.P,A1,27,+5V*%
%TO.N,Net-(A1-Pad27)*%
X135070000Y-88370000D03*
%TO.P,A1,28,~{RESET}*%
%TO.N,unconnected-(A1-Pad28)*%
X132530000Y-88370000D03*
%TO.P,A1,29,GND*%
%TO.N,GND*%
X129990000Y-88370000D03*
%TO.P,A1,30,VIN*%
%TO.N,+12V*%
X127450000Y-88370000D03*
%TD*%
D16*
%TO.P,MD2,1,VDD*%
%TO.N,Net-(A1-Pad27)*%
X189525000Y-101500000D03*
D17*
%TO.P,MD2,2,GND*%
%TO.N,GND*%
X189525000Y-104040000D03*
%TO.P,MD2,3,SCL*%
%TO.N,Net-(A1-Pad24)*%
X189525000Y-106580000D03*
%TO.P,MD2,4,SDA*%
%TO.N,Net-(A1-Pad23)*%
X189525000Y-109120000D03*
%TO.P,MD2,5,ADDR*%
%TO.N,unconnected-(MD2-Pad5)*%
X189525000Y-111660000D03*
%TO.P,MD2,6,ALERT*%
%TO.N,unconnected-(MD2-Pad6)*%
X189525000Y-114200000D03*
%TO.P,MD2,7,A0*%
%TO.N,Net-(MD2-Pad7)*%
X189525000Y-116740000D03*
%TO.P,MD2,8,A1*%
%TO.N,GND*%
X189525000Y-119280000D03*
%TO.P,MD2,9,A2*%
%TO.N,unconnected-(MD2-Pad9)*%
X189525000Y-121820000D03*
%TO.P,MD2,10,A3*%
%TO.N,unconnected-(MD2-Pad10)*%
X189525000Y-124360000D03*
%TD*%
D23*
%TO.N,GND*%
X177150000Y-124590000D03*
%TO.N,+12V*%
X137250000Y-123500000D03*
D24*
X141000000Y-112500000D03*
D23*
X154500000Y-123000000D03*
%TD*%
D25*
%TO.N,+12V*%
X123312994Y-92507006D02*
X127450000Y-88370000D01*
X146500000Y-118000000D02*
X149500000Y-118000000D01*
X123312994Y-113262006D02*
X123312994Y-112500000D01*
X123312994Y-112500000D02*
X123312994Y-92507006D01*
X149500000Y-118000000D02*
X154500000Y-123000000D01*
X141000000Y-112500000D02*
X146500000Y-118000000D01*
D26*
X137250000Y-123500000D02*
X137250000Y-112500000D01*
D25*
X123312994Y-112500000D02*
X137250000Y-112500000D01*
X115500000Y-121075000D02*
X123312994Y-113262006D01*
X137250000Y-112500000D02*
X141000000Y-112500000D01*
D27*
%TO.N,Net-(A1-Pad24)*%
X178780000Y-106580000D02*
X167800000Y-95600000D01*
X149920000Y-95600000D02*
X142690000Y-88370000D01*
X189525000Y-106580000D02*
X178780000Y-106580000D01*
X167800000Y-95600000D02*
X149920000Y-95600000D01*
%TD*%
%TA.AperFunction,Conductor*%
%TO.N,GND*%
G36*
X192083621Y-85878502D02*
G01*
X192130114Y-85932158D01*
X192141500Y-85984500D01*
X192141500Y-134515500D01*
X192121498Y-134583621D01*
X192067842Y-134630114D01*
X192015500Y-134641500D01*
X104984500Y-134641500D01*
X104916379Y-134621498D01*
X104869886Y-134567842D01*
X104858500Y-134515500D01*
X104858500Y-132600400D01*
X179341500Y-132600400D01*
X179341837Y-132603646D01*
X179341837Y-132603650D01*
X179348169Y-132664670D01*
X179352474Y-132706165D01*
X179408450Y-132873945D01*
X179501522Y-133024348D01*
X179626697Y-133149305D01*
X179632927Y-133153145D01*
X179632928Y-133153146D01*
X179770090Y-133237694D01*
X179777262Y-133242115D01*
X179857005Y-133268564D01*
X179938611Y-133295632D01*
X179938613Y-133295632D01*
X179945139Y-133297797D01*
X179951975Y-133298497D01*
X179951978Y-133298498D01*
X179995031Y-133302909D01*
X180049600Y-133308500D01*
X181750400Y-133308500D01*
X181753646Y-133308163D01*
X181753650Y-133308163D01*
X181849307Y-133298238D01*
X181849311Y-133298237D01*
X181856165Y-133297526D01*
X181862701Y-133295345D01*
X181862703Y-133295345D01*
X181994805Y-133251272D01*
X182023945Y-133241550D01*
X182174348Y-133148478D01*
X182299305Y-133023303D01*
X182392115Y-132872738D01*
X182447797Y-132704861D01*
X182458500Y-132600400D01*
X182458500Y-131750000D01*
X183936681Y-131750000D01*
X183955928Y-131994557D01*
X183957082Y-131999364D01*
X183957083Y-131999370D01*
X183986628Y-132122434D01*
X184013195Y-132233092D01*
X184015088Y-132237663D01*
X184015089Y-132237665D01*
X184023719Y-132258500D01*
X184107073Y-132459732D01*
X184235248Y-132668896D01*
X184238463Y-132672660D01*
X184238465Y-132672663D01*
X184272663Y-132712703D01*
X184394567Y-132855433D01*
X184398323Y-132858641D01*
X184575182Y-133009694D01*
X184581104Y-133014752D01*
X184585327Y-133017340D01*
X184585330Y-133017342D01*
X184603511Y-133028483D01*
X184790268Y-133142927D01*
X184812974Y-133152332D01*
X185012335Y-133234911D01*
X185012337Y-133234912D01*
X185016908Y-133236805D01*
X185046328Y-133243868D01*
X185250630Y-133292917D01*
X185250636Y-133292918D01*
X185255443Y-133294072D01*
X185500000Y-133313319D01*
X185744557Y-133294072D01*
X185749364Y-133292918D01*
X185749370Y-133292917D01*
X185953672Y-133243868D01*
X185983092Y-133236805D01*
X185987663Y-133234912D01*
X185987665Y-133234911D01*
X186187026Y-133152332D01*
X186209732Y-133142927D01*
X186396489Y-133028483D01*
X186411915Y-133019030D01*
X189195800Y-133019030D01*
X189201527Y-133026680D01*
X189386272Y-133139893D01*
X189395067Y-133144375D01*
X189612490Y-133234434D01*
X189621875Y-133237483D01*
X189850708Y-133292422D01*
X189860455Y-133293965D01*
X190095070Y-133312430D01*
X190104930Y-133312430D01*
X190339545Y-133293965D01*
X190349292Y-133292422D01*
X190578125Y-133237483D01*
X190587510Y-133234434D01*
X190804933Y-133144375D01*
X190813728Y-133139893D01*
X190994805Y-133028928D01*
X191004267Y-133018470D01*
X191000484Y-133009694D01*
X190112812Y-132122022D01*
X190098868Y-132114408D01*
X190097035Y-132114539D01*
X190090420Y-132118790D01*
X189202560Y-133006650D01*
X189195800Y-133019030D01*
X186411915Y-133019030D01*
X186414670Y-133017342D01*
X186414673Y-133017340D01*
X186418896Y-133014752D01*
X186424819Y-133009694D01*
X186601677Y-132858641D01*
X186605433Y-132855433D01*
X186727337Y-132712703D01*
X186761535Y-132672663D01*
X186761537Y-132672660D01*
X186764752Y-132668896D01*
X186892927Y-132459732D01*
X186976281Y-132258500D01*
X186984911Y-132237665D01*
X186984912Y-132237663D01*
X186986805Y-132233092D01*
X187013372Y-132122434D01*
X187042917Y-131999370D01*
X187042918Y-131999364D01*
X187044072Y-131994557D01*
X187062931Y-131754930D01*
X188537570Y-131754930D01*
X188556035Y-131989545D01*
X188557578Y-131999292D01*
X188612517Y-132228125D01*
X188615566Y-132237510D01*
X188705625Y-132454933D01*
X188710107Y-132463728D01*
X188821072Y-132644805D01*
X188831530Y-132654267D01*
X188840306Y-132650484D01*
X189727978Y-131762812D01*
X189734356Y-131751132D01*
X190464408Y-131751132D01*
X190464539Y-131752965D01*
X190468790Y-131759580D01*
X191356650Y-132647440D01*
X191369030Y-132654200D01*
X191376680Y-132648473D01*
X191489893Y-132463728D01*
X191494375Y-132454933D01*
X191584434Y-132237510D01*
X191587483Y-132228125D01*
X191642422Y-131999292D01*
X191643965Y-131989545D01*
X191662430Y-131754930D01*
X191662430Y-131745070D01*
X191643965Y-131510455D01*
X191642422Y-131500708D01*
X191587483Y-131271875D01*
X191584434Y-131262490D01*
X191494375Y-131045067D01*
X191489893Y-131036272D01*
X191378928Y-130855195D01*
X191368470Y-130845733D01*
X191359694Y-130849516D01*
X190472022Y-131737188D01*
X190464408Y-131751132D01*
X189734356Y-131751132D01*
X189735592Y-131748868D01*
X189735461Y-131747035D01*
X189731210Y-131740420D01*
X188843350Y-130852560D01*
X188830970Y-130845800D01*
X188823320Y-130851527D01*
X188710107Y-131036272D01*
X188705625Y-131045067D01*
X188615566Y-131262490D01*
X188612517Y-131271875D01*
X188557578Y-131500708D01*
X188556035Y-131510455D01*
X188537570Y-131745070D01*
X188537570Y-131754930D01*
X187062931Y-131754930D01*
X187063319Y-131750000D01*
X187044072Y-131505443D01*
X187036355Y-131473297D01*
X186987960Y-131271720D01*
X186986805Y-131266908D01*
X186892927Y-131040268D01*
X186764752Y-130831104D01*
X186738779Y-130800693D01*
X186608641Y-130648323D01*
X186605433Y-130644567D01*
X186601677Y-130641359D01*
X186422663Y-130488465D01*
X186422660Y-130488463D01*
X186418896Y-130485248D01*
X186414673Y-130482660D01*
X186414670Y-130482658D01*
X186412829Y-130481530D01*
X189195733Y-130481530D01*
X189199516Y-130490306D01*
X190087188Y-131377978D01*
X190101132Y-131385592D01*
X190102965Y-131385461D01*
X190109580Y-131381210D01*
X190997440Y-130493350D01*
X191004200Y-130480970D01*
X190998473Y-130473320D01*
X190813728Y-130360107D01*
X190804933Y-130355625D01*
X190587510Y-130265566D01*
X190578125Y-130262517D01*
X190349292Y-130207578D01*
X190339545Y-130206035D01*
X190104930Y-130187570D01*
X190095070Y-130187570D01*
X189860455Y-130206035D01*
X189850708Y-130207578D01*
X189621875Y-130262517D01*
X189612490Y-130265566D01*
X189395067Y-130355625D01*
X189386272Y-130360107D01*
X189205195Y-130471072D01*
X189195733Y-130481530D01*
X186412829Y-130481530D01*
X186345485Y-130440262D01*
X186209732Y-130357073D01*
X186051013Y-130291329D01*
X185987665Y-130265089D01*
X185987663Y-130265088D01*
X185983092Y-130263195D01*
X185900437Y-130243351D01*
X185749370Y-130207083D01*
X185749364Y-130207082D01*
X185744557Y-130205928D01*
X185500000Y-130186681D01*
X185255443Y-130205928D01*
X185250636Y-130207082D01*
X185250630Y-130207083D01*
X185099563Y-130243351D01*
X185016908Y-130263195D01*
X185012337Y-130265088D01*
X185012335Y-130265089D01*
X184948987Y-130291329D01*
X184790268Y-130357073D01*
X184654515Y-130440262D01*
X184585330Y-130482658D01*
X184585327Y-130482660D01*
X184581104Y-130485248D01*
X184577340Y-130488463D01*
X184577337Y-130488465D01*
X184398323Y-130641359D01*
X184394567Y-130644567D01*
X184391359Y-130648323D01*
X184261222Y-130800693D01*
X184235248Y-130831104D01*
X184107073Y-131040268D01*
X184013195Y-131266908D01*
X184012040Y-131271720D01*
X183963646Y-131473297D01*
X183955928Y-131505443D01*
X183936681Y-131750000D01*
X182458500Y-131750000D01*
X182458500Y-130899600D01*
X182453893Y-130855195D01*
X182448238Y-130800693D01*
X182448237Y-130800689D01*
X182447526Y-130793835D01*
X182391550Y-130626055D01*
X182298478Y-130475652D01*
X182173303Y-130350695D01*
X182034425Y-130265089D01*
X182028968Y-130261725D01*
X182028966Y-130261724D01*
X182022738Y-130257885D01*
X181942995Y-130231436D01*
X181861389Y-130204368D01*
X181861387Y-130204368D01*
X181854861Y-130202203D01*
X181848025Y-130201503D01*
X181848022Y-130201502D01*
X181804969Y-130197091D01*
X181750400Y-130191500D01*
X180049600Y-130191500D01*
X180046354Y-130191837D01*
X180046350Y-130191837D01*
X179950693Y-130201762D01*
X179950689Y-130201763D01*
X179943835Y-130202474D01*
X179937299Y-130204655D01*
X179937297Y-130204655D01*
X179928536Y-130207578D01*
X179776055Y-130258450D01*
X179625652Y-130351522D01*
X179500695Y-130476697D01*
X179407885Y-130627262D01*
X179352203Y-130795139D01*
X179341500Y-130899600D01*
X179341500Y-132600400D01*
X104858500Y-132600400D01*
X104858500Y-131075000D01*
X106286884Y-131075000D01*
X106305314Y-131285655D01*
X106306738Y-131290968D01*
X106306738Y-131290970D01*
X106355593Y-131473297D01*
X106360044Y-131489910D01*
X106362366Y-131494891D01*
X106362367Y-131494892D01*
X106437571Y-131656166D01*
X106449411Y-131681558D01*
X106570699Y-131854776D01*
X106720224Y-132004301D01*
X106893442Y-132125589D01*
X106898420Y-132127910D01*
X106898423Y-132127912D01*
X107041048Y-132194419D01*
X107085090Y-132214956D01*
X107090398Y-132216378D01*
X107090400Y-132216379D01*
X107284030Y-132268262D01*
X107284032Y-132268262D01*
X107289345Y-132269686D01*
X107500000Y-132288116D01*
X107710655Y-132269686D01*
X107715968Y-132268262D01*
X107715970Y-132268262D01*
X107909600Y-132216379D01*
X107909602Y-132216378D01*
X107914910Y-132214956D01*
X107958952Y-132194419D01*
X108101577Y-132127912D01*
X108101580Y-132127910D01*
X108106558Y-132125589D01*
X108279776Y-132004301D01*
X108429301Y-131854776D01*
X108550589Y-131681558D01*
X108562430Y-131656166D01*
X108637633Y-131494892D01*
X108637634Y-131494891D01*
X108639956Y-131489910D01*
X108644408Y-131473297D01*
X108693262Y-131290970D01*
X108693262Y-131290968D01*
X108694686Y-131285655D01*
X108713116Y-131075000D01*
X117286884Y-131075000D01*
X117305314Y-131285655D01*
X117306738Y-131290968D01*
X117306738Y-131290970D01*
X117355593Y-131473297D01*
X117360044Y-131489910D01*
X117362366Y-131494891D01*
X117362367Y-131494892D01*
X117437571Y-131656166D01*
X117449411Y-131681558D01*
X117570699Y-131854776D01*
X117720224Y-132004301D01*
X117893442Y-132125589D01*
X117898420Y-132127910D01*
X117898423Y-132127912D01*
X118041048Y-132194419D01*
X118085090Y-132214956D01*
X118090398Y-132216378D01*
X118090400Y-132216379D01*
X118284030Y-132268262D01*
X118284032Y-132268262D01*
X118289345Y-132269686D01*
X118500000Y-132288116D01*
X118710655Y-132269686D01*
X118715968Y-132268262D01*
X118715970Y-132268262D01*
X118909600Y-132216379D01*
X118909602Y-132216378D01*
X118914910Y-132214956D01*
X118958952Y-132194419D01*
X119101577Y-132127912D01*
X119101580Y-132127910D01*
X119106558Y-132125589D01*
X119279776Y-132004301D01*
X119429301Y-131854776D01*
X119550589Y-131681558D01*
X119562430Y-131656166D01*
X119637633Y-131494892D01*
X119637634Y-131494891D01*
X119639956Y-131489910D01*
X119644408Y-131473297D01*
X119693262Y-131290970D01*
X119693262Y-131290968D01*
X119694686Y-131285655D01*
X119713116Y-131075000D01*
X119694686Y-130864345D01*
X119691528Y-130852560D01*
X119641379Y-130665400D01*
X119641378Y-130665398D01*
X119639956Y-130660090D01*
X119631222Y-130641359D01*
X119552912Y-130473423D01*
X119552910Y-130473420D01*
X119550589Y-130468442D01*
X119429301Y-130295224D01*
X119279776Y-130145699D01*
X119106558Y-130024411D01*
X119101580Y-130022090D01*
X119101577Y-130022088D01*
X118919892Y-129937367D01*
X118919891Y-129937366D01*
X118914910Y-129935044D01*
X118909602Y-129933622D01*
X118909600Y-129933621D01*
X118715970Y-129881738D01*
X118715968Y-129881738D01*
X118710655Y-129880314D01*
X118500000Y-129861884D01*
X118289345Y-129880314D01*
X118284032Y-129881738D01*
X118284030Y-129881738D01*
X118090400Y-129933621D01*
X118090398Y-129933622D01*
X118085090Y-129935044D01*
X118080109Y-129937366D01*
X118080108Y-129937367D01*
X117898423Y-130022088D01*
X117898420Y-130022090D01*
X117893442Y-130024411D01*
X117720224Y-130145699D01*
X117570699Y-130295224D01*
X117449411Y-130468442D01*
X117447090Y-130473420D01*
X117447088Y-130473423D01*
X117368778Y-130641359D01*
X117360044Y-130660090D01*
X117358622Y-130665398D01*
X117358621Y-130665400D01*
X117308472Y-130852560D01*
X117305314Y-130864345D01*
X117286884Y-131075000D01*
X108713116Y-131075000D01*
X108694686Y-130864345D01*
X108691528Y-130852560D01*
X108641379Y-130665400D01*
X108641378Y-130665398D01*
X108639956Y-130660090D01*
X108631222Y-130641359D01*
X108552912Y-130473423D01*
X108552910Y-130473420D01*
X108550589Y-130468442D01*
X108429301Y-130295224D01*
X108279776Y-130145699D01*
X108106558Y-130024411D01*
X108101580Y-130022090D01*
X108101577Y-130022088D01*
X107919892Y-129937367D01*
X107919891Y-129937366D01*
X107914910Y-129935044D01*
X107909602Y-129933622D01*
X107909600Y-129933621D01*
X107715970Y-129881738D01*
X107715968Y-129881738D01*
X107710655Y-129880314D01*
X107500000Y-129861884D01*
X107289345Y-129880314D01*
X107284032Y-129881738D01*
X107284030Y-129881738D01*
X107090400Y-129933621D01*
X107090398Y-129933622D01*
X107085090Y-129935044D01*
X107080109Y-129937366D01*
X107080108Y-129937367D01*
X106898423Y-130022088D01*
X106898420Y-130022090D01*
X106893442Y-130024411D01*
X106720224Y-130145699D01*
X106570699Y-130295224D01*
X106449411Y-130468442D01*
X106447090Y-130473420D01*
X106447088Y-130473423D01*
X106368778Y-130641359D01*
X106360044Y-130660090D01*
X106358622Y-130665398D01*
X106358621Y-130665400D01*
X106308472Y-130852560D01*
X106305314Y-130864345D01*
X106286884Y-131075000D01*
X104858500Y-131075000D01*
X104858500Y-129750000D01*
X144136540Y-129750000D01*
X144156359Y-130065020D01*
X144215505Y-130375072D01*
X144216732Y-130378848D01*
X144297447Y-130627262D01*
X144313044Y-130675266D01*
X144314731Y-130678852D01*
X144314733Y-130678856D01*
X144445750Y-130957283D01*
X144445754Y-130957290D01*
X144447438Y-130960869D01*
X144616568Y-131227375D01*
X144817767Y-131470582D01*
X145047860Y-131686654D01*
X145303221Y-131872184D01*
X145306690Y-131874091D01*
X145306693Y-131874093D01*
X145549286Y-132007460D01*
X145579821Y-132024247D01*
X145583490Y-132025700D01*
X145583495Y-132025702D01*
X145835781Y-132125589D01*
X145873298Y-132140443D01*
X146179025Y-132218940D01*
X146492179Y-132258500D01*
X146807821Y-132258500D01*
X147120975Y-132218940D01*
X147426702Y-132140443D01*
X147464219Y-132125589D01*
X147716505Y-132025702D01*
X147716510Y-132025700D01*
X147720179Y-132024247D01*
X147750714Y-132007460D01*
X147993307Y-131874093D01*
X147993310Y-131874091D01*
X147996779Y-131872184D01*
X148252140Y-131686654D01*
X148397236Y-131550400D01*
X151341500Y-131550400D01*
X151352474Y-131656166D01*
X151354655Y-131662702D01*
X151354655Y-131662704D01*
X151363422Y-131688982D01*
X151408450Y-131823946D01*
X151501522Y-131974348D01*
X151506704Y-131979521D01*
X151516824Y-131989623D01*
X151626697Y-132099305D01*
X151632927Y-132103145D01*
X151632928Y-132103146D01*
X151770090Y-132187694D01*
X151777262Y-132192115D01*
X151839122Y-132212633D01*
X151938611Y-132245632D01*
X151938613Y-132245632D01*
X151945139Y-132247797D01*
X151951975Y-132248497D01*
X151951978Y-132248498D01*
X151995031Y-132252909D01*
X152049600Y-132258500D01*
X155650400Y-132258500D01*
X155653646Y-132258163D01*
X155653650Y-132258163D01*
X155749308Y-132248238D01*
X155749312Y-132248237D01*
X155756166Y-132247526D01*
X155762702Y-132245345D01*
X155762704Y-132245345D01*
X155894806Y-132201272D01*
X155923946Y-132191550D01*
X156074348Y-132098478D01*
X156199305Y-131973303D01*
X156261636Y-131872184D01*
X156288275Y-131828968D01*
X156288276Y-131828966D01*
X156292115Y-131822738D01*
X156347797Y-131654861D01*
X156358500Y-131550400D01*
X156358500Y-127949600D01*
X156347526Y-127843834D01*
X156337355Y-127813346D01*
X156293868Y-127683002D01*
X156291550Y-127676054D01*
X156198478Y-127525652D01*
X156073303Y-127400695D01*
X156067072Y-127396854D01*
X155928968Y-127311725D01*
X155928966Y-127311724D01*
X155922738Y-127307885D01*
X155762254Y-127254655D01*
X155761389Y-127254368D01*
X155761387Y-127254368D01*
X155754861Y-127252203D01*
X155748025Y-127251503D01*
X155748022Y-127251502D01*
X155704969Y-127247091D01*
X155650400Y-127241500D01*
X152049600Y-127241500D01*
X152046354Y-127241837D01*
X152046350Y-127241837D01*
X151950692Y-127251762D01*
X151950688Y-127251763D01*
X151943834Y-127252474D01*
X151937298Y-127254655D01*
X151937296Y-127254655D01*
X151855199Y-127282045D01*
X151776054Y-127308450D01*
X151625652Y-127401522D01*
X151500695Y-127526697D01*
X151496855Y-127532927D01*
X151496854Y-127532928D01*
X151436930Y-127630143D01*
X151407885Y-127677262D01*
X151352203Y-127845139D01*
X151341500Y-127949600D01*
X151341500Y-131550400D01*
X148397236Y-131550400D01*
X148482233Y-131470582D01*
X148683432Y-131227375D01*
X148852562Y-130960869D01*
X148854246Y-130957290D01*
X148854250Y-130957283D01*
X148985267Y-130678856D01*
X148985269Y-130678852D01*
X148986956Y-130675266D01*
X149002554Y-130627262D01*
X149083268Y-130378848D01*
X149084495Y-130375072D01*
X149143641Y-130065020D01*
X149163460Y-129750000D01*
X149143641Y-129434980D01*
X149084495Y-129124928D01*
X148986956Y-128824734D01*
X148985267Y-128821144D01*
X148854250Y-128542717D01*
X148854246Y-128542710D01*
X148852562Y-128539131D01*
X148683432Y-128272625D01*
X148482233Y-128029418D01*
X148252140Y-127813346D01*
X147996779Y-127627816D01*
X147824180Y-127532928D01*
X147723648Y-127477660D01*
X147723647Y-127477659D01*
X147720179Y-127475753D01*
X147716510Y-127474300D01*
X147716505Y-127474298D01*
X147430372Y-127361010D01*
X147430371Y-127361010D01*
X147426702Y-127359557D01*
X147120975Y-127281060D01*
X146807821Y-127241500D01*
X146492179Y-127241500D01*
X146179025Y-127281060D01*
X145873298Y-127359557D01*
X145869629Y-127361010D01*
X145869628Y-127361010D01*
X145583495Y-127474298D01*
X145583490Y-127474300D01*
X145579821Y-127475753D01*
X145576353Y-127477659D01*
X145576352Y-127477660D01*
X145475821Y-127532928D01*
X145303221Y-127627816D01*
X145047860Y-127813346D01*
X144817767Y-128029418D01*
X144616568Y-128272625D01*
X144447438Y-128539131D01*
X144445754Y-128542710D01*
X144445750Y-128542717D01*
X144314733Y-128821144D01*
X144313044Y-128824734D01*
X144215505Y-129124928D01*
X144156359Y-129434980D01*
X144136540Y-129750000D01*
X104858500Y-129750000D01*
X104858500Y-122869669D01*
X108242001Y-122869669D01*
X108242371Y-122876490D01*
X108247895Y-122927352D01*
X108251521Y-122942604D01*
X108296676Y-123063054D01*
X108305214Y-123078649D01*
X108381715Y-123180724D01*
X108394276Y-123193285D01*
X108496351Y-123269786D01*
X108511946Y-123278324D01*
X108632394Y-123323478D01*
X108647649Y-123327105D01*
X108698514Y-123332631D01*
X108705328Y-123333000D01*
X110227885Y-123333000D01*
X110243124Y-123328525D01*
X110244329Y-123327135D01*
X110246000Y-123319452D01*
X110246000Y-123314884D01*
X110754000Y-123314884D01*
X110758475Y-123330123D01*
X110759865Y-123331328D01*
X110767548Y-123332999D01*
X112294669Y-123332999D01*
X112301490Y-123332629D01*
X112352352Y-123327105D01*
X112367604Y-123323479D01*
X112488054Y-123278324D01*
X112503649Y-123269786D01*
X112605724Y-123193285D01*
X112618285Y-123180724D01*
X112694786Y-123078649D01*
X112703324Y-123063054D01*
X112748478Y-122942606D01*
X112752105Y-122927351D01*
X112757631Y-122876486D01*
X112758000Y-122869672D01*
X112758000Y-121347115D01*
X112753525Y-121331876D01*
X112752135Y-121330671D01*
X112744452Y-121329000D01*
X110772115Y-121329000D01*
X110756876Y-121333475D01*
X110755671Y-121334865D01*
X110754000Y-121342548D01*
X110754000Y-123314884D01*
X110246000Y-123314884D01*
X110246000Y-121347115D01*
X110241525Y-121331876D01*
X110240135Y-121330671D01*
X110232452Y-121329000D01*
X108260116Y-121329000D01*
X108244877Y-121333475D01*
X108243672Y-121334865D01*
X108242001Y-121342548D01*
X108242001Y-122869669D01*
X104858500Y-122869669D01*
X104858500Y-121075000D01*
X113236654Y-121075000D01*
X113236924Y-121079119D01*
X113254960Y-121354297D01*
X113256017Y-121370426D01*
X113256819Y-121374459D01*
X113256820Y-121374465D01*
X113302184Y-121602522D01*
X113313776Y-121660797D01*
X113315103Y-121664706D01*
X113315104Y-121664710D01*
X113366679Y-121816646D01*
X113408941Y-121941145D01*
X113451935Y-122028328D01*
X113521717Y-122169831D01*
X113539885Y-122206673D01*
X113552448Y-122225475D01*
X113697960Y-122443249D01*
X113704367Y-122452838D01*
X113707081Y-122455932D01*
X113707085Y-122455938D01*
X113896864Y-122672338D01*
X113899573Y-122675427D01*
X113902662Y-122678136D01*
X114119062Y-122867915D01*
X114119068Y-122867919D01*
X114122162Y-122870633D01*
X114125588Y-122872922D01*
X114125593Y-122872926D01*
X114308380Y-122995060D01*
X114368327Y-123035115D01*
X114372026Y-123036939D01*
X114372031Y-123036942D01*
X114463240Y-123081921D01*
X114633855Y-123166059D01*
X114637760Y-123167384D01*
X114637761Y-123167385D01*
X114910290Y-123259896D01*
X114910294Y-123259897D01*
X114914203Y-123261224D01*
X114918247Y-123262028D01*
X114918253Y-123262030D01*
X115200535Y-123318180D01*
X115200541Y-123318181D01*
X115204574Y-123318983D01*
X115208679Y-123319252D01*
X115208686Y-123319253D01*
X115495881Y-123338076D01*
X115500000Y-123338346D01*
X115504119Y-123338076D01*
X115791314Y-123319253D01*
X115791321Y-123319252D01*
X115795426Y-123318983D01*
X115799459Y-123318181D01*
X115799465Y-123318180D01*
X116081747Y-123262030D01*
X116081753Y-123262028D01*
X116085797Y-123261224D01*
X116089706Y-123259897D01*
X116089710Y-123259896D01*
X116362239Y-123167385D01*
X116362240Y-123167384D01*
X116366145Y-123166059D01*
X116536760Y-123081921D01*
X116627969Y-123036942D01*
X116627974Y-123036939D01*
X116631673Y-123035115D01*
X116691620Y-122995060D01*
X116874407Y-122872926D01*
X116874412Y-122872922D01*
X116877838Y-122870633D01*
X116880932Y-122867919D01*
X116880938Y-122867915D01*
X117097338Y-122678136D01*
X117100427Y-122675427D01*
X117103136Y-122672338D01*
X117292915Y-122455938D01*
X117292919Y-122455932D01*
X117295633Y-122452838D01*
X117302041Y-122443249D01*
X117447552Y-122225475D01*
X117460115Y-122206673D01*
X117478284Y-122169831D01*
X117548065Y-122028328D01*
X117591059Y-121941145D01*
X117633321Y-121816646D01*
X117684896Y-121664710D01*
X117684897Y-121664706D01*
X117686224Y-121660797D01*
X117697816Y-121602522D01*
X117743180Y-121374465D01*
X117743181Y-121374459D01*
X117743983Y-121370426D01*
X117745041Y-121354297D01*
X117763076Y-121079119D01*
X117763346Y-121075000D01*
X117759083Y-121009959D01*
X117774587Y-120940676D01*
X117795718Y-120912623D01*
X124362660Y-114345681D01*
X124365182Y-114343227D01*
X124434006Y-114278144D01*
X124434008Y-114278141D01*
X124437675Y-114274674D01*
X124485405Y-114212245D01*
X124489546Y-114207114D01*
X124537185Y-114151139D01*
X124537186Y-114151138D01*
X124540464Y-114147286D01*
X124543083Y-114142961D01*
X124543087Y-114142956D01*
X124557485Y-114119182D01*
X124565157Y-114107935D01*
X124585114Y-114081832D01*
X124588798Y-114074961D01*
X124589554Y-114074193D01*
X124590247Y-114073118D01*
X124590471Y-114073262D01*
X124638614Y-114024377D01*
X124699843Y-114008500D01*
X135865500Y-114008500D01*
X135933621Y-114028502D01*
X135980114Y-114082158D01*
X135991500Y-114134500D01*
X135991500Y-122631059D01*
X135972932Y-122696894D01*
X135904351Y-122808807D01*
X135904345Y-122808818D01*
X135901760Y-122813037D01*
X135899867Y-122817607D01*
X135899865Y-122817611D01*
X135848092Y-122942604D01*
X135810895Y-123032406D01*
X135797266Y-123089174D01*
X135760690Y-123241526D01*
X135755465Y-123263289D01*
X135736835Y-123500000D01*
X135755465Y-123736711D01*
X135756619Y-123741518D01*
X135756620Y-123741524D01*
X135790972Y-123884610D01*
X135810895Y-123967594D01*
X135812788Y-123972165D01*
X135812789Y-123972167D01*
X135878239Y-124130177D01*
X135901760Y-124186963D01*
X135904346Y-124191183D01*
X136023241Y-124385202D01*
X136023245Y-124385208D01*
X136025824Y-124389416D01*
X136180031Y-124569969D01*
X136360584Y-124724176D01*
X136364792Y-124726755D01*
X136364798Y-124726759D01*
X136558817Y-124845654D01*
X136563037Y-124848240D01*
X136567607Y-124850133D01*
X136567611Y-124850135D01*
X136607007Y-124866453D01*
X136782406Y-124939105D01*
X136862609Y-124958360D01*
X137008476Y-124993380D01*
X137008482Y-124993381D01*
X137013289Y-124994535D01*
X137250000Y-125013165D01*
X137486711Y-124994535D01*
X137491518Y-124993381D01*
X137491524Y-124993380D01*
X137637391Y-124958360D01*
X137717594Y-124939105D01*
X137892993Y-124866453D01*
X137932389Y-124850135D01*
X137932393Y-124850133D01*
X137936963Y-124848240D01*
X137941183Y-124845654D01*
X138135202Y-124726759D01*
X138135208Y-124726755D01*
X138139416Y-124724176D01*
X138319969Y-124569969D01*
X138474176Y-124389416D01*
X138476755Y-124385208D01*
X138476759Y-124385202D01*
X138595654Y-124191183D01*
X138598240Y-124186963D01*
X138621762Y-124130177D01*
X138687211Y-123972167D01*
X138687212Y-123972165D01*
X138689105Y-123967594D01*
X138709028Y-123884610D01*
X138743380Y-123741524D01*
X138743381Y-123741518D01*
X138744535Y-123736711D01*
X138763165Y-123500000D01*
X138744535Y-123263289D01*
X138739311Y-123241526D01*
X138702734Y-123089174D01*
X138689105Y-123032406D01*
X138651908Y-122942604D01*
X138600135Y-122817611D01*
X138600133Y-122817607D01*
X138598240Y-122813037D01*
X138595655Y-122808818D01*
X138595649Y-122808807D01*
X138527068Y-122696894D01*
X138508500Y-122631059D01*
X138508500Y-114134500D01*
X138528502Y-114066379D01*
X138582158Y-114019886D01*
X138634500Y-114008500D01*
X140282911Y-114008500D01*
X140331128Y-114018091D01*
X140399514Y-114046417D01*
X140440390Y-114073731D01*
X145416325Y-119049666D01*
X145418779Y-119052188D01*
X145480238Y-119117179D01*
X145487332Y-119124681D01*
X145549757Y-119172408D01*
X145554892Y-119176552D01*
X145614720Y-119227470D01*
X145619045Y-119230089D01*
X145619050Y-119230093D01*
X145642824Y-119244491D01*
X145654071Y-119252163D01*
X145680174Y-119272120D01*
X145684632Y-119274510D01*
X145684633Y-119274511D01*
X145749401Y-119309239D01*
X145755126Y-119312504D01*
X145822358Y-119353221D01*
X145827047Y-119355116D01*
X145827054Y-119355119D01*
X145852828Y-119365533D01*
X145865164Y-119371312D01*
X145889649Y-119384440D01*
X145889653Y-119384442D01*
X145894109Y-119386831D01*
X145898891Y-119388478D01*
X145898892Y-119388478D01*
X145968381Y-119412405D01*
X145974551Y-119414711D01*
X146010461Y-119429220D01*
X146042743Y-119442263D01*
X146042746Y-119442264D01*
X146047429Y-119444156D01*
X146074191Y-119450236D01*
X146079471Y-119451436D01*
X146092575Y-119455169D01*
X146123631Y-119465862D01*
X146128611Y-119466722D01*
X146128622Y-119466725D01*
X146201065Y-119479238D01*
X146207533Y-119480530D01*
X146279212Y-119496815D01*
X146279221Y-119496816D01*
X146284145Y-119497935D01*
X146316951Y-119499999D01*
X146330455Y-119501586D01*
X146352683Y-119505425D01*
X146358933Y-119506505D01*
X146358936Y-119506505D01*
X146362836Y-119507179D01*
X146366793Y-119507359D01*
X146366796Y-119507359D01*
X146390506Y-119508436D01*
X146390525Y-119508436D01*
X146391925Y-119508500D01*
X146448108Y-119508500D01*
X146456019Y-119508749D01*
X146526413Y-119513178D01*
X146567993Y-119509101D01*
X146580289Y-119508500D01*
X148822969Y-119508500D01*
X148891090Y-119528502D01*
X148912064Y-119545405D01*
X153387915Y-124021256D01*
X153394620Y-124028509D01*
X153430031Y-124069969D01*
X153464711Y-124099588D01*
X153474033Y-124107550D01*
X153475603Y-124108944D01*
X153476464Y-124109805D01*
X153478390Y-124111444D01*
X153478392Y-124111446D01*
X153500401Y-124130177D01*
X153535634Y-124160163D01*
X153610584Y-124224176D01*
X153611533Y-124224757D01*
X153614720Y-124227470D01*
X153619050Y-124230093D01*
X153619062Y-124230101D01*
X153720244Y-124291380D01*
X153720806Y-124291722D01*
X153808811Y-124345651D01*
X153808818Y-124345654D01*
X153813037Y-124348240D01*
X153815520Y-124349269D01*
X153816861Y-124350015D01*
X153818033Y-124350602D01*
X153822358Y-124353221D01*
X153931836Y-124397453D01*
X153932710Y-124397810D01*
X154032406Y-124439105D01*
X154036821Y-124440165D01*
X154041578Y-124441896D01*
X154042736Y-124442259D01*
X154047429Y-124444155D01*
X154052360Y-124445275D01*
X154052359Y-124445275D01*
X154158674Y-124469429D01*
X154160173Y-124469779D01*
X154258476Y-124493380D01*
X154258482Y-124493381D01*
X154263289Y-124494535D01*
X154268220Y-124494923D01*
X154272887Y-124495662D01*
X154277867Y-124496621D01*
X154279217Y-124496816D01*
X154284144Y-124497935D01*
X154289187Y-124498252D01*
X154289192Y-124498253D01*
X154339778Y-124501435D01*
X154394564Y-124504882D01*
X154396484Y-124505018D01*
X154495058Y-124512777D01*
X154495070Y-124512777D01*
X154500000Y-124513165D01*
X154504932Y-124512777D01*
X154509882Y-124512777D01*
X154509882Y-124512892D01*
X154520534Y-124512809D01*
X154521357Y-124512861D01*
X154521370Y-124512861D01*
X154526413Y-124513178D01*
X154633319Y-124502696D01*
X154635697Y-124502485D01*
X154727703Y-124495244D01*
X154731782Y-124494923D01*
X154731783Y-124494923D01*
X154736711Y-124494535D01*
X154742189Y-124493220D01*
X154759280Y-124490344D01*
X154768002Y-124489489D01*
X154775770Y-124487437D01*
X154868824Y-124462851D01*
X154871596Y-124462152D01*
X154962785Y-124440260D01*
X154962791Y-124440258D01*
X154967594Y-124439105D01*
X154972164Y-124437212D01*
X154972167Y-124437211D01*
X154975423Y-124435862D01*
X154991459Y-124430450D01*
X155002696Y-124427481D01*
X155025233Y-124417447D01*
X155095179Y-124386305D01*
X155098210Y-124385003D01*
X155182388Y-124350135D01*
X155186963Y-124348240D01*
X155192371Y-124344926D01*
X155196639Y-124342311D01*
X155211221Y-124334639D01*
X155219830Y-124330806D01*
X155219834Y-124330804D01*
X155224456Y-124328746D01*
X155227591Y-124326695D01*
X188162251Y-124326695D01*
X188162548Y-124331848D01*
X188162548Y-124331851D01*
X188170481Y-124469429D01*
X188175110Y-124549715D01*
X188176247Y-124554761D01*
X188176248Y-124554767D01*
X188180397Y-124573177D01*
X188224222Y-124767639D01*
X188262461Y-124861811D01*
X188294316Y-124940260D01*
X188308266Y-124974616D01*
X188424987Y-125165088D01*
X188571250Y-125333938D01*
X188743126Y-125476632D01*
X188936000Y-125589338D01*
X189144692Y-125669030D01*
X189149760Y-125670061D01*
X189149763Y-125670062D01*
X189257017Y-125691883D01*
X189363597Y-125713567D01*
X189368772Y-125713757D01*
X189368774Y-125713757D01*
X189581673Y-125721564D01*
X189581677Y-125721564D01*
X189586837Y-125721753D01*
X189591957Y-125721097D01*
X189591959Y-125721097D01*
X189803288Y-125694025D01*
X189803289Y-125694025D01*
X189808416Y-125693368D01*
X189813366Y-125691883D01*
X190017429Y-125630661D01*
X190017434Y-125630659D01*
X190022384Y-125629174D01*
X190222994Y-125530896D01*
X190404860Y-125401173D01*
X190563096Y-125243489D01*
X190622594Y-125160689D01*
X190690435Y-125066277D01*
X190693453Y-125062077D01*
X190717819Y-125012777D01*
X190790136Y-124866453D01*
X190790137Y-124866451D01*
X190792430Y-124861811D01*
X190857370Y-124648069D01*
X190886529Y-124426590D01*
X190887242Y-124397421D01*
X190888074Y-124363365D01*
X190888074Y-124363361D01*
X190888156Y-124360000D01*
X190869852Y-124137361D01*
X190815431Y-123920702D01*
X190726354Y-123715840D01*
X190670824Y-123630003D01*
X190607822Y-123532617D01*
X190607820Y-123532614D01*
X190605014Y-123528277D01*
X190454670Y-123363051D01*
X190450619Y-123359852D01*
X190450615Y-123359848D01*
X190283414Y-123227800D01*
X190283410Y-123227798D01*
X190279359Y-123224598D01*
X190238053Y-123201796D01*
X190188084Y-123151364D01*
X190173312Y-123081921D01*
X190198428Y-123015516D01*
X190225780Y-122988909D01*
X190290697Y-122942604D01*
X190404860Y-122861173D01*
X190448575Y-122817611D01*
X190503087Y-122763289D01*
X190563096Y-122703489D01*
X190583261Y-122675427D01*
X190690435Y-122526277D01*
X190693453Y-122522077D01*
X190708117Y-122492408D01*
X190790136Y-122326453D01*
X190790137Y-122326451D01*
X190792430Y-122321811D01*
X190857370Y-122108069D01*
X190886529Y-121886590D01*
X190888156Y-121820000D01*
X190869852Y-121597361D01*
X190815431Y-121380702D01*
X190726354Y-121175840D01*
X190605014Y-120988277D01*
X190454670Y-120823051D01*
X190450619Y-120819852D01*
X190450615Y-120819848D01*
X190283414Y-120687800D01*
X190283410Y-120687798D01*
X190279359Y-120684598D01*
X190237569Y-120661529D01*
X190187598Y-120611097D01*
X190172826Y-120541654D01*
X190197942Y-120475248D01*
X190225294Y-120448641D01*
X190400328Y-120323792D01*
X190408200Y-120317139D01*
X190559052Y-120166812D01*
X190565730Y-120158965D01*
X190690003Y-119986020D01*
X190695313Y-119977183D01*
X190789670Y-119786267D01*
X190793469Y-119776672D01*
X190855377Y-119572910D01*
X190857555Y-119562837D01*
X190858986Y-119551962D01*
X190856775Y-119537778D01*
X190843617Y-119534000D01*
X188208225Y-119534000D01*
X188194694Y-119537973D01*
X188193257Y-119547966D01*
X188223565Y-119682446D01*
X188226645Y-119692275D01*
X188306770Y-119889603D01*
X188311413Y-119898794D01*
X188422694Y-120080388D01*
X188428777Y-120088699D01*
X188568213Y-120249667D01*
X188575580Y-120256883D01*
X188739434Y-120392916D01*
X188747881Y-120398831D01*
X188816969Y-120439203D01*
X188865693Y-120490842D01*
X188878764Y-120560625D01*
X188852033Y-120626396D01*
X188811584Y-120659752D01*
X188798607Y-120666507D01*
X188794474Y-120669610D01*
X188794471Y-120669612D01*
X188642539Y-120783686D01*
X188619965Y-120800635D01*
X188604780Y-120816525D01*
X188486139Y-120940676D01*
X188465629Y-120962138D01*
X188339743Y-121146680D01*
X188324003Y-121180590D01*
X188252391Y-121334865D01*
X188245688Y-121349305D01*
X188185989Y-121564570D01*
X188162251Y-121786695D01*
X188162548Y-121791848D01*
X188162548Y-121791851D01*
X188172905Y-121971480D01*
X188175110Y-122009715D01*
X188176247Y-122014761D01*
X188176248Y-122014767D01*
X188196119Y-122102939D01*
X188224222Y-122227639D01*
X188308266Y-122434616D01*
X188424987Y-122625088D01*
X188571250Y-122793938D01*
X188743126Y-122936632D01*
X188775189Y-122955368D01*
X188816445Y-122979476D01*
X188865169Y-123031114D01*
X188878240Y-123100897D01*
X188851509Y-123166669D01*
X188811055Y-123200027D01*
X188798607Y-123206507D01*
X188794474Y-123209610D01*
X188794471Y-123209612D01*
X188624100Y-123337530D01*
X188619965Y-123340635D01*
X188465629Y-123502138D01*
X188339743Y-123686680D01*
X188305927Y-123759531D01*
X188253515Y-123872444D01*
X188245688Y-123889305D01*
X188185989Y-124104570D01*
X188162251Y-124326695D01*
X155227591Y-124326695D01*
X155228691Y-124325975D01*
X155228696Y-124325972D01*
X155306676Y-124274944D01*
X155309833Y-124272945D01*
X155379747Y-124230101D01*
X155389416Y-124224176D01*
X155400210Y-124214958D01*
X155413048Y-124205336D01*
X155423346Y-124198597D01*
X155427579Y-124195827D01*
X155497959Y-124131560D01*
X155501033Y-124128845D01*
X155569969Y-124069969D01*
X155581045Y-124057001D01*
X155591892Y-124045789D01*
X155603091Y-124035563D01*
X155603099Y-124035555D01*
X155606836Y-124032142D01*
X155657997Y-123967594D01*
X155664183Y-123959789D01*
X155667117Y-123956224D01*
X155720958Y-123893184D01*
X155720959Y-123893183D01*
X155724176Y-123889416D01*
X155726761Y-123885197D01*
X155726768Y-123885188D01*
X155734577Y-123872444D01*
X155743266Y-123860011D01*
X155754471Y-123845874D01*
X155754472Y-123845873D01*
X155757619Y-123841902D01*
X155801227Y-123763874D01*
X155803770Y-123759531D01*
X155845652Y-123691187D01*
X155845654Y-123691182D01*
X155848240Y-123686963D01*
X155850133Y-123682393D01*
X155850137Y-123682385D01*
X155856954Y-123665926D01*
X155863370Y-123652683D01*
X155876045Y-123630003D01*
X155905615Y-123548761D01*
X155907607Y-123543637D01*
X155915552Y-123524457D01*
X155939105Y-123467594D01*
X155945083Y-123442695D01*
X155949199Y-123429016D01*
X155957341Y-123406645D01*
X155959070Y-123401895D01*
X155974727Y-123319815D01*
X155975975Y-123314020D01*
X155993380Y-123241526D01*
X155993382Y-123241514D01*
X155994535Y-123236711D01*
X155996769Y-123208330D01*
X155998609Y-123194621D01*
X156004556Y-123163447D01*
X156006303Y-123100897D01*
X156006808Y-123082834D01*
X156007147Y-123076467D01*
X156012777Y-123004930D01*
X156013165Y-123000000D01*
X156012777Y-122995070D01*
X156012777Y-122995060D01*
X156010708Y-122968774D01*
X156010368Y-122955368D01*
X156011193Y-122925848D01*
X156011193Y-122925847D01*
X156011334Y-122920795D01*
X156001051Y-122843729D01*
X156000332Y-122836952D01*
X155996640Y-122790031D01*
X155994535Y-122763289D01*
X155986558Y-122730063D01*
X155984183Y-122717311D01*
X155979898Y-122685196D01*
X155979229Y-122680180D01*
X155957588Y-122608501D01*
X155955697Y-122601514D01*
X155940262Y-122537225D01*
X155939105Y-122532406D01*
X155924938Y-122498204D01*
X155920723Y-122486400D01*
X155910528Y-122452631D01*
X155910528Y-122452630D01*
X155909067Y-122447792D01*
X155877518Y-122383106D01*
X155874357Y-122376089D01*
X155850135Y-122317612D01*
X155848240Y-122313037D01*
X155845658Y-122308823D01*
X155845652Y-122308812D01*
X155827407Y-122279040D01*
X155821591Y-122268439D01*
X155804875Y-122234166D01*
X155802654Y-122229612D01*
X155762820Y-122173144D01*
X155758369Y-122166382D01*
X155724176Y-122110584D01*
X155696437Y-122078105D01*
X155689290Y-122068908D01*
X155665010Y-122034490D01*
X155665006Y-122034485D01*
X155662726Y-122031253D01*
X155643091Y-122009750D01*
X155612085Y-121978744D01*
X155605380Y-121971491D01*
X155569969Y-121930031D01*
X155528509Y-121894620D01*
X155521256Y-121887915D01*
X151240996Y-117607655D01*
X173239858Y-117607655D01*
X173275104Y-117866638D01*
X173276412Y-117871124D01*
X173276412Y-117871126D01*
X173295274Y-117935839D01*
X173348243Y-118117567D01*
X173457668Y-118354928D01*
X173460231Y-118358837D01*
X173598410Y-118569596D01*
X173598414Y-118569601D01*
X173600976Y-118573509D01*
X173775018Y-118768506D01*
X173975970Y-118935637D01*
X173979973Y-118938066D01*
X174195422Y-119068804D01*
X174195426Y-119068806D01*
X174199419Y-119071229D01*
X174440455Y-119172303D01*
X174693783Y-119236641D01*
X174698434Y-119237109D01*
X174698438Y-119237110D01*
X174891308Y-119256531D01*
X174910867Y-119258500D01*
X175066354Y-119258500D01*
X175068679Y-119258327D01*
X175068685Y-119258327D01*
X175256000Y-119244407D01*
X175256004Y-119244406D01*
X175260652Y-119244061D01*
X175265200Y-119243032D01*
X175265206Y-119243031D01*
X175451601Y-119200853D01*
X175515577Y-119186377D01*
X175519931Y-119184684D01*
X175754824Y-119093340D01*
X175754827Y-119093339D01*
X175759177Y-119091647D01*
X175986098Y-118961951D01*
X176191357Y-118800138D01*
X176370443Y-118609763D01*
X176519424Y-118395009D01*
X176635025Y-118160593D01*
X176714707Y-117911665D01*
X176756721Y-117653693D01*
X176760142Y-117392345D01*
X176724896Y-117133362D01*
X176710473Y-117083877D01*
X176653068Y-116886932D01*
X176651757Y-116882433D01*
X176648478Y-116875319D01*
X176616793Y-116806590D01*
X176542332Y-116645072D01*
X176503129Y-116585278D01*
X176401590Y-116430404D01*
X176401586Y-116430399D01*
X176399024Y-116426491D01*
X176224982Y-116231494D01*
X176024030Y-116064363D01*
X175976844Y-116035730D01*
X175804578Y-115931196D01*
X175804574Y-115931194D01*
X175800581Y-115928771D01*
X175559545Y-115827697D01*
X175306217Y-115763359D01*
X175301566Y-115762891D01*
X175301562Y-115762890D01*
X175092271Y-115741816D01*
X175089133Y-115741500D01*
X174933646Y-115741500D01*
X174931321Y-115741673D01*
X174931315Y-115741673D01*
X174744000Y-115755593D01*
X174743996Y-115755594D01*
X174739348Y-115755939D01*
X174734800Y-115756968D01*
X174734794Y-115756969D01*
X174548399Y-115799147D01*
X174484423Y-115813623D01*
X174480071Y-115815315D01*
X174480069Y-115815316D01*
X174245176Y-115906660D01*
X174245173Y-115906661D01*
X174240823Y-115908353D01*
X174236769Y-115910670D01*
X174236767Y-115910671D01*
X174208264Y-115926962D01*
X174013902Y-116038049D01*
X173808643Y-116199862D01*
X173629557Y-116390237D01*
X173523884Y-116542563D01*
X173488659Y-116593340D01*
X173480576Y-116604991D01*
X173478510Y-116609181D01*
X173478508Y-116609184D01*
X173370802Y-116827592D01*
X173364975Y-116839407D01*
X173363553Y-116843850D01*
X173363552Y-116843852D01*
X173352564Y-116878179D01*
X173285293Y-117088335D01*
X173243279Y-117346307D01*
X173243218Y-117350980D01*
X173240735Y-117540689D01*
X173239858Y-117607655D01*
X151240996Y-117607655D01*
X150583675Y-116950334D01*
X150581221Y-116947812D01*
X150516138Y-116878988D01*
X150516135Y-116878986D01*
X150512668Y-116875319D01*
X150450239Y-116827589D01*
X150445108Y-116823448D01*
X150389133Y-116775809D01*
X150389132Y-116775808D01*
X150385280Y-116772530D01*
X150380955Y-116769911D01*
X150380950Y-116769907D01*
X150357176Y-116755509D01*
X150345929Y-116747837D01*
X150319826Y-116727880D01*
X150250592Y-116690757D01*
X150244868Y-116687493D01*
X150244728Y-116687408D01*
X150177642Y-116646779D01*
X150147181Y-116634472D01*
X150134841Y-116628692D01*
X150110350Y-116615560D01*
X150110351Y-116615560D01*
X150105891Y-116613169D01*
X150101110Y-116611523D01*
X150101106Y-116611521D01*
X150031599Y-116587588D01*
X150025421Y-116585278D01*
X149957266Y-116557742D01*
X149957267Y-116557742D01*
X149952571Y-116555845D01*
X149920539Y-116548568D01*
X149907441Y-116544837D01*
X149876369Y-116534138D01*
X149798900Y-116520757D01*
X149792496Y-116519477D01*
X149715856Y-116502065D01*
X149683047Y-116500001D01*
X149669547Y-116498415D01*
X149637164Y-116492821D01*
X149633207Y-116492641D01*
X149633204Y-116492641D01*
X149609494Y-116491564D01*
X149609475Y-116491564D01*
X149608075Y-116491500D01*
X149551892Y-116491500D01*
X149543980Y-116491251D01*
X149538386Y-116490899D01*
X149473587Y-116486822D01*
X149434545Y-116490650D01*
X149432008Y-116490899D01*
X149419712Y-116491500D01*
X147177031Y-116491500D01*
X147108910Y-116471498D01*
X147087936Y-116454595D01*
X142573730Y-111940389D01*
X142546416Y-111899512D01*
X142484198Y-111749303D01*
X142484196Y-111749299D01*
X142482303Y-111744729D01*
X142345903Y-111522144D01*
X142176363Y-111323637D01*
X141977856Y-111154097D01*
X141755271Y-111017697D01*
X141750701Y-111015804D01*
X141750697Y-111015802D01*
X141518662Y-110919690D01*
X141518660Y-110919689D01*
X141514089Y-110917796D01*
X141425069Y-110896424D01*
X141265062Y-110858009D01*
X141265056Y-110858008D01*
X141260249Y-110856854D01*
X141000000Y-110836372D01*
X140739751Y-110856854D01*
X140734944Y-110858008D01*
X140734938Y-110858009D01*
X140574931Y-110896424D01*
X140485911Y-110917796D01*
X140481340Y-110919689D01*
X140481338Y-110919690D01*
X140331129Y-110981909D01*
X140282911Y-110991500D01*
X124947494Y-110991500D01*
X124879373Y-110971498D01*
X124832880Y-110917842D01*
X124821494Y-110865500D01*
X124821494Y-108300000D01*
X126096502Y-108300000D01*
X126116457Y-108528087D01*
X126117881Y-108533400D01*
X126117881Y-108533402D01*
X126155025Y-108672022D01*
X126175716Y-108749243D01*
X126178039Y-108754224D01*
X126178039Y-108754225D01*
X126270151Y-108951762D01*
X126270154Y-108951767D01*
X126272477Y-108956749D01*
X126403802Y-109144300D01*
X126565700Y-109306198D01*
X126570208Y-109309355D01*
X126570211Y-109309357D01*
X126648389Y-109364098D01*
X126753251Y-109437523D01*
X126758233Y-109439846D01*
X126758238Y-109439849D01*
X126954765Y-109531490D01*
X126960757Y-109534284D01*
X126966065Y-109535706D01*
X126966067Y-109535707D01*
X127176598Y-109592119D01*
X127176600Y-109592119D01*
X127181913Y-109593543D01*
X127410000Y-109613498D01*
X127638087Y-109593543D01*
X127643400Y-109592119D01*
X127643402Y-109592119D01*
X127853933Y-109535707D01*
X127853935Y-109535706D01*
X127859243Y-109534284D01*
X127865235Y-109531490D01*
X128061762Y-109439849D01*
X128061767Y-109439846D01*
X128066749Y-109437523D01*
X128171611Y-109364098D01*
X128249789Y-109309357D01*
X128249792Y-109309355D01*
X128254300Y-109306198D01*
X128416198Y-109144300D01*
X128547523Y-108956749D01*
X128549846Y-108951767D01*
X128549849Y-108951762D01*
X128641961Y-108754225D01*
X128641961Y-108754224D01*
X128644284Y-108749243D01*
X128664976Y-108672022D01*
X128702119Y-108533402D01*
X128702119Y-108533400D01*
X128703543Y-108528087D01*
X128723498Y-108300000D01*
X128703543Y-108071913D01*
X128679479Y-107982104D01*
X128645707Y-107856067D01*
X128645706Y-107856065D01*
X128644284Y-107850757D01*
X128609199Y-107775516D01*
X128549849Y-107648238D01*
X128549846Y-107648233D01*
X128547523Y-107643251D01*
X128474098Y-107538389D01*
X128419357Y-107460211D01*
X128419355Y-107460208D01*
X128416198Y-107455700D01*
X128254300Y-107293802D01*
X128249792Y-107290645D01*
X128249789Y-107290643D01*
X128146358Y-107218220D01*
X128066749Y-107162477D01*
X128061767Y-107160154D01*
X128061762Y-107160151D01*
X127864225Y-107068039D01*
X127864224Y-107068039D01*
X127859243Y-107065716D01*
X127853935Y-107064294D01*
X127853933Y-107064293D01*
X127643402Y-107007881D01*
X127643400Y-107007881D01*
X127638087Y-107006457D01*
X127410000Y-106986502D01*
X127181913Y-107006457D01*
X127176600Y-107007881D01*
X127176598Y-107007881D01*
X126966067Y-107064293D01*
X126966065Y-107064294D01*
X126960757Y-107065716D01*
X126955776Y-107068039D01*
X126955775Y-107068039D01*
X126758238Y-107160151D01*
X126758233Y-107160154D01*
X126753251Y-107162477D01*
X126673642Y-107218220D01*
X126570211Y-107290643D01*
X126570208Y-107290645D01*
X126565700Y-107293802D01*
X126403802Y-107455700D01*
X126400645Y-107460208D01*
X126400643Y-107460211D01*
X126345902Y-107538389D01*
X126272477Y-107643251D01*
X126270154Y-107648233D01*
X126270151Y-107648238D01*
X126210801Y-107775516D01*
X126175716Y-107850757D01*
X126174294Y-107856065D01*
X126174293Y-107856067D01*
X126140521Y-107982104D01*
X126116457Y-108071913D01*
X126096502Y-108300000D01*
X124821494Y-108300000D01*
X124821494Y-104458134D01*
X126141500Y-104458134D01*
X126148255Y-104520316D01*
X126199385Y-104656705D01*
X126286739Y-104773261D01*
X126403295Y-104860615D01*
X126539684Y-104911745D01*
X126601866Y-104918500D01*
X128298134Y-104918500D01*
X128360316Y-104911745D01*
X128496705Y-104860615D01*
X128613261Y-104773261D01*
X128700615Y-104656705D01*
X128751745Y-104520316D01*
X128752917Y-104509526D01*
X128753803Y-104507394D01*
X128754425Y-104504778D01*
X128754848Y-104504879D01*
X128780155Y-104443965D01*
X128838517Y-104403537D01*
X128909471Y-104401078D01*
X128970490Y-104437371D01*
X128977489Y-104446031D01*
X128980643Y-104449789D01*
X128983802Y-104454300D01*
X129145700Y-104616198D01*
X129150208Y-104619355D01*
X129150211Y-104619357D01*
X129191542Y-104648297D01*
X129333251Y-104747523D01*
X129338233Y-104749846D01*
X129338238Y-104749849D01*
X129426876Y-104791181D01*
X129540757Y-104844284D01*
X129546065Y-104845706D01*
X129546067Y-104845707D01*
X129756598Y-104902119D01*
X129756600Y-104902119D01*
X129761913Y-104903543D01*
X129990000Y-104923498D01*
X130218087Y-104903543D01*
X130223400Y-104902119D01*
X130223402Y-104902119D01*
X130433933Y-104845707D01*
X130433935Y-104845706D01*
X130439243Y-104844284D01*
X130553124Y-104791181D01*
X130641762Y-104749849D01*
X130641767Y-104749846D01*
X130646749Y-104747523D01*
X130788458Y-104648297D01*
X130829789Y-104619357D01*
X130829792Y-104619355D01*
X130834300Y-104616198D01*
X130996198Y-104454300D01*
X131004499Y-104442446D01*
X131081196Y-104332910D01*
X131127523Y-104266749D01*
X131129846Y-104261767D01*
X131129849Y-104261762D01*
X131145805Y-104227543D01*
X131192722Y-104174258D01*
X131260999Y-104154797D01*
X131328959Y-104175339D01*
X131374195Y-104227543D01*
X131390151Y-104261762D01*
X131390154Y-104261767D01*
X131392477Y-104266749D01*
X131438804Y-104332910D01*
X131515502Y-104442446D01*
X131523802Y-104454300D01*
X131685700Y-104616198D01*
X131690208Y-104619355D01*
X131690211Y-104619357D01*
X131731542Y-104648297D01*
X131873251Y-104747523D01*
X131878233Y-104749846D01*
X131878238Y-104749849D01*
X131966876Y-104791181D01*
X132080757Y-104844284D01*
X132086065Y-104845706D01*
X132086067Y-104845707D01*
X132296598Y-104902119D01*
X132296600Y-104902119D01*
X132301913Y-104903543D01*
X132530000Y-104923498D01*
X132758087Y-104903543D01*
X132763400Y-104902119D01*
X132763402Y-104902119D01*
X132973933Y-104845707D01*
X132973935Y-104845706D01*
X132979243Y-104844284D01*
X133093124Y-104791181D01*
X133181762Y-104749849D01*
X133181767Y-104749846D01*
X133186749Y-104747523D01*
X133328458Y-104648297D01*
X133369789Y-104619357D01*
X133369792Y-104619355D01*
X133374300Y-104616198D01*
X133536198Y-104454300D01*
X133544499Y-104442446D01*
X133621196Y-104332910D01*
X133667523Y-104266749D01*
X133669846Y-104261767D01*
X133669849Y-104261762D01*
X133686081Y-104226951D01*
X133732998Y-104173666D01*
X133801275Y-104154205D01*
X133869235Y-104174747D01*
X133914471Y-104226951D01*
X133930586Y-104261511D01*
X133936069Y-104271007D01*
X134061028Y-104449467D01*
X134068084Y-104457875D01*
X134222125Y-104611916D01*
X134230533Y-104618972D01*
X134408993Y-104743931D01*
X134418489Y-104749414D01*
X134615947Y-104841490D01*
X134626239Y-104845236D01*
X134798503Y-104891394D01*
X134812599Y-104891058D01*
X134816000Y-104883116D01*
X134816000Y-104877967D01*
X135324000Y-104877967D01*
X135327973Y-104891498D01*
X135336522Y-104892727D01*
X135513761Y-104845236D01*
X135524053Y-104841490D01*
X135721511Y-104749414D01*
X135731007Y-104743931D01*
X135909467Y-104618972D01*
X135917875Y-104611916D01*
X136071916Y-104457875D01*
X136078972Y-104449467D01*
X136203931Y-104271007D01*
X136209414Y-104261511D01*
X136225529Y-104226951D01*
X136272446Y-104173666D01*
X136340723Y-104154205D01*
X136408683Y-104174747D01*
X136453919Y-104226951D01*
X136470151Y-104261762D01*
X136470154Y-104261767D01*
X136472477Y-104266749D01*
X136518804Y-104332910D01*
X136595502Y-104442446D01*
X136603802Y-104454300D01*
X136765700Y-104616198D01*
X136770208Y-104619355D01*
X136770211Y-104619357D01*
X136811542Y-104648297D01*
X136953251Y-104747523D01*
X136958233Y-104749846D01*
X136958238Y-104749849D01*
X137046876Y-104791181D01*
X137160757Y-104844284D01*
X137166065Y-104845706D01*
X137166067Y-104845707D01*
X137376598Y-104902119D01*
X137376600Y-104902119D01*
X137381913Y-104903543D01*
X137610000Y-104923498D01*
X137838087Y-104903543D01*
X137843400Y-104902119D01*
X137843402Y-104902119D01*
X138053933Y-104845707D01*
X138053935Y-104845706D01*
X138059243Y-104844284D01*
X138173124Y-104791181D01*
X138261762Y-104749849D01*
X138261767Y-104749846D01*
X138266749Y-104747523D01*
X138408458Y-104648297D01*
X138449789Y-104619357D01*
X138449792Y-104619355D01*
X138454300Y-104616198D01*
X138616198Y-104454300D01*
X138624499Y-104442446D01*
X138701196Y-104332910D01*
X138747523Y-104266749D01*
X138749846Y-104261767D01*
X138749849Y-104261762D01*
X138765805Y-104227543D01*
X138812722Y-104174258D01*
X138880999Y-104154797D01*
X138948959Y-104175339D01*
X138994195Y-104227543D01*
X139010151Y-104261762D01*
X139010154Y-104261767D01*
X139012477Y-104266749D01*
X139058804Y-104332910D01*
X139135502Y-104442446D01*
X139143802Y-104454300D01*
X139305700Y-104616198D01*
X139310208Y-104619355D01*
X139310211Y-104619357D01*
X139351542Y-104648297D01*
X139493251Y-104747523D01*
X139498233Y-104749846D01*
X139498238Y-104749849D01*
X139586876Y-104791181D01*
X139700757Y-104844284D01*
X139706065Y-104845706D01*
X139706067Y-104845707D01*
X139916598Y-104902119D01*
X139916600Y-104902119D01*
X139921913Y-104903543D01*
X140150000Y-104923498D01*
X140378087Y-104903543D01*
X140383400Y-104902119D01*
X140383402Y-104902119D01*
X140593933Y-104845707D01*
X140593935Y-104845706D01*
X140599243Y-104844284D01*
X140713124Y-104791181D01*
X140801762Y-104749849D01*
X140801767Y-104749846D01*
X140806749Y-104747523D01*
X140948458Y-104648297D01*
X140989789Y-104619357D01*
X140989792Y-104619355D01*
X140994300Y-104616198D01*
X141156198Y-104454300D01*
X141164499Y-104442446D01*
X141241196Y-104332910D01*
X141287523Y-104266749D01*
X141289846Y-104261767D01*
X141289849Y-104261762D01*
X141305805Y-104227543D01*
X141352722Y-104174258D01*
X141420999Y-104154797D01*
X141488959Y-104175339D01*
X141534195Y-104227543D01*
X141550151Y-104261762D01*
X141550154Y-104261767D01*
X141552477Y-104266749D01*
X141598804Y-104332910D01*
X141675502Y-104442446D01*
X141683802Y-104454300D01*
X141845700Y-104616198D01*
X141850208Y-104619355D01*
X141850211Y-104619357D01*
X141891542Y-104648297D01*
X142033251Y-104747523D01*
X142038233Y-104749846D01*
X142038238Y-104749849D01*
X142126876Y-104791181D01*
X142240757Y-104844284D01*
X142246065Y-104845706D01*
X142246067Y-104845707D01*
X142456598Y-104902119D01*
X142456600Y-104902119D01*
X142461913Y-104903543D01*
X142690000Y-104923498D01*
X142918087Y-104903543D01*
X142923400Y-104902119D01*
X142923402Y-104902119D01*
X143133933Y-104845707D01*
X143133935Y-104845706D01*
X143139243Y-104844284D01*
X143253124Y-104791181D01*
X143341762Y-104749849D01*
X143341767Y-104749846D01*
X143346749Y-104747523D01*
X143488458Y-104648297D01*
X143529789Y-104619357D01*
X143529792Y-104619355D01*
X143534300Y-104616198D01*
X143696198Y-104454300D01*
X143704499Y-104442446D01*
X143781196Y-104332910D01*
X143827523Y-104266749D01*
X143829846Y-104261767D01*
X143829849Y-104261762D01*
X143845805Y-104227543D01*
X143892722Y-104174258D01*
X143960999Y-104154797D01*
X144028959Y-104175339D01*
X144074195Y-104227543D01*
X144090151Y-104261762D01*
X144090154Y-104261767D01*
X144092477Y-104266749D01*
X144138804Y-104332910D01*
X144215502Y-104442446D01*
X144223802Y-104454300D01*
X144385700Y-104616198D01*
X144390208Y-104619355D01*
X144390211Y-104619357D01*
X144431542Y-104648297D01*
X144573251Y-104747523D01*
X144578233Y-104749846D01*
X144578238Y-104749849D01*
X144666876Y-104791181D01*
X144780757Y-104844284D01*
X144786065Y-104845706D01*
X144786067Y-104845707D01*
X144996598Y-104902119D01*
X144996600Y-104902119D01*
X145001913Y-104903543D01*
X145230000Y-104923498D01*
X145458087Y-104903543D01*
X145463400Y-104902119D01*
X145463402Y-104902119D01*
X145673933Y-104845707D01*
X145673935Y-104845706D01*
X145679243Y-104844284D01*
X145793124Y-104791181D01*
X145881762Y-104749849D01*
X145881767Y-104749846D01*
X145886749Y-104747523D01*
X146028458Y-104648297D01*
X146069789Y-104619357D01*
X146069792Y-104619355D01*
X146074300Y-104616198D01*
X146236198Y-104454300D01*
X146244499Y-104442446D01*
X146321196Y-104332910D01*
X146367523Y-104266749D01*
X146369846Y-104261767D01*
X146369849Y-104261762D01*
X146385805Y-104227543D01*
X146432722Y-104174258D01*
X146500999Y-104154797D01*
X146568959Y-104175339D01*
X146614195Y-104227543D01*
X146630151Y-104261762D01*
X146630154Y-104261767D01*
X146632477Y-104266749D01*
X146678804Y-104332910D01*
X146755502Y-104442446D01*
X146763802Y-104454300D01*
X146925700Y-104616198D01*
X146930208Y-104619355D01*
X146930211Y-104619357D01*
X146971542Y-104648297D01*
X147113251Y-104747523D01*
X147118233Y-104749846D01*
X147118238Y-104749849D01*
X147206876Y-104791181D01*
X147320757Y-104844284D01*
X147326065Y-104845706D01*
X147326067Y-104845707D01*
X147536598Y-104902119D01*
X147536600Y-104902119D01*
X147541913Y-104903543D01*
X147770000Y-104923498D01*
X147998087Y-104903543D01*
X148003400Y-104902119D01*
X148003402Y-104902119D01*
X148213933Y-104845707D01*
X148213935Y-104845706D01*
X148219243Y-104844284D01*
X148333124Y-104791181D01*
X148421762Y-104749849D01*
X148421767Y-104749846D01*
X148426749Y-104747523D01*
X148568458Y-104648297D01*
X148609789Y-104619357D01*
X148609792Y-104619355D01*
X148614300Y-104616198D01*
X148776198Y-104454300D01*
X148784499Y-104442446D01*
X148861196Y-104332910D01*
X148907523Y-104266749D01*
X148909846Y-104261767D01*
X148909849Y-104261762D01*
X148925805Y-104227543D01*
X148972722Y-104174258D01*
X149040999Y-104154797D01*
X149108959Y-104175339D01*
X149154195Y-104227543D01*
X149170151Y-104261762D01*
X149170154Y-104261767D01*
X149172477Y-104266749D01*
X149218804Y-104332910D01*
X149295502Y-104442446D01*
X149303802Y-104454300D01*
X149465700Y-104616198D01*
X149470208Y-104619355D01*
X149470211Y-104619357D01*
X149511542Y-104648297D01*
X149653251Y-104747523D01*
X149658233Y-104749846D01*
X149658238Y-104749849D01*
X149746876Y-104791181D01*
X149860757Y-104844284D01*
X149866065Y-104845706D01*
X149866067Y-104845707D01*
X150076598Y-104902119D01*
X150076600Y-104902119D01*
X150081913Y-104903543D01*
X150310000Y-104923498D01*
X150538087Y-104903543D01*
X150543400Y-104902119D01*
X150543402Y-104902119D01*
X150753933Y-104845707D01*
X150753935Y-104845706D01*
X150759243Y-104844284D01*
X150873124Y-104791181D01*
X150961762Y-104749849D01*
X150961767Y-104749846D01*
X150966749Y-104747523D01*
X151108458Y-104648297D01*
X151149789Y-104619357D01*
X151149792Y-104619355D01*
X151154300Y-104616198D01*
X151316198Y-104454300D01*
X151324499Y-104442446D01*
X151401196Y-104332910D01*
X151447523Y-104266749D01*
X151449846Y-104261767D01*
X151449849Y-104261762D01*
X151465805Y-104227543D01*
X151512722Y-104174258D01*
X151580999Y-104154797D01*
X151648959Y-104175339D01*
X151694195Y-104227543D01*
X151710151Y-104261762D01*
X151710154Y-104261767D01*
X151712477Y-104266749D01*
X151758804Y-104332910D01*
X151835502Y-104442446D01*
X151843802Y-104454300D01*
X152005700Y-104616198D01*
X152010208Y-104619355D01*
X152010211Y-104619357D01*
X152051542Y-104648297D01*
X152193251Y-104747523D01*
X152198233Y-104749846D01*
X152198238Y-104749849D01*
X152286876Y-104791181D01*
X152400757Y-104844284D01*
X152406065Y-104845706D01*
X152406067Y-104845707D01*
X152616598Y-104902119D01*
X152616600Y-104902119D01*
X152621913Y-104903543D01*
X152850000Y-104923498D01*
X153078087Y-104903543D01*
X153083400Y-104902119D01*
X153083402Y-104902119D01*
X153293933Y-104845707D01*
X153293935Y-104845706D01*
X153299243Y-104844284D01*
X153413124Y-104791181D01*
X153501762Y-104749849D01*
X153501767Y-104749846D01*
X153506749Y-104747523D01*
X153648458Y-104648297D01*
X153689789Y-104619357D01*
X153689792Y-104619355D01*
X153694300Y-104616198D01*
X153856198Y-104454300D01*
X153864499Y-104442446D01*
X153941196Y-104332910D01*
X153987523Y-104266749D01*
X153989846Y-104261767D01*
X153989849Y-104261762D01*
X154005805Y-104227543D01*
X154052722Y-104174258D01*
X154120999Y-104154797D01*
X154188959Y-104175339D01*
X154234195Y-104227543D01*
X154250151Y-104261762D01*
X154250154Y-104261767D01*
X154252477Y-104266749D01*
X154298804Y-104332910D01*
X154375502Y-104442446D01*
X154383802Y-104454300D01*
X154545700Y-104616198D01*
X154550208Y-104619355D01*
X154550211Y-104619357D01*
X154591542Y-104648297D01*
X154733251Y-104747523D01*
X154738233Y-104749846D01*
X154738238Y-104749849D01*
X154826876Y-104791181D01*
X154940757Y-104844284D01*
X154946065Y-104845706D01*
X154946067Y-104845707D01*
X155156598Y-104902119D01*
X155156600Y-104902119D01*
X155161913Y-104903543D01*
X155390000Y-104923498D01*
X155618087Y-104903543D01*
X155623400Y-104902119D01*
X155623402Y-104902119D01*
X155833933Y-104845707D01*
X155833935Y-104845706D01*
X155839243Y-104844284D01*
X155953124Y-104791181D01*
X156041762Y-104749849D01*
X156041767Y-104749846D01*
X156046749Y-104747523D01*
X156188458Y-104648297D01*
X156229789Y-104619357D01*
X156229792Y-104619355D01*
X156234300Y-104616198D01*
X156396198Y-104454300D01*
X156404499Y-104442446D01*
X156481196Y-104332910D01*
X156527523Y-104266749D01*
X156529846Y-104261767D01*
X156529849Y-104261762D01*
X156545805Y-104227543D01*
X156592722Y-104174258D01*
X156660999Y-104154797D01*
X156728959Y-104175339D01*
X156774195Y-104227543D01*
X156790151Y-104261762D01*
X156790154Y-104261767D01*
X156792477Y-104266749D01*
X156838804Y-104332910D01*
X156915502Y-104442446D01*
X156923802Y-104454300D01*
X157085700Y-104616198D01*
X157090208Y-104619355D01*
X157090211Y-104619357D01*
X157131542Y-104648297D01*
X157273251Y-104747523D01*
X157278233Y-104749846D01*
X157278238Y-104749849D01*
X157366876Y-104791181D01*
X157480757Y-104844284D01*
X157486065Y-104845706D01*
X157486067Y-104845707D01*
X157696598Y-104902119D01*
X157696600Y-104902119D01*
X157701913Y-104903543D01*
X157930000Y-104923498D01*
X158158087Y-104903543D01*
X158163400Y-104902119D01*
X158163402Y-104902119D01*
X158373933Y-104845707D01*
X158373935Y-104845706D01*
X158379243Y-104844284D01*
X158493124Y-104791181D01*
X158581762Y-104749849D01*
X158581767Y-104749846D01*
X158586749Y-104747523D01*
X158728458Y-104648297D01*
X158769789Y-104619357D01*
X158769792Y-104619355D01*
X158774300Y-104616198D01*
X158936198Y-104454300D01*
X158944499Y-104442446D01*
X159021196Y-104332910D01*
X159067523Y-104266749D01*
X159069846Y-104261767D01*
X159069849Y-104261762D01*
X159085805Y-104227543D01*
X159132722Y-104174258D01*
X159200999Y-104154797D01*
X159268959Y-104175339D01*
X159314195Y-104227543D01*
X159330151Y-104261762D01*
X159330154Y-104261767D01*
X159332477Y-104266749D01*
X159378804Y-104332910D01*
X159455502Y-104442446D01*
X159463802Y-104454300D01*
X159625700Y-104616198D01*
X159630208Y-104619355D01*
X159630211Y-104619357D01*
X159671542Y-104648297D01*
X159813251Y-104747523D01*
X159818233Y-104749846D01*
X159818238Y-104749849D01*
X159906876Y-104791181D01*
X160020757Y-104844284D01*
X160026065Y-104845706D01*
X160026067Y-104845707D01*
X160236598Y-104902119D01*
X160236600Y-104902119D01*
X160241913Y-104903543D01*
X160470000Y-104923498D01*
X160698087Y-104903543D01*
X160703400Y-104902119D01*
X160703402Y-104902119D01*
X160913933Y-104845707D01*
X160913935Y-104845706D01*
X160919243Y-104844284D01*
X161033124Y-104791181D01*
X161121762Y-104749849D01*
X161121767Y-104749846D01*
X161126749Y-104747523D01*
X161268458Y-104648297D01*
X161309789Y-104619357D01*
X161309792Y-104619355D01*
X161314300Y-104616198D01*
X161476198Y-104454300D01*
X161484499Y-104442446D01*
X161561196Y-104332910D01*
X161607523Y-104266749D01*
X161609846Y-104261767D01*
X161609849Y-104261762D01*
X161625805Y-104227543D01*
X161672722Y-104174258D01*
X161740999Y-104154797D01*
X161808959Y-104175339D01*
X161854195Y-104227543D01*
X161870151Y-104261762D01*
X161870154Y-104261767D01*
X161872477Y-104266749D01*
X161918804Y-104332910D01*
X161995502Y-104442446D01*
X162003802Y-104454300D01*
X162165700Y-104616198D01*
X162170208Y-104619355D01*
X162170211Y-104619357D01*
X162211542Y-104648297D01*
X162353251Y-104747523D01*
X162358233Y-104749846D01*
X162358238Y-104749849D01*
X162446876Y-104791181D01*
X162560757Y-104844284D01*
X162566065Y-104845706D01*
X162566067Y-104845707D01*
X162776598Y-104902119D01*
X162776600Y-104902119D01*
X162781913Y-104903543D01*
X163010000Y-104923498D01*
X163238087Y-104903543D01*
X163243400Y-104902119D01*
X163243402Y-104902119D01*
X163453933Y-104845707D01*
X163453935Y-104845706D01*
X163459243Y-104844284D01*
X163573124Y-104791181D01*
X163661762Y-104749849D01*
X163661767Y-104749846D01*
X163666749Y-104747523D01*
X163808458Y-104648297D01*
X163849789Y-104619357D01*
X163849792Y-104619355D01*
X163854300Y-104616198D01*
X164016198Y-104454300D01*
X164024499Y-104442446D01*
X164101196Y-104332910D01*
X164147523Y-104266749D01*
X164149846Y-104261767D01*
X164149849Y-104261762D01*
X164241961Y-104064225D01*
X164241961Y-104064224D01*
X164244284Y-104059243D01*
X164268830Y-103967639D01*
X164302119Y-103843402D01*
X164302119Y-103843400D01*
X164303543Y-103838087D01*
X164323498Y-103610000D01*
X164303543Y-103381913D01*
X164291605Y-103337361D01*
X164245707Y-103166067D01*
X164245706Y-103166065D01*
X164244284Y-103160757D01*
X164223392Y-103115954D01*
X164149849Y-102958238D01*
X164149846Y-102958233D01*
X164147523Y-102953251D01*
X164040646Y-102800615D01*
X164019357Y-102770211D01*
X164019355Y-102770208D01*
X164016198Y-102765700D01*
X163854300Y-102603802D01*
X163849792Y-102600645D01*
X163849789Y-102600643D01*
X163759654Y-102537530D01*
X163666749Y-102472477D01*
X163661767Y-102470154D01*
X163661762Y-102470151D01*
X163464225Y-102378039D01*
X163464224Y-102378039D01*
X163459243Y-102375716D01*
X163453935Y-102374294D01*
X163453933Y-102374293D01*
X163243402Y-102317881D01*
X163243400Y-102317881D01*
X163238087Y-102316457D01*
X163010000Y-102296502D01*
X162781913Y-102316457D01*
X162776600Y-102317881D01*
X162776598Y-102317881D01*
X162566067Y-102374293D01*
X162566065Y-102374294D01*
X162560757Y-102375716D01*
X162555776Y-102378039D01*
X162555775Y-102378039D01*
X162358238Y-102470151D01*
X162358233Y-102470154D01*
X162353251Y-102472477D01*
X162260346Y-102537530D01*
X162170211Y-102600643D01*
X162170208Y-102600645D01*
X162165700Y-102603802D01*
X162003802Y-102765700D01*
X162000645Y-102770208D01*
X162000643Y-102770211D01*
X161979354Y-102800615D01*
X161872477Y-102953251D01*
X161870154Y-102958233D01*
X161870151Y-102958238D01*
X161854195Y-102992457D01*
X161807278Y-103045742D01*
X161739001Y-103065203D01*
X161671041Y-103044661D01*
X161625805Y-102992457D01*
X161609849Y-102958238D01*
X161609846Y-102958233D01*
X161607523Y-102953251D01*
X161500646Y-102800615D01*
X161479357Y-102770211D01*
X161479355Y-102770208D01*
X161476198Y-102765700D01*
X161314300Y-102603802D01*
X161309792Y-102600645D01*
X161309789Y-102600643D01*
X161219654Y-102537530D01*
X161126749Y-102472477D01*
X161121767Y-102470154D01*
X161121762Y-102470151D01*
X160924225Y-102378039D01*
X160924224Y-102378039D01*
X160919243Y-102375716D01*
X160913935Y-102374294D01*
X160913933Y-102374293D01*
X160703402Y-102317881D01*
X160703400Y-102317881D01*
X160698087Y-102316457D01*
X160470000Y-102296502D01*
X160241913Y-102316457D01*
X160236600Y-102317881D01*
X160236598Y-102317881D01*
X160026067Y-102374293D01*
X160026065Y-102374294D01*
X160020757Y-102375716D01*
X160015776Y-102378039D01*
X160015775Y-102378039D01*
X159818238Y-102470151D01*
X159818233Y-102470154D01*
X159813251Y-102472477D01*
X159720346Y-102537530D01*
X159630211Y-102600643D01*
X159630208Y-102600645D01*
X159625700Y-102603802D01*
X159463802Y-102765700D01*
X159460645Y-102770208D01*
X159460643Y-102770211D01*
X159439354Y-102800615D01*
X159332477Y-102953251D01*
X159330154Y-102958233D01*
X159330151Y-102958238D01*
X159314195Y-102992457D01*
X159267278Y-103045742D01*
X159199001Y-103065203D01*
X159131041Y-103044661D01*
X159085805Y-102992457D01*
X159069849Y-102958238D01*
X159069846Y-102958233D01*
X159067523Y-102953251D01*
X158960646Y-102800615D01*
X158939357Y-102770211D01*
X158939355Y-102770208D01*
X158936198Y-102765700D01*
X158774300Y-102603802D01*
X158769792Y-102600645D01*
X158769789Y-102600643D01*
X158679654Y-102537530D01*
X158586749Y-102472477D01*
X158581767Y-102470154D01*
X158581762Y-102470151D01*
X158384225Y-102378039D01*
X158384224Y-102378039D01*
X158379243Y-102375716D01*
X158373935Y-102374294D01*
X158373933Y-102374293D01*
X158163402Y-102317881D01*
X158163400Y-102317881D01*
X158158087Y-102316457D01*
X157930000Y-102296502D01*
X157701913Y-102316457D01*
X157696600Y-102317881D01*
X157696598Y-102317881D01*
X157486067Y-102374293D01*
X157486065Y-102374294D01*
X157480757Y-102375716D01*
X157475776Y-102378039D01*
X157475775Y-102378039D01*
X157278238Y-102470151D01*
X157278233Y-102470154D01*
X157273251Y-102472477D01*
X157180346Y-102537530D01*
X157090211Y-102600643D01*
X157090208Y-102600645D01*
X157085700Y-102603802D01*
X156923802Y-102765700D01*
X156920645Y-102770208D01*
X156920643Y-102770211D01*
X156899354Y-102800615D01*
X156792477Y-102953251D01*
X156790154Y-102958233D01*
X156790151Y-102958238D01*
X156774195Y-102992457D01*
X156727278Y-103045742D01*
X156659001Y-103065203D01*
X156591041Y-103044661D01*
X156545805Y-102992457D01*
X156529849Y-102958238D01*
X156529846Y-102958233D01*
X156527523Y-102953251D01*
X156420646Y-102800615D01*
X156399357Y-102770211D01*
X156399355Y-102770208D01*
X156396198Y-102765700D01*
X156234300Y-102603802D01*
X156229792Y-102600645D01*
X156229789Y-102600643D01*
X156139654Y-102537530D01*
X156046749Y-102472477D01*
X156041767Y-102470154D01*
X156041762Y-102470151D01*
X155844225Y-102378039D01*
X155844224Y-102378039D01*
X155839243Y-102375716D01*
X155833935Y-102374294D01*
X155833933Y-102374293D01*
X155623402Y-102317881D01*
X155623400Y-102317881D01*
X155618087Y-102316457D01*
X155390000Y-102296502D01*
X155161913Y-102316457D01*
X155156600Y-102317881D01*
X155156598Y-102317881D01*
X154946067Y-102374293D01*
X154946065Y-102374294D01*
X154940757Y-102375716D01*
X154935776Y-102378039D01*
X154935775Y-102378039D01*
X154738238Y-102470151D01*
X154738233Y-102470154D01*
X154733251Y-102472477D01*
X154640346Y-102537530D01*
X154550211Y-102600643D01*
X154550208Y-102600645D01*
X154545700Y-102603802D01*
X154383802Y-102765700D01*
X154380645Y-102770208D01*
X154380643Y-102770211D01*
X154359354Y-102800615D01*
X154252477Y-102953251D01*
X154250154Y-102958233D01*
X154250151Y-102958238D01*
X154234195Y-102992457D01*
X154187278Y-103045742D01*
X154119001Y-103065203D01*
X154051041Y-103044661D01*
X154005805Y-102992457D01*
X153989849Y-102958238D01*
X153989846Y-102958233D01*
X153987523Y-102953251D01*
X153880646Y-102800615D01*
X153859357Y-102770211D01*
X153859355Y-102770208D01*
X153856198Y-102765700D01*
X153694300Y-102603802D01*
X153689792Y-102600645D01*
X153689789Y-102600643D01*
X153599654Y-102537530D01*
X153506749Y-102472477D01*
X153501767Y-102470154D01*
X153501762Y-102470151D01*
X153304225Y-102378039D01*
X153304224Y-102378039D01*
X153299243Y-102375716D01*
X153293935Y-102374294D01*
X153293933Y-102374293D01*
X153083402Y-102317881D01*
X153083400Y-102317881D01*
X153078087Y-102316457D01*
X152850000Y-102296502D01*
X152621913Y-102316457D01*
X152616600Y-102317881D01*
X152616598Y-102317881D01*
X152406067Y-102374293D01*
X152406065Y-102374294D01*
X152400757Y-102375716D01*
X152395776Y-102378039D01*
X152395775Y-102378039D01*
X152198238Y-102470151D01*
X152198233Y-102470154D01*
X152193251Y-102472477D01*
X152100346Y-102537530D01*
X152010211Y-102600643D01*
X152010208Y-102600645D01*
X152005700Y-102603802D01*
X151843802Y-102765700D01*
X151840645Y-102770208D01*
X151840643Y-102770211D01*
X151819354Y-102800615D01*
X151712477Y-102953251D01*
X151710154Y-102958233D01*
X151710151Y-102958238D01*
X151694195Y-102992457D01*
X151647278Y-103045742D01*
X151579001Y-103065203D01*
X151511041Y-103044661D01*
X151465805Y-102992457D01*
X151449849Y-102958238D01*
X151449846Y-102958233D01*
X151447523Y-102953251D01*
X151340646Y-102800615D01*
X151319357Y-102770211D01*
X151319355Y-102770208D01*
X151316198Y-102765700D01*
X151154300Y-102603802D01*
X151149792Y-102600645D01*
X151149789Y-102600643D01*
X151059654Y-102537530D01*
X150966749Y-102472477D01*
X150961767Y-102470154D01*
X150961762Y-102470151D01*
X150764225Y-102378039D01*
X150764224Y-102378039D01*
X150759243Y-102375716D01*
X150753935Y-102374294D01*
X150753933Y-102374293D01*
X150543402Y-102317881D01*
X150543400Y-102317881D01*
X150538087Y-102316457D01*
X150310000Y-102296502D01*
X150081913Y-102316457D01*
X150076600Y-102317881D01*
X150076598Y-102317881D01*
X149866067Y-102374293D01*
X149866065Y-102374294D01*
X149860757Y-102375716D01*
X149855776Y-102378039D01*
X149855775Y-102378039D01*
X149658238Y-102470151D01*
X149658233Y-102470154D01*
X149653251Y-102472477D01*
X149560346Y-102537530D01*
X149470211Y-102600643D01*
X149470208Y-102600645D01*
X149465700Y-102603802D01*
X149303802Y-102765700D01*
X149300645Y-102770208D01*
X149300643Y-102770211D01*
X149279354Y-102800615D01*
X149172477Y-102953251D01*
X149170154Y-102958233D01*
X149170151Y-102958238D01*
X149154195Y-102992457D01*
X149107278Y-103045742D01*
X149039001Y-103065203D01*
X148971041Y-103044661D01*
X148925805Y-102992457D01*
X148909849Y-102958238D01*
X148909846Y-102958233D01*
X148907523Y-102953251D01*
X148800646Y-102800615D01*
X148779357Y-102770211D01*
X148779355Y-102770208D01*
X148776198Y-102765700D01*
X148614300Y-102603802D01*
X148609792Y-102600645D01*
X148609789Y-102600643D01*
X148519654Y-102537530D01*
X148426749Y-102472477D01*
X148421767Y-102470154D01*
X148421762Y-102470151D01*
X148224225Y-102378039D01*
X148224224Y-102378039D01*
X148219243Y-102375716D01*
X148213935Y-102374294D01*
X148213933Y-102374293D01*
X148003402Y-102317881D01*
X148003400Y-102317881D01*
X147998087Y-102316457D01*
X147770000Y-102296502D01*
X147541913Y-102316457D01*
X147536600Y-102317881D01*
X147536598Y-102317881D01*
X147326067Y-102374293D01*
X147326065Y-102374294D01*
X147320757Y-102375716D01*
X147315776Y-102378039D01*
X147315775Y-102378039D01*
X147118238Y-102470151D01*
X147118233Y-102470154D01*
X147113251Y-102472477D01*
X147020346Y-102537530D01*
X146930211Y-102600643D01*
X146930208Y-102600645D01*
X146925700Y-102603802D01*
X146763802Y-102765700D01*
X146760645Y-102770208D01*
X146760643Y-102770211D01*
X146739354Y-102800615D01*
X146632477Y-102953251D01*
X146630154Y-102958233D01*
X146630151Y-102958238D01*
X146614195Y-102992457D01*
X146567278Y-103045742D01*
X146499001Y-103065203D01*
X146431041Y-103044661D01*
X146385805Y-102992457D01*
X146369849Y-102958238D01*
X146369846Y-102958233D01*
X146367523Y-102953251D01*
X146260646Y-102800615D01*
X146239357Y-102770211D01*
X146239355Y-102770208D01*
X146236198Y-102765700D01*
X146074300Y-102603802D01*
X146069792Y-102600645D01*
X146069789Y-102600643D01*
X145979654Y-102537530D01*
X145886749Y-102472477D01*
X145881767Y-102470154D01*
X145881762Y-102470151D01*
X145684225Y-102378039D01*
X145684224Y-102378039D01*
X145679243Y-102375716D01*
X145673935Y-102374294D01*
X145673933Y-102374293D01*
X145463402Y-102317881D01*
X145463400Y-102317881D01*
X145458087Y-102316457D01*
X145230000Y-102296502D01*
X145001913Y-102316457D01*
X144996600Y-102317881D01*
X144996598Y-102317881D01*
X144786067Y-102374293D01*
X144786065Y-102374294D01*
X144780757Y-102375716D01*
X144775776Y-102378039D01*
X144775775Y-102378039D01*
X144578238Y-102470151D01*
X144578233Y-102470154D01*
X144573251Y-102472477D01*
X144480346Y-102537530D01*
X144390211Y-102600643D01*
X144390208Y-102600645D01*
X144385700Y-102603802D01*
X144223802Y-102765700D01*
X144220645Y-102770208D01*
X144220643Y-102770211D01*
X144199354Y-102800615D01*
X144092477Y-102953251D01*
X144090154Y-102958233D01*
X144090151Y-102958238D01*
X144074195Y-102992457D01*
X144027278Y-103045742D01*
X143959001Y-103065203D01*
X143891041Y-103044661D01*
X143845805Y-102992457D01*
X143829849Y-102958238D01*
X143829846Y-102958233D01*
X143827523Y-102953251D01*
X143720646Y-102800615D01*
X143699357Y-102770211D01*
X143699355Y-102770208D01*
X143696198Y-102765700D01*
X143534300Y-102603802D01*
X143529792Y-102600645D01*
X143529789Y-102600643D01*
X143439654Y-102537530D01*
X143346749Y-102472477D01*
X143341767Y-102470154D01*
X143341762Y-102470151D01*
X143144225Y-102378039D01*
X143144224Y-102378039D01*
X143139243Y-102375716D01*
X143133935Y-102374294D01*
X143133933Y-102374293D01*
X142923402Y-102317881D01*
X142923400Y-102317881D01*
X142918087Y-102316457D01*
X142690000Y-102296502D01*
X142461913Y-102316457D01*
X142456600Y-102317881D01*
X142456598Y-102317881D01*
X142246067Y-102374293D01*
X142246065Y-102374294D01*
X142240757Y-102375716D01*
X142235776Y-102378039D01*
X142235775Y-102378039D01*
X142038238Y-102470151D01*
X142038233Y-102470154D01*
X142033251Y-102472477D01*
X141940346Y-102537530D01*
X141850211Y-102600643D01*
X141850208Y-102600645D01*
X141845700Y-102603802D01*
X141683802Y-102765700D01*
X141680645Y-102770208D01*
X141680643Y-102770211D01*
X141659354Y-102800615D01*
X141552477Y-102953251D01*
X141550154Y-102958233D01*
X141550151Y-102958238D01*
X141534195Y-102992457D01*
X141487278Y-103045742D01*
X141419001Y-103065203D01*
X141351041Y-103044661D01*
X141305805Y-102992457D01*
X141289849Y-102958238D01*
X141289846Y-102958233D01*
X141287523Y-102953251D01*
X141180646Y-102800615D01*
X141159357Y-102770211D01*
X141159355Y-102770208D01*
X141156198Y-102765700D01*
X140994300Y-102603802D01*
X140989792Y-102600645D01*
X140989789Y-102600643D01*
X140899654Y-102537530D01*
X140806749Y-102472477D01*
X140801767Y-102470154D01*
X140801762Y-102470151D01*
X140604225Y-102378039D01*
X140604224Y-102378039D01*
X140599243Y-102375716D01*
X140593935Y-102374294D01*
X140593933Y-102374293D01*
X140383402Y-102317881D01*
X140383400Y-102317881D01*
X140378087Y-102316457D01*
X140150000Y-102296502D01*
X139921913Y-102316457D01*
X139916600Y-102317881D01*
X139916598Y-102317881D01*
X139706067Y-102374293D01*
X139706065Y-102374294D01*
X139700757Y-102375716D01*
X139695776Y-102378039D01*
X139695775Y-102378039D01*
X139498238Y-102470151D01*
X139498233Y-102470154D01*
X139493251Y-102472477D01*
X139400346Y-102537530D01*
X139310211Y-102600643D01*
X139310208Y-102600645D01*
X139305700Y-102603802D01*
X139143802Y-102765700D01*
X139140645Y-102770208D01*
X139140643Y-102770211D01*
X139119354Y-102800615D01*
X139012477Y-102953251D01*
X139010154Y-102958233D01*
X139010151Y-102958238D01*
X138994195Y-102992457D01*
X138947278Y-103045742D01*
X138879001Y-103065203D01*
X138811041Y-103044661D01*
X138765805Y-102992457D01*
X138749849Y-102958238D01*
X138749846Y-102958233D01*
X138747523Y-102953251D01*
X138640646Y-102800615D01*
X138619357Y-102770211D01*
X138619355Y-102770208D01*
X138616198Y-102765700D01*
X138454300Y-102603802D01*
X138449792Y-102600645D01*
X138449789Y-102600643D01*
X138359654Y-102537530D01*
X138266749Y-102472477D01*
X138261767Y-102470154D01*
X138261762Y-102470151D01*
X138064225Y-102378039D01*
X138064224Y-102378039D01*
X138059243Y-102375716D01*
X138053935Y-102374294D01*
X138053933Y-102374293D01*
X137843402Y-102317881D01*
X137843400Y-102317881D01*
X137838087Y-102316457D01*
X137610000Y-102296502D01*
X137381913Y-102316457D01*
X137376600Y-102317881D01*
X137376598Y-102317881D01*
X137166067Y-102374293D01*
X137166065Y-102374294D01*
X137160757Y-102375716D01*
X137155776Y-102378039D01*
X137155775Y-102378039D01*
X136958238Y-102470151D01*
X136958233Y-102470154D01*
X136953251Y-102472477D01*
X136860346Y-102537530D01*
X136770211Y-102600643D01*
X136770208Y-102600645D01*
X136765700Y-102603802D01*
X136603802Y-102765700D01*
X136600645Y-102770208D01*
X136600643Y-102770211D01*
X136579354Y-102800615D01*
X136472477Y-102953251D01*
X136470154Y-102958233D01*
X136470151Y-102958238D01*
X136453919Y-102993049D01*
X136407002Y-103046334D01*
X136338725Y-103065795D01*
X136270765Y-103045253D01*
X136225529Y-102993049D01*
X136209414Y-102958489D01*
X136203931Y-102948993D01*
X136078972Y-102770533D01*
X136071916Y-102762125D01*
X135917875Y-102608084D01*
X135909467Y-102601028D01*
X135731007Y-102476069D01*
X135721511Y-102470586D01*
X135524053Y-102378510D01*
X135513761Y-102374764D01*
X135341497Y-102328606D01*
X135327401Y-102328942D01*
X135324000Y-102336884D01*
X135324000Y-104877967D01*
X134816000Y-104877967D01*
X134816000Y-102342033D01*
X134812027Y-102328502D01*
X134803478Y-102327273D01*
X134626239Y-102374764D01*
X134615947Y-102378510D01*
X134418489Y-102470586D01*
X134408993Y-102476069D01*
X134230533Y-102601028D01*
X134222125Y-102608084D01*
X134068084Y-102762125D01*
X134061028Y-102770533D01*
X133936069Y-102948993D01*
X133930586Y-102958489D01*
X133914471Y-102993049D01*
X133867554Y-103046334D01*
X133799277Y-103065795D01*
X133731317Y-103045253D01*
X133686081Y-102993049D01*
X133669849Y-102958238D01*
X133669846Y-102958233D01*
X133667523Y-102953251D01*
X133560646Y-102800615D01*
X133539357Y-102770211D01*
X133539355Y-102770208D01*
X133536198Y-102765700D01*
X133374300Y-102603802D01*
X133369792Y-102600645D01*
X133369789Y-102600643D01*
X133279654Y-102537530D01*
X133186749Y-102472477D01*
X133181767Y-102470154D01*
X133181762Y-102470151D01*
X132984225Y-102378039D01*
X132984224Y-102378039D01*
X132979243Y-102375716D01*
X132973935Y-102374294D01*
X132973933Y-102374293D01*
X132763402Y-102317881D01*
X132763400Y-102317881D01*
X132758087Y-102316457D01*
X132530000Y-102296502D01*
X132301913Y-102316457D01*
X132296600Y-102317881D01*
X132296598Y-102317881D01*
X132086067Y-102374293D01*
X132086065Y-102374294D01*
X132080757Y-102375716D01*
X132075776Y-102378039D01*
X132075775Y-102378039D01*
X131878238Y-102470151D01*
X131878233Y-102470154D01*
X131873251Y-102472477D01*
X131780346Y-102537530D01*
X131690211Y-102600643D01*
X131690208Y-102600645D01*
X131685700Y-102603802D01*
X131523802Y-102765700D01*
X131520645Y-102770208D01*
X131520643Y-102770211D01*
X131499354Y-102800615D01*
X131392477Y-102953251D01*
X131390154Y-102958233D01*
X131390151Y-102958238D01*
X131374195Y-102992457D01*
X131327278Y-103045742D01*
X131259001Y-103065203D01*
X131191041Y-103044661D01*
X131145805Y-102992457D01*
X131129849Y-102958238D01*
X131129846Y-102958233D01*
X131127523Y-102953251D01*
X131020646Y-102800615D01*
X130999357Y-102770211D01*
X130999355Y-102770208D01*
X130996198Y-102765700D01*
X130834300Y-102603802D01*
X130829792Y-102600645D01*
X130829789Y-102600643D01*
X130739654Y-102537530D01*
X130646749Y-102472477D01*
X130641767Y-102470154D01*
X130641762Y-102470151D01*
X130444225Y-102378039D01*
X130444224Y-102378039D01*
X130439243Y-102375716D01*
X130433935Y-102374294D01*
X130433933Y-102374293D01*
X130223402Y-102317881D01*
X130223400Y-102317881D01*
X130218087Y-102316457D01*
X129990000Y-102296502D01*
X129761913Y-102316457D01*
X129756600Y-102317881D01*
X129756598Y-102317881D01*
X129546067Y-102374293D01*
X129546065Y-102374294D01*
X129540757Y-102375716D01*
X129535776Y-102378039D01*
X129535775Y-102378039D01*
X129338238Y-102470151D01*
X129338233Y-102470154D01*
X129333251Y-102472477D01*
X129240346Y-102537530D01*
X129150211Y-102600643D01*
X129150208Y-102600645D01*
X129145700Y-102603802D01*
X128983802Y-102765700D01*
X128980643Y-102770211D01*
X128977108Y-102774424D01*
X128975974Y-102773473D01*
X128925929Y-102813471D01*
X128855310Y-102820776D01*
X128791951Y-102788742D01*
X128755970Y-102727538D01*
X128752918Y-102710483D01*
X128751745Y-102699684D01*
X128700615Y-102563295D01*
X128613261Y-102446739D01*
X128496705Y-102359385D01*
X128360316Y-102308255D01*
X128298134Y-102301500D01*
X126601866Y-102301500D01*
X126539684Y-102308255D01*
X126403295Y-102359385D01*
X126286739Y-102446739D01*
X126199385Y-102563295D01*
X126148255Y-102699684D01*
X126141500Y-102761866D01*
X126141500Y-104458134D01*
X124821494Y-104458134D01*
X124821494Y-93184037D01*
X124841496Y-93115916D01*
X124858399Y-93094942D01*
X128559805Y-89393536D01*
X128561431Y-89391626D01*
X128561437Y-89391619D01*
X128674192Y-89259132D01*
X128674194Y-89259130D01*
X128677470Y-89255280D01*
X128699929Y-89218197D01*
X128733007Y-89163578D01*
X128785405Y-89115672D01*
X128855385Y-89103699D01*
X128920728Y-89131460D01*
X128943996Y-89156580D01*
X128981024Y-89209462D01*
X128988084Y-89217875D01*
X129142125Y-89371916D01*
X129150533Y-89378972D01*
X129328993Y-89503931D01*
X129338489Y-89509414D01*
X129535947Y-89601490D01*
X129546239Y-89605236D01*
X129718503Y-89651394D01*
X129732599Y-89651058D01*
X129736000Y-89643116D01*
X129736000Y-89637967D01*
X130244000Y-89637967D01*
X130247973Y-89651498D01*
X130256522Y-89652727D01*
X130433761Y-89605236D01*
X130444053Y-89601490D01*
X130641511Y-89509414D01*
X130651007Y-89503931D01*
X130829467Y-89378972D01*
X130837875Y-89371916D01*
X130991916Y-89217875D01*
X130998972Y-89209467D01*
X131123931Y-89031007D01*
X131129414Y-89021511D01*
X131145529Y-88986951D01*
X131192446Y-88933666D01*
X131260723Y-88914205D01*
X131328683Y-88934747D01*
X131373919Y-88986951D01*
X131390151Y-89021762D01*
X131390154Y-89021767D01*
X131392477Y-89026749D01*
X131523802Y-89214300D01*
X131685700Y-89376198D01*
X131690208Y-89379355D01*
X131690211Y-89379357D01*
X131768389Y-89434098D01*
X131873251Y-89507523D01*
X131878233Y-89509846D01*
X131878238Y-89509849D01*
X132074765Y-89601490D01*
X132080757Y-89604284D01*
X132086065Y-89605706D01*
X132086067Y-89605707D01*
X132296598Y-89662119D01*
X132296600Y-89662119D01*
X132301913Y-89663543D01*
X132530000Y-89683498D01*
X132758087Y-89663543D01*
X132763400Y-89662119D01*
X132763402Y-89662119D01*
X132973933Y-89605707D01*
X132973935Y-89605706D01*
X132979243Y-89604284D01*
X132985235Y-89601490D01*
X133181762Y-89509849D01*
X133181767Y-89509846D01*
X133186749Y-89507523D01*
X133291611Y-89434098D01*
X133369789Y-89379357D01*
X133369792Y-89379355D01*
X133374300Y-89376198D01*
X133536198Y-89214300D01*
X133667523Y-89026749D01*
X133669846Y-89021767D01*
X133669849Y-89021762D01*
X133685805Y-88987543D01*
X133732722Y-88934258D01*
X133800999Y-88914797D01*
X133868959Y-88935339D01*
X133914195Y-88987543D01*
X133930151Y-89021762D01*
X133930154Y-89021767D01*
X133932477Y-89026749D01*
X134063802Y-89214300D01*
X134225700Y-89376198D01*
X134230208Y-89379355D01*
X134230211Y-89379357D01*
X134308389Y-89434098D01*
X134413251Y-89507523D01*
X134418233Y-89509846D01*
X134418238Y-89509849D01*
X134614765Y-89601490D01*
X134620757Y-89604284D01*
X134626065Y-89605706D01*
X134626067Y-89605707D01*
X134836598Y-89662119D01*
X134836600Y-89662119D01*
X134841913Y-89663543D01*
X135070000Y-89683498D01*
X135298087Y-89663543D01*
X135303400Y-89662119D01*
X135303402Y-89662119D01*
X135513933Y-89605707D01*
X135513935Y-89605706D01*
X135519243Y-89604284D01*
X135525235Y-89601490D01*
X135721762Y-89509849D01*
X135721767Y-89509846D01*
X135726749Y-89507523D01*
X135831611Y-89434098D01*
X135909789Y-89379357D01*
X135909792Y-89379355D01*
X135914300Y-89376198D01*
X136076198Y-89214300D01*
X136207523Y-89026749D01*
X136209846Y-89021767D01*
X136209849Y-89021762D01*
X136225805Y-88987543D01*
X136272722Y-88934258D01*
X136340999Y-88914797D01*
X136408959Y-88935339D01*
X136454195Y-88987543D01*
X136470151Y-89021762D01*
X136470154Y-89021767D01*
X136472477Y-89026749D01*
X136603802Y-89214300D01*
X136765700Y-89376198D01*
X136770208Y-89379355D01*
X136770211Y-89379357D01*
X136848389Y-89434098D01*
X136953251Y-89507523D01*
X136958233Y-89509846D01*
X136958238Y-89509849D01*
X137154765Y-89601490D01*
X137160757Y-89604284D01*
X137166065Y-89605706D01*
X137166067Y-89605707D01*
X137376598Y-89662119D01*
X137376600Y-89662119D01*
X137381913Y-89663543D01*
X137610000Y-89683498D01*
X137838087Y-89663543D01*
X137843400Y-89662119D01*
X137843402Y-89662119D01*
X138053933Y-89605707D01*
X138053935Y-89605706D01*
X138059243Y-89604284D01*
X138065235Y-89601490D01*
X138261762Y-89509849D01*
X138261767Y-89509846D01*
X138266749Y-89507523D01*
X138371611Y-89434098D01*
X138449789Y-89379357D01*
X138449792Y-89379355D01*
X138454300Y-89376198D01*
X138616198Y-89214300D01*
X138747523Y-89026749D01*
X138749846Y-89021767D01*
X138749849Y-89021762D01*
X138765805Y-88987543D01*
X138812722Y-88934258D01*
X138880999Y-88914797D01*
X138948959Y-88935339D01*
X138994195Y-88987543D01*
X139010151Y-89021762D01*
X139010154Y-89021767D01*
X139012477Y-89026749D01*
X139143802Y-89214300D01*
X139305700Y-89376198D01*
X139310208Y-89379355D01*
X139310211Y-89379357D01*
X139388389Y-89434098D01*
X139493251Y-89507523D01*
X139498233Y-89509846D01*
X139498238Y-89509849D01*
X139694765Y-89601490D01*
X139700757Y-89604284D01*
X139706065Y-89605706D01*
X139706067Y-89605707D01*
X139916598Y-89662119D01*
X139916600Y-89662119D01*
X139921913Y-89663543D01*
X140150000Y-89683498D01*
X140378087Y-89663543D01*
X140383400Y-89662119D01*
X140383402Y-89662119D01*
X140593933Y-89605707D01*
X140593935Y-89605706D01*
X140599243Y-89604284D01*
X140605235Y-89601490D01*
X140801762Y-89509849D01*
X140801767Y-89509846D01*
X140806749Y-89507523D01*
X140911611Y-89434098D01*
X140989789Y-89379357D01*
X140989792Y-89379355D01*
X140994300Y-89376198D01*
X141156198Y-89214300D01*
X141287523Y-89026749D01*
X141289846Y-89021767D01*
X141289849Y-89021762D01*
X141305805Y-88987543D01*
X141352722Y-88934258D01*
X141420999Y-88914797D01*
X141488959Y-88935339D01*
X141534195Y-88987543D01*
X141550151Y-89021762D01*
X141550154Y-89021767D01*
X141552477Y-89026749D01*
X141683802Y-89214300D01*
X141845700Y-89376198D01*
X141850208Y-89379355D01*
X141850211Y-89379357D01*
X141928389Y-89434098D01*
X142033251Y-89507523D01*
X142038233Y-89509846D01*
X142038238Y-89509849D01*
X142234765Y-89601490D01*
X142240757Y-89604284D01*
X142246065Y-89605706D01*
X142246067Y-89605707D01*
X142456598Y-89662119D01*
X142456600Y-89662119D01*
X142461913Y-89663543D01*
X142690000Y-89683498D01*
X142918087Y-89663543D01*
X142923398Y-89662120D01*
X142923409Y-89662118D01*
X142981541Y-89646541D01*
X143052517Y-89648230D01*
X143103248Y-89679152D01*
X149416348Y-95992253D01*
X149423888Y-96000539D01*
X149428000Y-96007018D01*
X149433777Y-96012443D01*
X149477651Y-96053643D01*
X149480493Y-96056398D01*
X149500230Y-96076135D01*
X149503427Y-96078615D01*
X149512447Y-96086318D01*
X149544679Y-96116586D01*
X149551625Y-96120405D01*
X149551628Y-96120407D01*
X149562434Y-96126348D01*
X149578953Y-96137199D01*
X149594959Y-96149614D01*
X149602228Y-96152759D01*
X149602232Y-96152762D01*
X149635537Y-96167174D01*
X149646187Y-96172391D01*
X149684940Y-96193695D01*
X149692615Y-96195666D01*
X149692616Y-96195666D01*
X149704562Y-96198733D01*
X149723267Y-96205137D01*
X149741855Y-96213181D01*
X149749678Y-96214420D01*
X149749688Y-96214423D01*
X149785524Y-96220099D01*
X149797144Y-96222505D01*
X149832289Y-96231528D01*
X149839970Y-96233500D01*
X149860224Y-96233500D01*
X149879934Y-96235051D01*
X149899943Y-96238220D01*
X149907835Y-96237474D01*
X149943961Y-96234059D01*
X149955819Y-96233500D01*
X167485406Y-96233500D01*
X167553527Y-96253502D01*
X167574501Y-96270405D01*
X178276348Y-106972253D01*
X178283888Y-106980539D01*
X178288000Y-106987018D01*
X178293777Y-106992443D01*
X178337651Y-107033643D01*
X178340493Y-107036398D01*
X178360230Y-107056135D01*
X178363427Y-107058615D01*
X178372447Y-107066318D01*
X178404679Y-107096586D01*
X178411625Y-107100405D01*
X178411628Y-107100407D01*
X178422434Y-107106348D01*
X178438953Y-107117199D01*
X178454959Y-107129614D01*
X178462228Y-107132759D01*
X178462232Y-107132762D01*
X178495537Y-107147174D01*
X178506187Y-107152391D01*
X178544940Y-107173695D01*
X178552615Y-107175666D01*
X178552616Y-107175666D01*
X178564562Y-107178733D01*
X178583267Y-107185137D01*
X178601855Y-107193181D01*
X178609678Y-107194420D01*
X178609688Y-107194423D01*
X178645524Y-107200099D01*
X178657144Y-107202505D01*
X178692289Y-107211528D01*
X178699970Y-107213500D01*
X178720224Y-107213500D01*
X178739934Y-107215051D01*
X178759943Y-107218220D01*
X178767835Y-107217474D01*
X178803961Y-107214059D01*
X178815819Y-107213500D01*
X188249274Y-107213500D01*
X188317395Y-107233502D01*
X188356707Y-107273665D01*
X188424987Y-107385088D01*
X188571250Y-107553938D01*
X188743126Y-107696632D01*
X188813595Y-107737811D01*
X188816445Y-107739476D01*
X188865169Y-107791114D01*
X188878240Y-107860897D01*
X188851509Y-107926669D01*
X188811055Y-107960027D01*
X188798607Y-107966507D01*
X188794474Y-107969610D01*
X188794471Y-107969612D01*
X188770247Y-107987800D01*
X188619965Y-108100635D01*
X188465629Y-108262138D01*
X188462715Y-108266410D01*
X188462714Y-108266411D01*
X188377556Y-108391249D01*
X188339743Y-108446680D01*
X188245688Y-108649305D01*
X188185989Y-108864570D01*
X188162251Y-109086695D01*
X188162548Y-109091848D01*
X188162548Y-109091851D01*
X188174812Y-109304547D01*
X188175110Y-109309715D01*
X188176247Y-109314761D01*
X188176248Y-109314767D01*
X188196119Y-109402939D01*
X188224222Y-109527639D01*
X188308266Y-109734616D01*
X188424987Y-109925088D01*
X188571250Y-110093938D01*
X188743126Y-110236632D01*
X188813595Y-110277811D01*
X188816445Y-110279476D01*
X188865169Y-110331114D01*
X188878240Y-110400897D01*
X188851509Y-110466669D01*
X188811055Y-110500027D01*
X188798607Y-110506507D01*
X188794474Y-110509610D01*
X188794471Y-110509612D01*
X188770247Y-110527800D01*
X188619965Y-110640635D01*
X188465629Y-110802138D01*
X188339743Y-110986680D01*
X188245688Y-111189305D01*
X188185989Y-111404570D01*
X188162251Y-111626695D01*
X188162548Y-111631848D01*
X188162548Y-111631851D01*
X188168011Y-111726590D01*
X188175110Y-111849715D01*
X188176247Y-111854761D01*
X188176248Y-111854767D01*
X188196119Y-111942939D01*
X188224222Y-112067639D01*
X188308266Y-112274616D01*
X188424987Y-112465088D01*
X188571250Y-112633938D01*
X188743126Y-112776632D01*
X188813595Y-112817811D01*
X188816445Y-112819476D01*
X188865169Y-112871114D01*
X188878240Y-112940897D01*
X188851509Y-113006669D01*
X188811055Y-113040027D01*
X188798607Y-113046507D01*
X188794474Y-113049610D01*
X188794471Y-113049612D01*
X188770247Y-113067800D01*
X188619965Y-113180635D01*
X188616393Y-113184373D01*
X188492879Y-113313623D01*
X188465629Y-113342138D01*
X188339743Y-113526680D01*
X188245688Y-113729305D01*
X188185989Y-113944570D01*
X188162251Y-114166695D01*
X188162548Y-114171848D01*
X188162548Y-114171851D01*
X188172466Y-114343852D01*
X188175110Y-114389715D01*
X188176247Y-114394761D01*
X188176248Y-114394767D01*
X188196119Y-114482939D01*
X188224222Y-114607639D01*
X188308266Y-114814616D01*
X188424987Y-115005088D01*
X188571250Y-115173938D01*
X188743126Y-115316632D01*
X188813595Y-115357811D01*
X188816445Y-115359476D01*
X188865169Y-115411114D01*
X188878240Y-115480897D01*
X188851509Y-115546669D01*
X188811055Y-115580027D01*
X188798607Y-115586507D01*
X188794474Y-115589610D01*
X188794471Y-115589612D01*
X188624100Y-115717530D01*
X188619965Y-115720635D01*
X188616393Y-115724373D01*
X188491632Y-115854928D01*
X188465629Y-115882138D01*
X188339743Y-116066680D01*
X188245688Y-116269305D01*
X188185989Y-116484570D01*
X188162251Y-116706695D01*
X188162548Y-116711848D01*
X188162548Y-116711851D01*
X188172185Y-116878988D01*
X188175110Y-116929715D01*
X188176247Y-116934761D01*
X188176248Y-116934767D01*
X188196119Y-117022939D01*
X188224222Y-117147639D01*
X188308266Y-117354616D01*
X188424987Y-117545088D01*
X188571250Y-117713938D01*
X188743126Y-117856632D01*
X188767930Y-117871126D01*
X188816955Y-117899774D01*
X188865679Y-117951412D01*
X188878750Y-118021195D01*
X188852019Y-118086967D01*
X188811562Y-118120327D01*
X188803457Y-118124546D01*
X188794738Y-118130036D01*
X188624433Y-118257905D01*
X188616726Y-118264748D01*
X188469590Y-118418717D01*
X188463104Y-118426727D01*
X188343098Y-118602649D01*
X188338000Y-118611623D01*
X188248338Y-118804783D01*
X188244775Y-118814470D01*
X188189389Y-119014183D01*
X188190912Y-119022607D01*
X188203292Y-119026000D01*
X190843344Y-119026000D01*
X190856875Y-119022027D01*
X190858180Y-119012947D01*
X190816214Y-118845875D01*
X190812894Y-118836124D01*
X190727972Y-118640814D01*
X190723105Y-118631739D01*
X190607426Y-118452926D01*
X190601136Y-118444757D01*
X190457806Y-118287240D01*
X190450273Y-118280215D01*
X190283139Y-118148222D01*
X190274556Y-118142520D01*
X190237602Y-118122120D01*
X190187631Y-118071687D01*
X190172859Y-118002245D01*
X190197975Y-117935839D01*
X190225327Y-117909232D01*
X190291534Y-117862007D01*
X190404860Y-117781173D01*
X190563096Y-117623489D01*
X190622594Y-117540689D01*
X190690435Y-117446277D01*
X190693453Y-117442077D01*
X190715721Y-117397022D01*
X190790136Y-117246453D01*
X190790137Y-117246451D01*
X190792430Y-117241811D01*
X190857370Y-117028069D01*
X190886529Y-116806590D01*
X190887777Y-116755509D01*
X190888074Y-116743365D01*
X190888074Y-116743361D01*
X190888156Y-116740000D01*
X190869852Y-116517361D01*
X190815431Y-116300702D01*
X190726354Y-116095840D01*
X190605014Y-115908277D01*
X190454670Y-115743051D01*
X190450619Y-115739852D01*
X190450615Y-115739848D01*
X190283414Y-115607800D01*
X190283410Y-115607798D01*
X190279359Y-115604598D01*
X190238053Y-115581796D01*
X190188084Y-115531364D01*
X190173312Y-115461921D01*
X190198428Y-115395516D01*
X190225780Y-115368909D01*
X190269603Y-115337650D01*
X190404860Y-115241173D01*
X190563096Y-115083489D01*
X190622594Y-115000689D01*
X190690435Y-114906277D01*
X190693453Y-114902077D01*
X190695952Y-114897022D01*
X190790136Y-114706453D01*
X190790137Y-114706451D01*
X190792430Y-114701811D01*
X190857370Y-114488069D01*
X190886529Y-114266590D01*
X190888156Y-114200000D01*
X190869852Y-113977361D01*
X190815431Y-113760702D01*
X190726354Y-113555840D01*
X190645718Y-113431196D01*
X190607822Y-113372617D01*
X190607820Y-113372614D01*
X190605014Y-113368277D01*
X190454670Y-113203051D01*
X190450619Y-113199852D01*
X190450615Y-113199848D01*
X190283414Y-113067800D01*
X190283410Y-113067798D01*
X190279359Y-113064598D01*
X190238053Y-113041796D01*
X190188084Y-112991364D01*
X190173312Y-112921921D01*
X190198428Y-112855516D01*
X190225780Y-112828909D01*
X190269603Y-112797650D01*
X190404860Y-112701173D01*
X190431064Y-112675061D01*
X190559435Y-112547137D01*
X190563096Y-112543489D01*
X190622594Y-112460689D01*
X190690435Y-112366277D01*
X190693453Y-112362077D01*
X190792430Y-112161811D01*
X190857370Y-111948069D01*
X190886529Y-111726590D01*
X190888156Y-111660000D01*
X190869852Y-111437361D01*
X190815431Y-111220702D01*
X190726354Y-111015840D01*
X190662956Y-110917842D01*
X190607822Y-110832617D01*
X190607820Y-110832614D01*
X190605014Y-110828277D01*
X190454670Y-110663051D01*
X190450619Y-110659852D01*
X190450615Y-110659848D01*
X190283414Y-110527800D01*
X190283410Y-110527798D01*
X190279359Y-110524598D01*
X190238053Y-110501796D01*
X190188084Y-110451364D01*
X190173312Y-110381921D01*
X190198428Y-110315516D01*
X190225780Y-110288909D01*
X190269603Y-110257650D01*
X190404860Y-110161173D01*
X190563096Y-110003489D01*
X190622594Y-109920689D01*
X190690435Y-109826277D01*
X190693453Y-109822077D01*
X190792430Y-109621811D01*
X190824900Y-109514940D01*
X190855865Y-109413023D01*
X190855865Y-109413021D01*
X190857370Y-109408069D01*
X190886529Y-109186590D01*
X190887562Y-109144300D01*
X190888074Y-109123365D01*
X190888074Y-109123361D01*
X190888156Y-109120000D01*
X190869852Y-108897361D01*
X190815431Y-108680702D01*
X190726354Y-108475840D01*
X190686906Y-108414862D01*
X190607822Y-108292617D01*
X190607820Y-108292614D01*
X190605014Y-108288277D01*
X190454670Y-108123051D01*
X190450619Y-108119852D01*
X190450615Y-108119848D01*
X190283414Y-107987800D01*
X190283410Y-107987798D01*
X190279359Y-107984598D01*
X190238053Y-107961796D01*
X190188084Y-107911364D01*
X190173312Y-107841921D01*
X190198428Y-107775516D01*
X190225780Y-107748909D01*
X190269603Y-107717650D01*
X190404860Y-107621173D01*
X190440514Y-107585644D01*
X190559435Y-107467137D01*
X190563096Y-107463489D01*
X190693453Y-107282077D01*
X190697611Y-107273665D01*
X190790136Y-107086453D01*
X190790137Y-107086451D01*
X190792430Y-107081811D01*
X190857370Y-106868069D01*
X190886529Y-106646590D01*
X190888156Y-106580000D01*
X190869852Y-106357361D01*
X190815431Y-106140702D01*
X190726354Y-105935840D01*
X190605014Y-105748277D01*
X190454670Y-105583051D01*
X190450619Y-105579852D01*
X190450615Y-105579848D01*
X190283414Y-105447800D01*
X190283410Y-105447798D01*
X190279359Y-105444598D01*
X190237569Y-105421529D01*
X190187598Y-105371097D01*
X190172826Y-105301654D01*
X190197942Y-105235248D01*
X190225294Y-105208641D01*
X190400328Y-105083792D01*
X190408200Y-105077139D01*
X190559052Y-104926812D01*
X190565730Y-104918965D01*
X190690003Y-104746020D01*
X190695313Y-104737183D01*
X190789670Y-104546267D01*
X190793469Y-104536672D01*
X190855377Y-104332910D01*
X190857555Y-104322837D01*
X190858986Y-104311962D01*
X190856775Y-104297778D01*
X190843617Y-104294000D01*
X188208225Y-104294000D01*
X188194694Y-104297973D01*
X188193257Y-104307966D01*
X188223565Y-104442446D01*
X188226645Y-104452275D01*
X188306770Y-104649603D01*
X188311413Y-104658794D01*
X188422694Y-104840388D01*
X188428777Y-104848699D01*
X188568213Y-105009667D01*
X188575580Y-105016883D01*
X188739434Y-105152916D01*
X188747881Y-105158831D01*
X188816969Y-105199203D01*
X188865693Y-105250842D01*
X188878764Y-105320625D01*
X188852033Y-105386396D01*
X188811584Y-105419752D01*
X188798607Y-105426507D01*
X188794474Y-105429610D01*
X188794471Y-105429612D01*
X188770247Y-105447800D01*
X188619965Y-105560635D01*
X188465629Y-105722138D01*
X188462715Y-105726410D01*
X188462714Y-105726411D01*
X188350095Y-105891504D01*
X188295184Y-105936507D01*
X188246007Y-105946500D01*
X179094594Y-105946500D01*
X179026473Y-105926498D01*
X179005499Y-105909595D01*
X175494038Y-102398134D01*
X188166500Y-102398134D01*
X188173255Y-102460316D01*
X188224385Y-102596705D01*
X188311739Y-102713261D01*
X188428295Y-102800615D01*
X188436704Y-102803767D01*
X188436705Y-102803768D01*
X188545960Y-102844726D01*
X188602725Y-102887367D01*
X188627425Y-102953929D01*
X188612218Y-103023278D01*
X188592825Y-103049759D01*
X188469590Y-103178717D01*
X188463104Y-103186727D01*
X188343098Y-103362649D01*
X188338000Y-103371623D01*
X188248338Y-103564783D01*
X188244775Y-103574470D01*
X188189389Y-103774183D01*
X188190912Y-103782607D01*
X188203292Y-103786000D01*
X190843344Y-103786000D01*
X190856875Y-103782027D01*
X190858180Y-103772947D01*
X190816214Y-103605875D01*
X190812894Y-103596124D01*
X190727972Y-103400814D01*
X190723105Y-103391739D01*
X190607426Y-103212926D01*
X190601136Y-103204757D01*
X190457293Y-103046677D01*
X190426241Y-102982831D01*
X190434635Y-102912333D01*
X190479812Y-102857564D01*
X190506256Y-102843895D01*
X190613297Y-102803767D01*
X190621705Y-102800615D01*
X190738261Y-102713261D01*
X190825615Y-102596705D01*
X190876745Y-102460316D01*
X190883500Y-102398134D01*
X190883500Y-100601866D01*
X190876745Y-100539684D01*
X190825615Y-100403295D01*
X190738261Y-100286739D01*
X190621705Y-100199385D01*
X190485316Y-100148255D01*
X190423134Y-100141500D01*
X188626866Y-100141500D01*
X188564684Y-100148255D01*
X188428295Y-100199385D01*
X188311739Y-100286739D01*
X188224385Y-100403295D01*
X188173255Y-100539684D01*
X188166500Y-100601866D01*
X188166500Y-102398134D01*
X175494038Y-102398134D01*
X168303652Y-95207747D01*
X168296112Y-95199461D01*
X168292000Y-95192982D01*
X168242348Y-95146356D01*
X168239507Y-95143602D01*
X168219770Y-95123865D01*
X168216573Y-95121385D01*
X168207551Y-95113680D01*
X168201135Y-95107655D01*
X180739858Y-95107655D01*
X180775104Y-95366638D01*
X180776412Y-95371124D01*
X180776412Y-95371126D01*
X180796098Y-95438664D01*
X180848243Y-95617567D01*
X180957668Y-95854928D01*
X180960231Y-95858837D01*
X181098410Y-96069596D01*
X181098414Y-96069601D01*
X181100976Y-96073509D01*
X181275018Y-96268506D01*
X181475970Y-96435637D01*
X181479973Y-96438066D01*
X181695422Y-96568804D01*
X181695426Y-96568806D01*
X181699419Y-96571229D01*
X181940455Y-96672303D01*
X182193783Y-96736641D01*
X182198434Y-96737109D01*
X182198438Y-96737110D01*
X182391308Y-96756531D01*
X182410867Y-96758500D01*
X182566354Y-96758500D01*
X182568679Y-96758327D01*
X182568685Y-96758327D01*
X182756000Y-96744407D01*
X182756004Y-96744406D01*
X182760652Y-96744061D01*
X182765200Y-96743032D01*
X182765206Y-96743031D01*
X182951601Y-96700853D01*
X183015577Y-96686377D01*
X183051769Y-96672303D01*
X183254824Y-96593340D01*
X183254827Y-96593339D01*
X183259177Y-96591647D01*
X183486098Y-96461951D01*
X183691357Y-96300138D01*
X183870443Y-96109763D01*
X184019424Y-95895009D01*
X184135025Y-95660593D01*
X184214707Y-95411665D01*
X184256721Y-95153693D01*
X184258334Y-95030467D01*
X184260081Y-94897022D01*
X184260081Y-94897019D01*
X184260142Y-94892345D01*
X184224896Y-94633362D01*
X184210473Y-94583877D01*
X184153068Y-94386932D01*
X184151757Y-94382433D01*
X184042332Y-94145072D01*
X184009519Y-94095024D01*
X183901590Y-93930404D01*
X183901586Y-93930399D01*
X183899024Y-93926491D01*
X183724982Y-93731494D01*
X183524030Y-93564363D01*
X183476844Y-93535730D01*
X183304578Y-93431196D01*
X183304574Y-93431194D01*
X183300581Y-93428771D01*
X183059545Y-93327697D01*
X182806217Y-93263359D01*
X182801566Y-93262891D01*
X182801562Y-93262890D01*
X182592271Y-93241816D01*
X182589133Y-93241500D01*
X182433646Y-93241500D01*
X182431321Y-93241673D01*
X182431315Y-93241673D01*
X182244000Y-93255593D01*
X182243996Y-93255594D01*
X182239348Y-93255939D01*
X182234800Y-93256968D01*
X182234794Y-93256969D01*
X182048399Y-93299147D01*
X181984423Y-93313623D01*
X181980071Y-93315315D01*
X181980069Y-93315316D01*
X181745176Y-93406660D01*
X181745173Y-93406661D01*
X181740823Y-93408353D01*
X181513902Y-93538049D01*
X181308643Y-93699862D01*
X181129557Y-93890237D01*
X180980576Y-94104991D01*
X180864975Y-94339407D01*
X180785293Y-94588335D01*
X180743279Y-94846307D01*
X180742737Y-94887711D01*
X180740366Y-95068879D01*
X180739858Y-95107655D01*
X168201135Y-95107655D01*
X168175321Y-95083414D01*
X168168375Y-95079595D01*
X168168372Y-95079593D01*
X168157566Y-95073652D01*
X168141047Y-95062801D01*
X168140583Y-95062441D01*
X168125041Y-95050386D01*
X168117772Y-95047241D01*
X168117768Y-95047238D01*
X168084463Y-95032826D01*
X168073813Y-95027609D01*
X168035060Y-95006305D01*
X168015437Y-95001267D01*
X167996734Y-94994863D01*
X167985420Y-94989967D01*
X167985419Y-94989967D01*
X167978145Y-94986819D01*
X167970322Y-94985580D01*
X167970312Y-94985577D01*
X167934476Y-94979901D01*
X167922856Y-94977495D01*
X167887711Y-94968472D01*
X167887710Y-94968472D01*
X167880030Y-94966500D01*
X167859776Y-94966500D01*
X167840065Y-94964949D01*
X167827886Y-94963020D01*
X167820057Y-94961780D01*
X167812165Y-94962526D01*
X167776039Y-94965941D01*
X167764181Y-94966500D01*
X150234594Y-94966500D01*
X150166473Y-94946498D01*
X150145499Y-94929595D01*
X145112494Y-89896589D01*
X145078468Y-89834277D01*
X145083533Y-89763462D01*
X145126080Y-89706626D01*
X145192600Y-89681815D01*
X145212572Y-89681974D01*
X145224515Y-89683019D01*
X145224525Y-89683019D01*
X145230000Y-89683498D01*
X145458087Y-89663543D01*
X145463400Y-89662119D01*
X145463402Y-89662119D01*
X145673933Y-89605707D01*
X145673935Y-89605706D01*
X145679243Y-89604284D01*
X145685235Y-89601490D01*
X145881762Y-89509849D01*
X145881767Y-89509846D01*
X145886749Y-89507523D01*
X145991611Y-89434098D01*
X146069789Y-89379357D01*
X146069792Y-89379355D01*
X146074300Y-89376198D01*
X146236198Y-89214300D01*
X146367523Y-89026749D01*
X146369846Y-89021767D01*
X146369849Y-89021762D01*
X146385805Y-88987543D01*
X146432722Y-88934258D01*
X146500999Y-88914797D01*
X146568959Y-88935339D01*
X146614195Y-88987543D01*
X146630151Y-89021762D01*
X146630154Y-89021767D01*
X146632477Y-89026749D01*
X146763802Y-89214300D01*
X146925700Y-89376198D01*
X146930208Y-89379355D01*
X146930211Y-89379357D01*
X147008389Y-89434098D01*
X147113251Y-89507523D01*
X147118233Y-89509846D01*
X147118238Y-89509849D01*
X147314765Y-89601490D01*
X147320757Y-89604284D01*
X147326065Y-89605706D01*
X147326067Y-89605707D01*
X147536598Y-89662119D01*
X147536600Y-89662119D01*
X147541913Y-89663543D01*
X147770000Y-89683498D01*
X147998087Y-89663543D01*
X148003400Y-89662119D01*
X148003402Y-89662119D01*
X148213933Y-89605707D01*
X148213935Y-89605706D01*
X148219243Y-89604284D01*
X148225235Y-89601490D01*
X148421762Y-89509849D01*
X148421767Y-89509846D01*
X148426749Y-89507523D01*
X148531611Y-89434098D01*
X148609789Y-89379357D01*
X148609792Y-89379355D01*
X148614300Y-89376198D01*
X148776198Y-89214300D01*
X148907523Y-89026749D01*
X148909846Y-89021767D01*
X148909849Y-89021762D01*
X148925805Y-88987543D01*
X148972722Y-88934258D01*
X149040999Y-88914797D01*
X149108959Y-88935339D01*
X149154195Y-88987543D01*
X149170151Y-89021762D01*
X149170154Y-89021767D01*
X149172477Y-89026749D01*
X149303802Y-89214300D01*
X149465700Y-89376198D01*
X149470208Y-89379355D01*
X149470211Y-89379357D01*
X149548389Y-89434098D01*
X149653251Y-89507523D01*
X149658233Y-89509846D01*
X149658238Y-89509849D01*
X149854765Y-89601490D01*
X149860757Y-89604284D01*
X149866065Y-89605706D01*
X149866067Y-89605707D01*
X150076598Y-89662119D01*
X150076600Y-89662119D01*
X150081913Y-89663543D01*
X150310000Y-89683498D01*
X150538087Y-89663543D01*
X150543400Y-89662119D01*
X150543402Y-89662119D01*
X150753933Y-89605707D01*
X150753935Y-89605706D01*
X150759243Y-89604284D01*
X150765235Y-89601490D01*
X150961762Y-89509849D01*
X150961767Y-89509846D01*
X150966749Y-89507523D01*
X151071611Y-89434098D01*
X151149789Y-89379357D01*
X151149792Y-89379355D01*
X151154300Y-89376198D01*
X151316198Y-89214300D01*
X151447523Y-89026749D01*
X151449846Y-89021767D01*
X151449849Y-89021762D01*
X151465805Y-88987543D01*
X151512722Y-88934258D01*
X151580999Y-88914797D01*
X151648959Y-88935339D01*
X151694195Y-88987543D01*
X151710151Y-89021762D01*
X151710154Y-89021767D01*
X151712477Y-89026749D01*
X151843802Y-89214300D01*
X152005700Y-89376198D01*
X152010208Y-89379355D01*
X152010211Y-89379357D01*
X152088389Y-89434098D01*
X152193251Y-89507523D01*
X152198233Y-89509846D01*
X152198238Y-89509849D01*
X152394765Y-89601490D01*
X152400757Y-89604284D01*
X152406065Y-89605706D01*
X152406067Y-89605707D01*
X152616598Y-89662119D01*
X152616600Y-89662119D01*
X152621913Y-89663543D01*
X152850000Y-89683498D01*
X153078087Y-89663543D01*
X153083400Y-89662119D01*
X153083402Y-89662119D01*
X153293933Y-89605707D01*
X153293935Y-89605706D01*
X153299243Y-89604284D01*
X153305235Y-89601490D01*
X153501762Y-89509849D01*
X153501767Y-89509846D01*
X153506749Y-89507523D01*
X153611611Y-89434098D01*
X153689789Y-89379357D01*
X153689792Y-89379355D01*
X153694300Y-89376198D01*
X153856198Y-89214300D01*
X153987523Y-89026749D01*
X153989846Y-89021767D01*
X153989849Y-89021762D01*
X154005805Y-88987543D01*
X154052722Y-88934258D01*
X154120999Y-88914797D01*
X154188959Y-88935339D01*
X154234195Y-88987543D01*
X154250151Y-89021762D01*
X154250154Y-89021767D01*
X154252477Y-89026749D01*
X154383802Y-89214300D01*
X154545700Y-89376198D01*
X154550208Y-89379355D01*
X154550211Y-89379357D01*
X154628389Y-89434098D01*
X154733251Y-89507523D01*
X154738233Y-89509846D01*
X154738238Y-89509849D01*
X154934765Y-89601490D01*
X154940757Y-89604284D01*
X154946065Y-89605706D01*
X154946067Y-89605707D01*
X155156598Y-89662119D01*
X155156600Y-89662119D01*
X155161913Y-89663543D01*
X155390000Y-89683498D01*
X155618087Y-89663543D01*
X155623400Y-89662119D01*
X155623402Y-89662119D01*
X155833933Y-89605707D01*
X155833935Y-89605706D01*
X155839243Y-89604284D01*
X155845235Y-89601490D01*
X156041762Y-89509849D01*
X156041767Y-89509846D01*
X156046749Y-89507523D01*
X156151611Y-89434098D01*
X156229789Y-89379357D01*
X156229792Y-89379355D01*
X156234300Y-89376198D01*
X156396198Y-89214300D01*
X156527523Y-89026749D01*
X156529846Y-89021767D01*
X156529849Y-89021762D01*
X156545805Y-88987543D01*
X156592722Y-88934258D01*
X156660999Y-88914797D01*
X156728959Y-88935339D01*
X156774195Y-88987543D01*
X156790151Y-89021762D01*
X156790154Y-89021767D01*
X156792477Y-89026749D01*
X156923802Y-89214300D01*
X157085700Y-89376198D01*
X157090208Y-89379355D01*
X157090211Y-89379357D01*
X157168389Y-89434098D01*
X157273251Y-89507523D01*
X157278233Y-89509846D01*
X157278238Y-89509849D01*
X157474765Y-89601490D01*
X157480757Y-89604284D01*
X157486065Y-89605706D01*
X157486067Y-89605707D01*
X157696598Y-89662119D01*
X157696600Y-89662119D01*
X157701913Y-89663543D01*
X157930000Y-89683498D01*
X158158087Y-89663543D01*
X158163400Y-89662119D01*
X158163402Y-89662119D01*
X158373933Y-89605707D01*
X158373935Y-89605706D01*
X158379243Y-89604284D01*
X158385235Y-89601490D01*
X158581762Y-89509849D01*
X158581767Y-89509846D01*
X158586749Y-89507523D01*
X158691611Y-89434098D01*
X158769789Y-89379357D01*
X158769792Y-89379355D01*
X158774300Y-89376198D01*
X158936198Y-89214300D01*
X159067523Y-89026749D01*
X159069846Y-89021767D01*
X159069849Y-89021762D01*
X159085805Y-88987543D01*
X159132722Y-88934258D01*
X159200999Y-88914797D01*
X159268959Y-88935339D01*
X159314195Y-88987543D01*
X159330151Y-89021762D01*
X159330154Y-89021767D01*
X159332477Y-89026749D01*
X159463802Y-89214300D01*
X159625700Y-89376198D01*
X159630208Y-89379355D01*
X159630211Y-89379357D01*
X159708389Y-89434098D01*
X159813251Y-89507523D01*
X159818233Y-89509846D01*
X159818238Y-89509849D01*
X160014765Y-89601490D01*
X160020757Y-89604284D01*
X160026065Y-89605706D01*
X160026067Y-89605707D01*
X160236598Y-89662119D01*
X160236600Y-89662119D01*
X160241913Y-89663543D01*
X160470000Y-89683498D01*
X160698087Y-89663543D01*
X160703400Y-89662119D01*
X160703402Y-89662119D01*
X160913933Y-89605707D01*
X160913935Y-89605706D01*
X160919243Y-89604284D01*
X160925235Y-89601490D01*
X161121762Y-89509849D01*
X161121767Y-89509846D01*
X161126749Y-89507523D01*
X161231611Y-89434098D01*
X161309789Y-89379357D01*
X161309792Y-89379355D01*
X161314300Y-89376198D01*
X161476198Y-89214300D01*
X161607523Y-89026749D01*
X161609846Y-89021767D01*
X161609849Y-89021762D01*
X161625805Y-88987543D01*
X161672722Y-88934258D01*
X161740999Y-88914797D01*
X161808959Y-88935339D01*
X161854195Y-88987543D01*
X161870151Y-89021762D01*
X161870154Y-89021767D01*
X161872477Y-89026749D01*
X162003802Y-89214300D01*
X162165700Y-89376198D01*
X162170208Y-89379355D01*
X162170211Y-89379357D01*
X162248389Y-89434098D01*
X162353251Y-89507523D01*
X162358233Y-89509846D01*
X162358238Y-89509849D01*
X162554765Y-89601490D01*
X162560757Y-89604284D01*
X162566065Y-89605706D01*
X162566067Y-89605707D01*
X162776598Y-89662119D01*
X162776600Y-89662119D01*
X162781913Y-89663543D01*
X163010000Y-89683498D01*
X163238087Y-89663543D01*
X163243400Y-89662119D01*
X163243402Y-89662119D01*
X163453933Y-89605707D01*
X163453935Y-89605706D01*
X163459243Y-89604284D01*
X163465235Y-89601490D01*
X163661762Y-89509849D01*
X163661767Y-89509846D01*
X163666749Y-89507523D01*
X163771611Y-89434098D01*
X163849789Y-89379357D01*
X163849792Y-89379355D01*
X163854300Y-89376198D01*
X164016198Y-89214300D01*
X164147523Y-89026749D01*
X164149846Y-89021767D01*
X164149849Y-89021762D01*
X164241961Y-88824225D01*
X164241961Y-88824224D01*
X164244284Y-88819243D01*
X164303543Y-88598087D01*
X164323498Y-88370000D01*
X164303543Y-88141913D01*
X164244284Y-87920757D01*
X164149966Y-87718489D01*
X164149849Y-87718238D01*
X164149846Y-87718233D01*
X164147523Y-87713251D01*
X164016198Y-87525700D01*
X163854300Y-87363802D01*
X163849792Y-87360645D01*
X163849789Y-87360643D01*
X163771611Y-87305902D01*
X163666749Y-87232477D01*
X163661767Y-87230154D01*
X163661762Y-87230151D01*
X163464225Y-87138039D01*
X163464224Y-87138039D01*
X163459243Y-87135716D01*
X163453935Y-87134294D01*
X163453933Y-87134293D01*
X163243402Y-87077881D01*
X163243400Y-87077881D01*
X163238087Y-87076457D01*
X163010000Y-87056502D01*
X162781913Y-87076457D01*
X162776600Y-87077881D01*
X162776598Y-87077881D01*
X162566067Y-87134293D01*
X162566065Y-87134294D01*
X162560757Y-87135716D01*
X162555776Y-87138039D01*
X162555775Y-87138039D01*
X162358238Y-87230151D01*
X162358233Y-87230154D01*
X162353251Y-87232477D01*
X162248389Y-87305902D01*
X162170211Y-87360643D01*
X162170208Y-87360645D01*
X162165700Y-87363802D01*
X162003802Y-87525700D01*
X161872477Y-87713251D01*
X161870154Y-87718233D01*
X161870151Y-87718238D01*
X161854195Y-87752457D01*
X161807278Y-87805742D01*
X161739001Y-87825203D01*
X161671041Y-87804661D01*
X161625805Y-87752457D01*
X161609849Y-87718238D01*
X161609846Y-87718233D01*
X161607523Y-87713251D01*
X161476198Y-87525700D01*
X161314300Y-87363802D01*
X161309792Y-87360645D01*
X161309789Y-87360643D01*
X161231611Y-87305902D01*
X161126749Y-87232477D01*
X161121767Y-87230154D01*
X161121762Y-87230151D01*
X160924225Y-87138039D01*
X160924224Y-87138039D01*
X160919243Y-87135716D01*
X160913935Y-87134294D01*
X160913933Y-87134293D01*
X160703402Y-87077881D01*
X160703400Y-87077881D01*
X160698087Y-87076457D01*
X160470000Y-87056502D01*
X160241913Y-87076457D01*
X160236600Y-87077881D01*
X160236598Y-87077881D01*
X160026067Y-87134293D01*
X160026065Y-87134294D01*
X160020757Y-87135716D01*
X160015776Y-87138039D01*
X160015775Y-87138039D01*
X159818238Y-87230151D01*
X159818233Y-87230154D01*
X159813251Y-87232477D01*
X159708389Y-87305902D01*
X159630211Y-87360643D01*
X159630208Y-87360645D01*
X159625700Y-87363802D01*
X159463802Y-87525700D01*
X159332477Y-87713251D01*
X159330154Y-87718233D01*
X159330151Y-87718238D01*
X159314195Y-87752457D01*
X159267278Y-87805742D01*
X159199001Y-87825203D01*
X159131041Y-87804661D01*
X159085805Y-87752457D01*
X159069849Y-87718238D01*
X159069846Y-87718233D01*
X159067523Y-87713251D01*
X158936198Y-87525700D01*
X158774300Y-87363802D01*
X158769792Y-87360645D01*
X158769789Y-87360643D01*
X158691611Y-87305902D01*
X158586749Y-87232477D01*
X158581767Y-87230154D01*
X158581762Y-87230151D01*
X158384225Y-87138039D01*
X158384224Y-87138039D01*
X158379243Y-87135716D01*
X158373935Y-87134294D01*
X158373933Y-87134293D01*
X158163402Y-87077881D01*
X158163400Y-87077881D01*
X158158087Y-87076457D01*
X157930000Y-87056502D01*
X157701913Y-87076457D01*
X157696600Y-87077881D01*
X157696598Y-87077881D01*
X157486067Y-87134293D01*
X157486065Y-87134294D01*
X157480757Y-87135716D01*
X157475776Y-87138039D01*
X157475775Y-87138039D01*
X157278238Y-87230151D01*
X157278233Y-87230154D01*
X157273251Y-87232477D01*
X157168389Y-87305902D01*
X157090211Y-87360643D01*
X157090208Y-87360645D01*
X157085700Y-87363802D01*
X156923802Y-87525700D01*
X156792477Y-87713251D01*
X156790154Y-87718233D01*
X156790151Y-87718238D01*
X156774195Y-87752457D01*
X156727278Y-87805742D01*
X156659001Y-87825203D01*
X156591041Y-87804661D01*
X156545805Y-87752457D01*
X156529849Y-87718238D01*
X156529846Y-87718233D01*
X156527523Y-87713251D01*
X156396198Y-87525700D01*
X156234300Y-87363802D01*
X156229792Y-87360645D01*
X156229789Y-87360643D01*
X156151611Y-87305902D01*
X156046749Y-87232477D01*
X156041767Y-87230154D01*
X156041762Y-87230151D01*
X155844225Y-87138039D01*
X155844224Y-87138039D01*
X155839243Y-87135716D01*
X155833935Y-87134294D01*
X155833933Y-87134293D01*
X155623402Y-87077881D01*
X155623400Y-87077881D01*
X155618087Y-87076457D01*
X155390000Y-87056502D01*
X155161913Y-87076457D01*
X155156600Y-87077881D01*
X155156598Y-87077881D01*
X154946067Y-87134293D01*
X154946065Y-87134294D01*
X154940757Y-87135716D01*
X154935776Y-87138039D01*
X154935775Y-87138039D01*
X154738238Y-87230151D01*
X154738233Y-87230154D01*
X154733251Y-87232477D01*
X154628389Y-87305902D01*
X154550211Y-87360643D01*
X154550208Y-87360645D01*
X154545700Y-87363802D01*
X154383802Y-87525700D01*
X154252477Y-87713251D01*
X154250154Y-87718233D01*
X154250151Y-87718238D01*
X154234195Y-87752457D01*
X154187278Y-87805742D01*
X154119001Y-87825203D01*
X154051041Y-87804661D01*
X154005805Y-87752457D01*
X153989849Y-87718238D01*
X153989846Y-87718233D01*
X153987523Y-87713251D01*
X153856198Y-87525700D01*
X153694300Y-87363802D01*
X153689792Y-87360645D01*
X153689789Y-87360643D01*
X153611611Y-87305902D01*
X153506749Y-87232477D01*
X153501767Y-87230154D01*
X153501762Y-87230151D01*
X153304225Y-87138039D01*
X153304224Y-87138039D01*
X153299243Y-87135716D01*
X153293935Y-87134294D01*
X153293933Y-87134293D01*
X153083402Y-87077881D01*
X153083400Y-87077881D01*
X153078087Y-87076457D01*
X152850000Y-87056502D01*
X152621913Y-87076457D01*
X152616600Y-87077881D01*
X152616598Y-87077881D01*
X152406067Y-87134293D01*
X152406065Y-87134294D01*
X152400757Y-87135716D01*
X152395776Y-87138039D01*
X152395775Y-87138039D01*
X152198238Y-87230151D01*
X152198233Y-87230154D01*
X152193251Y-87232477D01*
X152088389Y-87305902D01*
X152010211Y-87360643D01*
X152010208Y-87360645D01*
X152005700Y-87363802D01*
X151843802Y-87525700D01*
X151712477Y-87713251D01*
X151710154Y-87718233D01*
X151710151Y-87718238D01*
X151694195Y-87752457D01*
X151647278Y-87805742D01*
X151579001Y-87825203D01*
X151511041Y-87804661D01*
X151465805Y-87752457D01*
X151449849Y-87718238D01*
X151449846Y-87718233D01*
X151447523Y-87713251D01*
X151316198Y-87525700D01*
X151154300Y-87363802D01*
X151149792Y-87360645D01*
X151149789Y-87360643D01*
X151071611Y-87305902D01*
X150966749Y-87232477D01*
X150961767Y-87230154D01*
X150961762Y-87230151D01*
X150764225Y-87138039D01*
X150764224Y-87138039D01*
X150759243Y-87135716D01*
X150753935Y-87134294D01*
X150753933Y-87134293D01*
X150543402Y-87077881D01*
X150543400Y-87077881D01*
X150538087Y-87076457D01*
X150310000Y-87056502D01*
X150081913Y-87076457D01*
X150076600Y-87077881D01*
X150076598Y-87077881D01*
X149866067Y-87134293D01*
X149866065Y-87134294D01*
X149860757Y-87135716D01*
X149855776Y-87138039D01*
X149855775Y-87138039D01*
X149658238Y-87230151D01*
X149658233Y-87230154D01*
X149653251Y-87232477D01*
X149548389Y-87305902D01*
X149470211Y-87360643D01*
X149470208Y-87360645D01*
X149465700Y-87363802D01*
X149303802Y-87525700D01*
X149172477Y-87713251D01*
X149170154Y-87718233D01*
X149170151Y-87718238D01*
X149154195Y-87752457D01*
X149107278Y-87805742D01*
X149039001Y-87825203D01*
X148971041Y-87804661D01*
X148925805Y-87752457D01*
X148909849Y-87718238D01*
X148909846Y-87718233D01*
X148907523Y-87713251D01*
X148776198Y-87525700D01*
X148614300Y-87363802D01*
X148609792Y-87360645D01*
X148609789Y-87360643D01*
X148531611Y-87305902D01*
X148426749Y-87232477D01*
X148421767Y-87230154D01*
X148421762Y-87230151D01*
X148224225Y-87138039D01*
X148224224Y-87138039D01*
X148219243Y-87135716D01*
X148213935Y-87134294D01*
X148213933Y-87134293D01*
X148003402Y-87077881D01*
X148003400Y-87077881D01*
X147998087Y-87076457D01*
X147770000Y-87056502D01*
X147541913Y-87076457D01*
X147536600Y-87077881D01*
X147536598Y-87077881D01*
X147326067Y-87134293D01*
X147326065Y-87134294D01*
X147320757Y-87135716D01*
X147315776Y-87138039D01*
X147315775Y-87138039D01*
X147118238Y-87230151D01*
X147118233Y-87230154D01*
X147113251Y-87232477D01*
X147008389Y-87305902D01*
X146930211Y-87360643D01*
X146930208Y-87360645D01*
X146925700Y-87363802D01*
X146763802Y-87525700D01*
X146632477Y-87713251D01*
X146630154Y-87718233D01*
X146630151Y-87718238D01*
X146614195Y-87752457D01*
X146567278Y-87805742D01*
X146499001Y-87825203D01*
X146431041Y-87804661D01*
X146385805Y-87752457D01*
X146369849Y-87718238D01*
X146369846Y-87718233D01*
X146367523Y-87713251D01*
X146236198Y-87525700D01*
X146074300Y-87363802D01*
X146069792Y-87360645D01*
X146069789Y-87360643D01*
X145991611Y-87305902D01*
X145886749Y-87232477D01*
X145881767Y-87230154D01*
X145881762Y-87230151D01*
X145684225Y-87138039D01*
X145684224Y-87138039D01*
X145679243Y-87135716D01*
X145673935Y-87134294D01*
X145673933Y-87134293D01*
X145463402Y-87077881D01*
X145463400Y-87077881D01*
X145458087Y-87076457D01*
X145230000Y-87056502D01*
X145001913Y-87076457D01*
X144996600Y-87077881D01*
X144996598Y-87077881D01*
X144786067Y-87134293D01*
X144786065Y-87134294D01*
X144780757Y-87135716D01*
X144775776Y-87138039D01*
X144775775Y-87138039D01*
X144578238Y-87230151D01*
X144578233Y-87230154D01*
X144573251Y-87232477D01*
X144468389Y-87305902D01*
X144390211Y-87360643D01*
X144390208Y-87360645D01*
X144385700Y-87363802D01*
X144223802Y-87525700D01*
X144092477Y-87713251D01*
X144090154Y-87718233D01*
X144090151Y-87718238D01*
X144074195Y-87752457D01*
X144027278Y-87805742D01*
X143959001Y-87825203D01*
X143891041Y-87804661D01*
X143845805Y-87752457D01*
X143829849Y-87718238D01*
X143829846Y-87718233D01*
X143827523Y-87713251D01*
X143696198Y-87525700D01*
X143534300Y-87363802D01*
X143529792Y-87360645D01*
X143529789Y-87360643D01*
X143451611Y-87305902D01*
X143346749Y-87232477D01*
X143341767Y-87230154D01*
X143341762Y-87230151D01*
X143144225Y-87138039D01*
X143144224Y-87138039D01*
X143139243Y-87135716D01*
X143133935Y-87134294D01*
X143133933Y-87134293D01*
X142923402Y-87077881D01*
X142923400Y-87077881D01*
X142918087Y-87076457D01*
X142690000Y-87056502D01*
X142461913Y-87076457D01*
X142456600Y-87077881D01*
X142456598Y-87077881D01*
X142246067Y-87134293D01*
X142246065Y-87134294D01*
X142240757Y-87135716D01*
X142235776Y-87138039D01*
X142235775Y-87138039D01*
X142038238Y-87230151D01*
X142038233Y-87230154D01*
X142033251Y-87232477D01*
X141928389Y-87305902D01*
X141850211Y-87360643D01*
X141850208Y-87360645D01*
X141845700Y-87363802D01*
X141683802Y-87525700D01*
X141552477Y-87713251D01*
X141550154Y-87718233D01*
X141550151Y-87718238D01*
X141534195Y-87752457D01*
X141487278Y-87805742D01*
X141419001Y-87825203D01*
X141351041Y-87804661D01*
X141305805Y-87752457D01*
X141289849Y-87718238D01*
X141289846Y-87718233D01*
X141287523Y-87713251D01*
X141156198Y-87525700D01*
X140994300Y-87363802D01*
X140989792Y-87360645D01*
X140989789Y-87360643D01*
X140911611Y-87305902D01*
X140806749Y-87232477D01*
X140801767Y-87230154D01*
X140801762Y-87230151D01*
X140604225Y-87138039D01*
X140604224Y-87138039D01*
X140599243Y-87135716D01*
X140593935Y-87134294D01*
X140593933Y-87134293D01*
X140383402Y-87077881D01*
X140383400Y-87077881D01*
X140378087Y-87076457D01*
X140150000Y-87056502D01*
X139921913Y-87076457D01*
X139916600Y-87077881D01*
X139916598Y-87077881D01*
X139706067Y-87134293D01*
X139706065Y-87134294D01*
X139700757Y-87135716D01*
X139695776Y-87138039D01*
X139695775Y-87138039D01*
X139498238Y-87230151D01*
X139498233Y-87230154D01*
X139493251Y-87232477D01*
X139388389Y-87305902D01*
X139310211Y-87360643D01*
X139310208Y-87360645D01*
X139305700Y-87363802D01*
X139143802Y-87525700D01*
X139012477Y-87713251D01*
X139010154Y-87718233D01*
X139010151Y-87718238D01*
X138994195Y-87752457D01*
X138947278Y-87805742D01*
X138879001Y-87825203D01*
X138811041Y-87804661D01*
X138765805Y-87752457D01*
X138749849Y-87718238D01*
X138749846Y-87718233D01*
X138747523Y-87713251D01*
X138616198Y-87525700D01*
X138454300Y-87363802D01*
X138449792Y-87360645D01*
X138449789Y-87360643D01*
X138371611Y-87305902D01*
X138266749Y-87232477D01*
X138261767Y-87230154D01*
X138261762Y-87230151D01*
X138064225Y-87138039D01*
X138064224Y-87138039D01*
X138059243Y-87135716D01*
X138053935Y-87134294D01*
X138053933Y-87134293D01*
X137843402Y-87077881D01*
X137843400Y-87077881D01*
X137838087Y-87076457D01*
X137610000Y-87056502D01*
X137381913Y-87076457D01*
X137376600Y-87077881D01*
X137376598Y-87077881D01*
X137166067Y-87134293D01*
X137166065Y-87134294D01*
X137160757Y-87135716D01*
X137155776Y-87138039D01*
X137155775Y-87138039D01*
X136958238Y-87230151D01*
X136958233Y-87230154D01*
X136953251Y-87232477D01*
X136848389Y-87305902D01*
X136770211Y-87360643D01*
X136770208Y-87360645D01*
X136765700Y-87363802D01*
X136603802Y-87525700D01*
X136472477Y-87713251D01*
X136470154Y-87718233D01*
X136470151Y-87718238D01*
X136454195Y-87752457D01*
X136407278Y-87805742D01*
X136339001Y-87825203D01*
X136271041Y-87804661D01*
X136225805Y-87752457D01*
X136209849Y-87718238D01*
X136209846Y-87718233D01*
X136207523Y-87713251D01*
X136076198Y-87525700D01*
X135914300Y-87363802D01*
X135909792Y-87360645D01*
X135909789Y-87360643D01*
X135831611Y-87305902D01*
X135726749Y-87232477D01*
X135721767Y-87230154D01*
X135721762Y-87230151D01*
X135524225Y-87138039D01*
X135524224Y-87138039D01*
X135519243Y-87135716D01*
X135513935Y-87134294D01*
X135513933Y-87134293D01*
X135303402Y-87077881D01*
X135303400Y-87077881D01*
X135298087Y-87076457D01*
X135070000Y-87056502D01*
X134841913Y-87076457D01*
X134836600Y-87077881D01*
X134836598Y-87077881D01*
X134626067Y-87134293D01*
X134626065Y-87134294D01*
X134620757Y-87135716D01*
X134615776Y-87138039D01*
X134615775Y-87138039D01*
X134418238Y-87230151D01*
X134418233Y-87230154D01*
X134413251Y-87232477D01*
X134308389Y-87305902D01*
X134230211Y-87360643D01*
X134230208Y-87360645D01*
X134225700Y-87363802D01*
X134063802Y-87525700D01*
X133932477Y-87713251D01*
X133930154Y-87718233D01*
X133930151Y-87718238D01*
X133914195Y-87752457D01*
X133867278Y-87805742D01*
X133799001Y-87825203D01*
X133731041Y-87804661D01*
X133685805Y-87752457D01*
X133669849Y-87718238D01*
X133669846Y-87718233D01*
X133667523Y-87713251D01*
X133536198Y-87525700D01*
X133374300Y-87363802D01*
X133369792Y-87360645D01*
X133369789Y-87360643D01*
X133291611Y-87305902D01*
X133186749Y-87232477D01*
X133181767Y-87230154D01*
X133181762Y-87230151D01*
X132984225Y-87138039D01*
X132984224Y-87138039D01*
X132979243Y-87135716D01*
X132973935Y-87134294D01*
X132973933Y-87134293D01*
X132763402Y-87077881D01*
X132763400Y-87077881D01*
X132758087Y-87076457D01*
X132530000Y-87056502D01*
X132301913Y-87076457D01*
X132296600Y-87077881D01*
X132296598Y-87077881D01*
X132086067Y-87134293D01*
X132086065Y-87134294D01*
X132080757Y-87135716D01*
X132075776Y-87138039D01*
X132075775Y-87138039D01*
X131878238Y-87230151D01*
X131878233Y-87230154D01*
X131873251Y-87232477D01*
X131768389Y-87305902D01*
X131690211Y-87360643D01*
X131690208Y-87360645D01*
X131685700Y-87363802D01*
X131523802Y-87525700D01*
X131392477Y-87713251D01*
X131390154Y-87718233D01*
X131390151Y-87718238D01*
X131373919Y-87753049D01*
X131327002Y-87806334D01*
X131258725Y-87825795D01*
X131190765Y-87805253D01*
X131145529Y-87753049D01*
X131129414Y-87718489D01*
X131123931Y-87708993D01*
X130998972Y-87530533D01*
X130991916Y-87522125D01*
X130837875Y-87368084D01*
X130829467Y-87361028D01*
X130651007Y-87236069D01*
X130641511Y-87230586D01*
X130444053Y-87138510D01*
X130433761Y-87134764D01*
X130261497Y-87088606D01*
X130247401Y-87088942D01*
X130244000Y-87096884D01*
X130244000Y-89637967D01*
X129736000Y-89637967D01*
X129736000Y-87102033D01*
X129732027Y-87088502D01*
X129723478Y-87087273D01*
X129546239Y-87134764D01*
X129535947Y-87138510D01*
X129338489Y-87230586D01*
X129328993Y-87236069D01*
X129150533Y-87361028D01*
X129142125Y-87368084D01*
X128988084Y-87522125D01*
X128981030Y-87530531D01*
X128944306Y-87582979D01*
X128888849Y-87627308D01*
X128818229Y-87634617D01*
X128754869Y-87602587D01*
X128735660Y-87579702D01*
X128730448Y-87571737D01*
X128645826Y-87442422D01*
X128482142Y-87263164D01*
X128384917Y-87186105D01*
X128295871Y-87115527D01*
X128295865Y-87115523D01*
X128291902Y-87112382D01*
X128080002Y-86993955D01*
X127965948Y-86952442D01*
X127856652Y-86912661D01*
X127856647Y-86912660D01*
X127851895Y-86910930D01*
X127846926Y-86909982D01*
X127846922Y-86909981D01*
X127618422Y-86866393D01*
X127613447Y-86865444D01*
X127457949Y-86861100D01*
X127375850Y-86858807D01*
X127375847Y-86858807D01*
X127370795Y-86858666D01*
X127365782Y-86859335D01*
X127365780Y-86859335D01*
X127153526Y-86887656D01*
X127130180Y-86890771D01*
X127125339Y-86892233D01*
X127125337Y-86892233D01*
X126902643Y-86959468D01*
X126902639Y-86959470D01*
X126897792Y-86960933D01*
X126679612Y-87067346D01*
X126481253Y-87207274D01*
X126459750Y-87226909D01*
X122263328Y-91423331D01*
X122260806Y-91425785D01*
X122188313Y-91494338D01*
X122185246Y-91498350D01*
X122140586Y-91556763D01*
X122136442Y-91561898D01*
X122085524Y-91621726D01*
X122082905Y-91626051D01*
X122082901Y-91626056D01*
X122068503Y-91649830D01*
X122060831Y-91661077D01*
X122040874Y-91687180D01*
X122038484Y-91691638D01*
X122038483Y-91691639D01*
X122003755Y-91756407D01*
X122000490Y-91762132D01*
X121959773Y-91829364D01*
X121957878Y-91834055D01*
X121947467Y-91859823D01*
X121941687Y-91872164D01*
X121926163Y-91901115D01*
X121924517Y-91905896D01*
X121924515Y-91905900D01*
X121900582Y-91975407D01*
X121898272Y-91981585D01*
X121868839Y-92054435D01*
X121867717Y-92059374D01*
X121861562Y-92086466D01*
X121857831Y-92099565D01*
X121847132Y-92130637D01*
X121833751Y-92208106D01*
X121832471Y-92214510D01*
X121815059Y-92291150D01*
X121812995Y-92323959D01*
X121811409Y-92337459D01*
X121805815Y-92369842D01*
X121804494Y-92398931D01*
X121804494Y-92455114D01*
X121804245Y-92463025D01*
X121799816Y-92533419D01*
X121800310Y-92538454D01*
X121803893Y-92574998D01*
X121804494Y-92587294D01*
X121804494Y-112462188D01*
X121804364Y-112467903D01*
X121800508Y-112552817D01*
X121801089Y-112557838D01*
X121801089Y-112557839D01*
X121802668Y-112571483D01*
X121790629Y-112641451D01*
X121766598Y-112675061D01*
X115662377Y-118779282D01*
X115600065Y-118813308D01*
X115565041Y-118815917D01*
X115504119Y-118811924D01*
X115500000Y-118811654D01*
X115495881Y-118811924D01*
X115208686Y-118830747D01*
X115208679Y-118830748D01*
X115204574Y-118831017D01*
X115200541Y-118831819D01*
X115200535Y-118831820D01*
X114918253Y-118887970D01*
X114918247Y-118887972D01*
X114914203Y-118888776D01*
X114910294Y-118890103D01*
X114910290Y-118890104D01*
X114637761Y-118982615D01*
X114633855Y-118983941D01*
X114555448Y-119022607D01*
X114372031Y-119113058D01*
X114372026Y-119113061D01*
X114368327Y-119114885D01*
X114364894Y-119117179D01*
X114125593Y-119277074D01*
X114125588Y-119277078D01*
X114122162Y-119279367D01*
X114119068Y-119282081D01*
X114119062Y-119282085D01*
X113999623Y-119386831D01*
X113899573Y-119474573D01*
X113896864Y-119477662D01*
X113707085Y-119694062D01*
X113707081Y-119694068D01*
X113704367Y-119697162D01*
X113539885Y-119943327D01*
X113408941Y-120208855D01*
X113407616Y-120212760D01*
X113407615Y-120212761D01*
X113322707Y-120462894D01*
X113313776Y-120489203D01*
X113312972Y-120493247D01*
X113312970Y-120493253D01*
X113275406Y-120682101D01*
X113256017Y-120779574D01*
X113255748Y-120783679D01*
X113255747Y-120783686D01*
X113240917Y-121009959D01*
X113236654Y-121075000D01*
X104858500Y-121075000D01*
X104858500Y-120802885D01*
X108242000Y-120802885D01*
X108246475Y-120818124D01*
X108247865Y-120819329D01*
X108255548Y-120821000D01*
X110227885Y-120821000D01*
X110243124Y-120816525D01*
X110244329Y-120815135D01*
X110246000Y-120807452D01*
X110246000Y-120802885D01*
X110754000Y-120802885D01*
X110758475Y-120818124D01*
X110759865Y-120819329D01*
X110767548Y-120821000D01*
X112739884Y-120821000D01*
X112755123Y-120816525D01*
X112756328Y-120815135D01*
X112757999Y-120807452D01*
X112757999Y-119280331D01*
X112757629Y-119273510D01*
X112752105Y-119222648D01*
X112748479Y-119207396D01*
X112703324Y-119086946D01*
X112694786Y-119071351D01*
X112618285Y-118969276D01*
X112605724Y-118956715D01*
X112503649Y-118880214D01*
X112488054Y-118871676D01*
X112367606Y-118826522D01*
X112352351Y-118822895D01*
X112301486Y-118817369D01*
X112294672Y-118817000D01*
X110772115Y-118817000D01*
X110756876Y-118821475D01*
X110755671Y-118822865D01*
X110754000Y-118830548D01*
X110754000Y-120802885D01*
X110246000Y-120802885D01*
X110246000Y-118835116D01*
X110241525Y-118819877D01*
X110240135Y-118818672D01*
X110232452Y-118817001D01*
X108705331Y-118817001D01*
X108698510Y-118817371D01*
X108647648Y-118822895D01*
X108632396Y-118826521D01*
X108511946Y-118871676D01*
X108496351Y-118880214D01*
X108394276Y-118956715D01*
X108381715Y-118969276D01*
X108305214Y-119071351D01*
X108296676Y-119086946D01*
X108251522Y-119207394D01*
X108247895Y-119222649D01*
X108242369Y-119273514D01*
X108242000Y-119280328D01*
X108242000Y-120802885D01*
X104858500Y-120802885D01*
X104858500Y-115107655D01*
X110739858Y-115107655D01*
X110775104Y-115366638D01*
X110776412Y-115371124D01*
X110776412Y-115371126D01*
X110793379Y-115429338D01*
X110848243Y-115617567D01*
X110957668Y-115854928D01*
X110960231Y-115858837D01*
X111098410Y-116069596D01*
X111098414Y-116069601D01*
X111100976Y-116073509D01*
X111275018Y-116268506D01*
X111475970Y-116435637D01*
X111479973Y-116438066D01*
X111695422Y-116568804D01*
X111695426Y-116568806D01*
X111699419Y-116571229D01*
X111940455Y-116672303D01*
X112193783Y-116736641D01*
X112198434Y-116737109D01*
X112198438Y-116737110D01*
X112346096Y-116751978D01*
X112410867Y-116758500D01*
X112566354Y-116758500D01*
X112568679Y-116758327D01*
X112568685Y-116758327D01*
X112756000Y-116744407D01*
X112756004Y-116744406D01*
X112760652Y-116744061D01*
X112765200Y-116743032D01*
X112765206Y-116743031D01*
X112951601Y-116700853D01*
X113015577Y-116686377D01*
X113051769Y-116672303D01*
X113254824Y-116593340D01*
X113254827Y-116593339D01*
X113259177Y-116591647D01*
X113270321Y-116585278D01*
X113343196Y-116543626D01*
X113486098Y-116461951D01*
X113691357Y-116300138D01*
X113870443Y-116109763D01*
X114010220Y-115908277D01*
X114016759Y-115898851D01*
X114016761Y-115898848D01*
X114019424Y-115895009D01*
X114023664Y-115886411D01*
X114132960Y-115664781D01*
X114132961Y-115664778D01*
X114135025Y-115660593D01*
X114214707Y-115411665D01*
X114256721Y-115153693D01*
X114260015Y-114902077D01*
X114260081Y-114897022D01*
X114260081Y-114897019D01*
X114260142Y-114892345D01*
X114224896Y-114633362D01*
X114218794Y-114612425D01*
X114155352Y-114394767D01*
X114151757Y-114382433D01*
X114042332Y-114145072D01*
X113990739Y-114066379D01*
X113901590Y-113930404D01*
X113901586Y-113930399D01*
X113899024Y-113926491D01*
X113724982Y-113731494D01*
X113524030Y-113564363D01*
X113454879Y-113522401D01*
X113304578Y-113431196D01*
X113304574Y-113431194D01*
X113300581Y-113428771D01*
X113059545Y-113327697D01*
X112806217Y-113263359D01*
X112801566Y-113262891D01*
X112801562Y-113262890D01*
X112592271Y-113241816D01*
X112589133Y-113241500D01*
X112433646Y-113241500D01*
X112431321Y-113241673D01*
X112431315Y-113241673D01*
X112244000Y-113255593D01*
X112243996Y-113255594D01*
X112239348Y-113255939D01*
X112234800Y-113256968D01*
X112234794Y-113256969D01*
X112048399Y-113299147D01*
X111984423Y-113313623D01*
X111980071Y-113315315D01*
X111980069Y-113315316D01*
X111745176Y-113406660D01*
X111745173Y-113406661D01*
X111740823Y-113408353D01*
X111513902Y-113538049D01*
X111308643Y-113699862D01*
X111129557Y-113890237D01*
X110980576Y-114104991D01*
X110978510Y-114109181D01*
X110978508Y-114109184D01*
X110895187Y-114278144D01*
X110864975Y-114339407D01*
X110863553Y-114343850D01*
X110863552Y-114343852D01*
X110862967Y-114345681D01*
X110785293Y-114588335D01*
X110743279Y-114846307D01*
X110743218Y-114850980D01*
X110740127Y-115087137D01*
X110739858Y-115107655D01*
X104858500Y-115107655D01*
X104858500Y-109386062D01*
X108168493Y-109386062D01*
X108177789Y-109398077D01*
X108228994Y-109433931D01*
X108238489Y-109439414D01*
X108435947Y-109531490D01*
X108446239Y-109535236D01*
X108656688Y-109591625D01*
X108667481Y-109593528D01*
X108884525Y-109612517D01*
X108895475Y-109612517D01*
X109112519Y-109593528D01*
X109123312Y-109591625D01*
X109333761Y-109535236D01*
X109344053Y-109531490D01*
X109541511Y-109439414D01*
X109551006Y-109433931D01*
X109603048Y-109397491D01*
X109611424Y-109387012D01*
X109604356Y-109373566D01*
X108902812Y-108672022D01*
X108888868Y-108664408D01*
X108887035Y-108664539D01*
X108880420Y-108668790D01*
X108174923Y-109374287D01*
X108168493Y-109386062D01*
X104858500Y-109386062D01*
X104858500Y-108305475D01*
X107577483Y-108305475D01*
X107596472Y-108522519D01*
X107598375Y-108533312D01*
X107654764Y-108743761D01*
X107658510Y-108754053D01*
X107750586Y-108951511D01*
X107756069Y-108961006D01*
X107792509Y-109013048D01*
X107802988Y-109021424D01*
X107816434Y-109014356D01*
X108517978Y-108312812D01*
X108524356Y-108301132D01*
X109254408Y-108301132D01*
X109254539Y-108302965D01*
X109258790Y-108309580D01*
X109964287Y-109015077D01*
X109976062Y-109021507D01*
X109988077Y-109012211D01*
X110023931Y-108961006D01*
X110029414Y-108951511D01*
X110121490Y-108754053D01*
X110125236Y-108743761D01*
X110181625Y-108533312D01*
X110183528Y-108522519D01*
X110202517Y-108305475D01*
X110202517Y-108300000D01*
X115196502Y-108300000D01*
X115216457Y-108528087D01*
X115217881Y-108533400D01*
X115217881Y-108533402D01*
X115255025Y-108672022D01*
X115275716Y-108749243D01*
X115278039Y-108754224D01*
X115278039Y-108754225D01*
X115370151Y-108951762D01*
X115370154Y-108951767D01*
X115372477Y-108956749D01*
X115503802Y-109144300D01*
X115665700Y-109306198D01*
X115670208Y-109309355D01*
X115670211Y-109309357D01*
X115748389Y-109364098D01*
X115853251Y-109437523D01*
X115858233Y-109439846D01*
X115858238Y-109439849D01*
X116054765Y-109531490D01*
X116060757Y-109534284D01*
X116066065Y-109535706D01*
X116066067Y-109535707D01*
X116276598Y-109592119D01*
X116276600Y-109592119D01*
X116281913Y-109593543D01*
X116510000Y-109613498D01*
X116738087Y-109593543D01*
X116743400Y-109592119D01*
X116743402Y-109592119D01*
X116953933Y-109535707D01*
X116953935Y-109535706D01*
X116959243Y-109534284D01*
X116965235Y-109531490D01*
X117161762Y-109439849D01*
X117161767Y-109439846D01*
X117166749Y-109437523D01*
X117271611Y-109364098D01*
X117349789Y-109309357D01*
X117349792Y-109309355D01*
X117354300Y-109306198D01*
X117516198Y-109144300D01*
X117647523Y-108956749D01*
X117649846Y-108951767D01*
X117649849Y-108951762D01*
X117741961Y-108754225D01*
X117741961Y-108754224D01*
X117744284Y-108749243D01*
X117764976Y-108672022D01*
X117802119Y-108533402D01*
X117802119Y-108533400D01*
X117803543Y-108528087D01*
X117823498Y-108300000D01*
X118476502Y-108300000D01*
X118496457Y-108528087D01*
X118497881Y-108533400D01*
X118497881Y-108533402D01*
X118535025Y-108672022D01*
X118555716Y-108749243D01*
X118558039Y-108754224D01*
X118558039Y-108754225D01*
X118650151Y-108951762D01*
X118650154Y-108951767D01*
X118652477Y-108956749D01*
X118783802Y-109144300D01*
X118945700Y-109306198D01*
X118950208Y-109309355D01*
X118950211Y-109309357D01*
X119028389Y-109364098D01*
X119133251Y-109437523D01*
X119138233Y-109439846D01*
X119138238Y-109439849D01*
X119334765Y-109531490D01*
X119340757Y-109534284D01*
X119346065Y-109535706D01*
X119346067Y-109535707D01*
X119556598Y-109592119D01*
X119556600Y-109592119D01*
X119561913Y-109593543D01*
X119790000Y-109613498D01*
X120018087Y-109593543D01*
X120023400Y-109592119D01*
X120023402Y-109592119D01*
X120233933Y-109535707D01*
X120233935Y-109535706D01*
X120239243Y-109534284D01*
X120245235Y-109531490D01*
X120441762Y-109439849D01*
X120441767Y-109439846D01*
X120446749Y-109437523D01*
X120551611Y-109364098D01*
X120629789Y-109309357D01*
X120629792Y-109309355D01*
X120634300Y-109306198D01*
X120796198Y-109144300D01*
X120927523Y-108956749D01*
X120929846Y-108951767D01*
X120929849Y-108951762D01*
X121021961Y-108754225D01*
X121021961Y-108754224D01*
X121024284Y-108749243D01*
X121044976Y-108672022D01*
X121082119Y-108533402D01*
X121082119Y-108533400D01*
X121083543Y-108528087D01*
X121103498Y-108300000D01*
X121083543Y-108071913D01*
X121059479Y-107982104D01*
X121025707Y-107856067D01*
X121025706Y-107856065D01*
X121024284Y-107850757D01*
X120989199Y-107775516D01*
X120929849Y-107648238D01*
X120929846Y-107648233D01*
X120927523Y-107643251D01*
X120854098Y-107538389D01*
X120799357Y-107460211D01*
X120799355Y-107460208D01*
X120796198Y-107455700D01*
X120634300Y-107293802D01*
X120629792Y-107290645D01*
X120629789Y-107290643D01*
X120526358Y-107218220D01*
X120446749Y-107162477D01*
X120441767Y-107160154D01*
X120441762Y-107160151D01*
X120244225Y-107068039D01*
X120244224Y-107068039D01*
X120239243Y-107065716D01*
X120233935Y-107064294D01*
X120233933Y-107064293D01*
X120023402Y-107007881D01*
X120023400Y-107007881D01*
X120018087Y-107006457D01*
X119790000Y-106986502D01*
X119561913Y-107006457D01*
X119556600Y-107007881D01*
X119556598Y-107007881D01*
X119346067Y-107064293D01*
X119346065Y-107064294D01*
X119340757Y-107065716D01*
X119335776Y-107068039D01*
X119335775Y-107068039D01*
X119138238Y-107160151D01*
X119138233Y-107160154D01*
X119133251Y-107162477D01*
X119053642Y-107218220D01*
X118950211Y-107290643D01*
X118950208Y-107290645D01*
X118945700Y-107293802D01*
X118783802Y-107455700D01*
X118780645Y-107460208D01*
X118780643Y-107460211D01*
X118725902Y-107538389D01*
X118652477Y-107643251D01*
X118650154Y-107648233D01*
X118650151Y-107648238D01*
X118590801Y-107775516D01*
X118555716Y-107850757D01*
X118554294Y-107856065D01*
X118554293Y-107856067D01*
X118520521Y-107982104D01*
X118496457Y-108071913D01*
X118476502Y-108300000D01*
X117823498Y-108300000D01*
X117803543Y-108071913D01*
X117779479Y-107982104D01*
X117745707Y-107856067D01*
X117745706Y-107856065D01*
X117744284Y-107850757D01*
X117709199Y-107775516D01*
X117649849Y-107648238D01*
X117649846Y-107648233D01*
X117647523Y-107643251D01*
X117574098Y-107538389D01*
X117519357Y-107460211D01*
X117519355Y-107460208D01*
X117516198Y-107455700D01*
X117354300Y-107293802D01*
X117349792Y-107290645D01*
X117349789Y-107290643D01*
X117246358Y-107218220D01*
X117166749Y-107162477D01*
X117161767Y-107160154D01*
X117161762Y-107160151D01*
X116964225Y-107068039D01*
X116964224Y-107068039D01*
X116959243Y-107065716D01*
X116953935Y-107064294D01*
X116953933Y-107064293D01*
X116743402Y-107007881D01*
X116743400Y-107007881D01*
X116738087Y-107006457D01*
X116510000Y-106986502D01*
X116281913Y-107006457D01*
X116276600Y-107007881D01*
X116276598Y-107007881D01*
X116066067Y-107064293D01*
X116066065Y-107064294D01*
X116060757Y-107065716D01*
X116055776Y-107068039D01*
X116055775Y-107068039D01*
X115858238Y-107160151D01*
X115858233Y-107160154D01*
X115853251Y-107162477D01*
X115773642Y-107218220D01*
X115670211Y-107290643D01*
X115670208Y-107290645D01*
X115665700Y-107293802D01*
X115503802Y-107455700D01*
X115500645Y-107460208D01*
X115500643Y-107460211D01*
X115445902Y-107538389D01*
X115372477Y-107643251D01*
X115370154Y-107648233D01*
X115370151Y-107648238D01*
X115310801Y-107775516D01*
X115275716Y-107850757D01*
X115274294Y-107856065D01*
X115274293Y-107856067D01*
X115240521Y-107982104D01*
X115216457Y-108071913D01*
X115196502Y-108300000D01*
X110202517Y-108300000D01*
X110202517Y-108294525D01*
X110183528Y-108077481D01*
X110181625Y-108066688D01*
X110125236Y-107856239D01*
X110121490Y-107845947D01*
X110029414Y-107648489D01*
X110023931Y-107638994D01*
X109987491Y-107586952D01*
X109977012Y-107578576D01*
X109963566Y-107585644D01*
X109262022Y-108287188D01*
X109254408Y-108301132D01*
X108524356Y-108301132D01*
X108525592Y-108298868D01*
X108525461Y-108297035D01*
X108521210Y-108290420D01*
X107815713Y-107584923D01*
X107803938Y-107578493D01*
X107791923Y-107587789D01*
X107756069Y-107638994D01*
X107750586Y-107648489D01*
X107658510Y-107845947D01*
X107654764Y-107856239D01*
X107598375Y-108066688D01*
X107596472Y-108077481D01*
X107577483Y-108294525D01*
X107577483Y-108305475D01*
X104858500Y-108305475D01*
X104858500Y-107212988D01*
X108168576Y-107212988D01*
X108175644Y-107226434D01*
X108877188Y-107927978D01*
X108891132Y-107935592D01*
X108892965Y-107935461D01*
X108899580Y-107931210D01*
X109605077Y-107225713D01*
X109611507Y-107213938D01*
X109602211Y-107201923D01*
X109551006Y-107166069D01*
X109541511Y-107160586D01*
X109344053Y-107068510D01*
X109333761Y-107064764D01*
X109123312Y-107008375D01*
X109112519Y-107006472D01*
X108895475Y-106987483D01*
X108884525Y-106987483D01*
X108667481Y-107006472D01*
X108656688Y-107008375D01*
X108446239Y-107064764D01*
X108435947Y-107068510D01*
X108238489Y-107160586D01*
X108228994Y-107166069D01*
X108176952Y-107202509D01*
X108168576Y-107212988D01*
X104858500Y-107212988D01*
X104858500Y-103526695D01*
X116957251Y-103526695D01*
X116957548Y-103531848D01*
X116957548Y-103531851D01*
X116963011Y-103626590D01*
X116970110Y-103749715D01*
X116971247Y-103754761D01*
X116971248Y-103754767D01*
X116992275Y-103848069D01*
X117019222Y-103967639D01*
X117103266Y-104174616D01*
X117105965Y-104179020D01*
X117194096Y-104322837D01*
X117219987Y-104365088D01*
X117366250Y-104533938D01*
X117538126Y-104676632D01*
X117731000Y-104789338D01*
X117939692Y-104869030D01*
X117944760Y-104870061D01*
X117944763Y-104870062D01*
X117983618Y-104877967D01*
X118158597Y-104913567D01*
X118163772Y-104913757D01*
X118163774Y-104913757D01*
X118376673Y-104921564D01*
X118376677Y-104921564D01*
X118381837Y-104921753D01*
X118386957Y-104921097D01*
X118386959Y-104921097D01*
X118598288Y-104894025D01*
X118598289Y-104894025D01*
X118603416Y-104893368D01*
X118611116Y-104891058D01*
X118812429Y-104830661D01*
X118812434Y-104830659D01*
X118817384Y-104829174D01*
X119017994Y-104730896D01*
X119199860Y-104601173D01*
X119358096Y-104443489D01*
X119417594Y-104360689D01*
X119485435Y-104266277D01*
X119488453Y-104262077D01*
X119505814Y-104226951D01*
X119585136Y-104066453D01*
X119585137Y-104066451D01*
X119587430Y-104061811D01*
X119652370Y-103848069D01*
X119681529Y-103626590D01*
X119681801Y-103615475D01*
X119683074Y-103563365D01*
X119683074Y-103563361D01*
X119683156Y-103560000D01*
X119664852Y-103337361D01*
X119610431Y-103120702D01*
X119521354Y-102915840D01*
X119459854Y-102820776D01*
X119402822Y-102732617D01*
X119402820Y-102732614D01*
X119400014Y-102728277D01*
X119249670Y-102563051D01*
X119245619Y-102559852D01*
X119245615Y-102559848D01*
X119078414Y-102427800D01*
X119078410Y-102427798D01*
X119074359Y-102424598D01*
X119033053Y-102401796D01*
X118983084Y-102351364D01*
X118968312Y-102281921D01*
X118993428Y-102215516D01*
X119020780Y-102188909D01*
X119064603Y-102157650D01*
X119199860Y-102061173D01*
X119358096Y-101903489D01*
X119417594Y-101820689D01*
X119485435Y-101726277D01*
X119488453Y-101722077D01*
X119587430Y-101521811D01*
X119652370Y-101308069D01*
X119681529Y-101086590D01*
X119683156Y-101020000D01*
X119664852Y-100797361D01*
X119610431Y-100580702D01*
X119521354Y-100375840D01*
X119460231Y-100281358D01*
X119402822Y-100192617D01*
X119402820Y-100192614D01*
X119400014Y-100188277D01*
X119249670Y-100023051D01*
X119245619Y-100019852D01*
X119245615Y-100019848D01*
X119078414Y-99887800D01*
X119078410Y-99887798D01*
X119074359Y-99884598D01*
X119032569Y-99861529D01*
X118982598Y-99811097D01*
X118967826Y-99741654D01*
X118992942Y-99675248D01*
X119020294Y-99648641D01*
X119195328Y-99523792D01*
X119203200Y-99517139D01*
X119354052Y-99366812D01*
X119360730Y-99358965D01*
X119485003Y-99186020D01*
X119490313Y-99177183D01*
X119584670Y-98986267D01*
X119588469Y-98976672D01*
X119650377Y-98772910D01*
X119652555Y-98762837D01*
X119653986Y-98751962D01*
X119651775Y-98737778D01*
X119638617Y-98734000D01*
X117003225Y-98734000D01*
X116989694Y-98737973D01*
X116988257Y-98747966D01*
X117018565Y-98882446D01*
X117021645Y-98892275D01*
X117101770Y-99089603D01*
X117106413Y-99098794D01*
X117217694Y-99280388D01*
X117223777Y-99288699D01*
X117363213Y-99449667D01*
X117370580Y-99456883D01*
X117534434Y-99592916D01*
X117542881Y-99598831D01*
X117611969Y-99639203D01*
X117660693Y-99690842D01*
X117673764Y-99760625D01*
X117647033Y-99826396D01*
X117606584Y-99859752D01*
X117593607Y-99866507D01*
X117589474Y-99869610D01*
X117589471Y-99869612D01*
X117565247Y-99887800D01*
X117414965Y-100000635D01*
X117411393Y-100004373D01*
X117279999Y-100141869D01*
X117260629Y-100162138D01*
X117134743Y-100346680D01*
X117040688Y-100549305D01*
X116980989Y-100764570D01*
X116957251Y-100986695D01*
X116957548Y-100991848D01*
X116957548Y-100991851D01*
X116963011Y-101086590D01*
X116970110Y-101209715D01*
X116971247Y-101214761D01*
X116971248Y-101214767D01*
X116991119Y-101302939D01*
X117019222Y-101427639D01*
X117103266Y-101634616D01*
X117219987Y-101825088D01*
X117366250Y-101993938D01*
X117538126Y-102136632D01*
X117608595Y-102177811D01*
X117611445Y-102179476D01*
X117660169Y-102231114D01*
X117673240Y-102300897D01*
X117646509Y-102366669D01*
X117606055Y-102400027D01*
X117593607Y-102406507D01*
X117589474Y-102409610D01*
X117589471Y-102409612D01*
X117419100Y-102537530D01*
X117414965Y-102540635D01*
X117260629Y-102702138D01*
X117257715Y-102706410D01*
X117257714Y-102706411D01*
X117211319Y-102774424D01*
X117134743Y-102886680D01*
X117103842Y-102953251D01*
X117051876Y-103065203D01*
X117040688Y-103089305D01*
X116980989Y-103304570D01*
X116957251Y-103526695D01*
X104858500Y-103526695D01*
X104858500Y-96838134D01*
X116961500Y-96838134D01*
X116968255Y-96900316D01*
X117019385Y-97036705D01*
X117106739Y-97153261D01*
X117223295Y-97240615D01*
X117231704Y-97243767D01*
X117231705Y-97243768D01*
X117340960Y-97284726D01*
X117397725Y-97327367D01*
X117422425Y-97393929D01*
X117407218Y-97463278D01*
X117387825Y-97489759D01*
X117264590Y-97618717D01*
X117258104Y-97626727D01*
X117138098Y-97802649D01*
X117133000Y-97811623D01*
X117043338Y-98004783D01*
X117039775Y-98014470D01*
X116984389Y-98214183D01*
X116985912Y-98222607D01*
X116998292Y-98226000D01*
X119638344Y-98226000D01*
X119651875Y-98222027D01*
X119653180Y-98212947D01*
X119611214Y-98045875D01*
X119607894Y-98036124D01*
X119522972Y-97840814D01*
X119518105Y-97831739D01*
X119402426Y-97652926D01*
X119396136Y-97644757D01*
X119252293Y-97486677D01*
X119221241Y-97422831D01*
X119229635Y-97352333D01*
X119274812Y-97297564D01*
X119301256Y-97283895D01*
X119408297Y-97243767D01*
X119416705Y-97240615D01*
X119533261Y-97153261D01*
X119620615Y-97036705D01*
X119671745Y-96900316D01*
X119678500Y-96838134D01*
X119678500Y-95041866D01*
X119671745Y-94979684D01*
X119620615Y-94843295D01*
X119533261Y-94726739D01*
X119416705Y-94639385D01*
X119280316Y-94588255D01*
X119218134Y-94581500D01*
X117421866Y-94581500D01*
X117359684Y-94588255D01*
X117223295Y-94639385D01*
X117106739Y-94726739D01*
X117019385Y-94843295D01*
X116968255Y-94979684D01*
X116961500Y-95041866D01*
X116961500Y-96838134D01*
X104858500Y-96838134D01*
X104858500Y-95107655D01*
X110739858Y-95107655D01*
X110775104Y-95366638D01*
X110776412Y-95371124D01*
X110776412Y-95371126D01*
X110796098Y-95438664D01*
X110848243Y-95617567D01*
X110957668Y-95854928D01*
X110960231Y-95858837D01*
X111098410Y-96069596D01*
X111098414Y-96069601D01*
X111100976Y-96073509D01*
X111275018Y-96268506D01*
X111475970Y-96435637D01*
X111479973Y-96438066D01*
X111695422Y-96568804D01*
X111695426Y-96568806D01*
X111699419Y-96571229D01*
X111940455Y-96672303D01*
X112193783Y-96736641D01*
X112198434Y-96737109D01*
X112198438Y-96737110D01*
X112391308Y-96756531D01*
X112410867Y-96758500D01*
X112566354Y-96758500D01*
X112568679Y-96758327D01*
X112568685Y-96758327D01*
X112756000Y-96744407D01*
X112756004Y-96744406D01*
X112760652Y-96744061D01*
X112765200Y-96743032D01*
X112765206Y-96743031D01*
X112951601Y-96700853D01*
X113015577Y-96686377D01*
X113051769Y-96672303D01*
X113254824Y-96593340D01*
X113254827Y-96593339D01*
X113259177Y-96591647D01*
X113486098Y-96461951D01*
X113691357Y-96300138D01*
X113870443Y-96109763D01*
X114019424Y-95895009D01*
X114135025Y-95660593D01*
X114214707Y-95411665D01*
X114256721Y-95153693D01*
X114258334Y-95030467D01*
X114260081Y-94897022D01*
X114260081Y-94897019D01*
X114260142Y-94892345D01*
X114224896Y-94633362D01*
X114210473Y-94583877D01*
X114153068Y-94386932D01*
X114151757Y-94382433D01*
X114042332Y-94145072D01*
X114009519Y-94095024D01*
X113901590Y-93930404D01*
X113901586Y-93930399D01*
X113899024Y-93926491D01*
X113724982Y-93731494D01*
X113524030Y-93564363D01*
X113476844Y-93535730D01*
X113304578Y-93431196D01*
X113304574Y-93431194D01*
X113300581Y-93428771D01*
X113059545Y-93327697D01*
X112806217Y-93263359D01*
X112801566Y-93262891D01*
X112801562Y-93262890D01*
X112592271Y-93241816D01*
X112589133Y-93241500D01*
X112433646Y-93241500D01*
X112431321Y-93241673D01*
X112431315Y-93241673D01*
X112244000Y-93255593D01*
X112243996Y-93255594D01*
X112239348Y-93255939D01*
X112234800Y-93256968D01*
X112234794Y-93256969D01*
X112048399Y-93299147D01*
X111984423Y-93313623D01*
X111980071Y-93315315D01*
X111980069Y-93315316D01*
X111745176Y-93406660D01*
X111745173Y-93406661D01*
X111740823Y-93408353D01*
X111513902Y-93538049D01*
X111308643Y-93699862D01*
X111129557Y-93890237D01*
X110980576Y-94104991D01*
X110864975Y-94339407D01*
X110785293Y-94588335D01*
X110743279Y-94846307D01*
X110742737Y-94887711D01*
X110740366Y-95068879D01*
X110739858Y-95107655D01*
X104858500Y-95107655D01*
X104858500Y-85984500D01*
X104878502Y-85916379D01*
X104932158Y-85869886D01*
X104984500Y-85858500D01*
X192015500Y-85858500D01*
X192083621Y-85878502D01*
G37*
%TD.AperFunction*%
%TD*%
M02*
