%TF.GenerationSoftware,KiCad,Pcbnew,6.0.7*%
%TF.CreationDate,2022-11-09T15:14:02-05:00*%
%TF.ProjectId,Actuator Driver,41637475-6174-46f7-9220-447269766572,rev?*%
%TF.SameCoordinates,Original*%
%TF.FileFunction,Soldermask,Bot*%
%TF.FilePolarity,Negative*%
%FSLAX46Y46*%
G04 Gerber Fmt 4.6, Leading zero omitted, Abs format (unit mm)*
G04 Created by KiCad (PCBNEW 6.0.7) date 2022-11-09 15:14:02*
%MOMM*%
%LPD*%
G01*
G04 APERTURE LIST*
G04 Aperture macros list*
%AMRoundRect*
0 Rectangle with rounded corners*
0 $1 Rounding radius*
0 $2 $3 $4 $5 $6 $7 $8 $9 X,Y pos of 4 corners*
0 Add a 4 corners polygon primitive as box body*
4,1,4,$2,$3,$4,$5,$6,$7,$8,$9,$2,$3,0*
0 Add four circle primitives for the rounded corners*
1,1,$1+$1,$2,$3*
1,1,$1+$1,$4,$5*
1,1,$1+$1,$6,$7*
1,1,$1+$1,$8,$9*
0 Add four rect primitives between the rounded corners*
20,1,$1+$1,$2,$3,$4,$5,0*
20,1,$1+$1,$4,$5,$6,$7,0*
20,1,$1+$1,$6,$7,$8,$9,0*
20,1,$1+$1,$8,$9,$2,$3,0*%
G04 Aperture macros list end*
%ADD10C,2.500000*%
%ADD11C,1.600000*%
%ADD12O,1.600000X1.600000*%
%ADD13C,1.400000*%
%ADD14R,3.500000X3.500000*%
%ADD15C,3.500000*%
%ADD16R,1.700000X1.700000*%
%ADD17O,1.700000X1.700000*%
%ADD18RoundRect,0.250001X-0.799999X-0.799999X0.799999X-0.799999X0.799999X0.799999X-0.799999X0.799999X0*%
%ADD19C,2.100000*%
%ADD20RoundRect,0.250000X1.750000X1.750000X-1.750000X1.750000X-1.750000X-1.750000X1.750000X-1.750000X0*%
%ADD21C,4.000000*%
%ADD22R,1.600000X1.600000*%
G04 APERTURE END LIST*
D10*
%TO.C,REF\u002A\u002A*%
X112500000Y-115000000D03*
%TD*%
D11*
%TO.C,R5*%
X119790000Y-108300000D03*
D12*
X127410000Y-108300000D03*
%TD*%
D13*
%TO.C,PWRIN*%
X107500000Y-131075000D03*
X118500000Y-131075000D03*
D14*
X110500000Y-121075000D03*
D15*
X115500000Y-121075000D03*
%TD*%
D11*
%TO.C,R6*%
X108890000Y-108300000D03*
D12*
X116510000Y-108300000D03*
%TD*%
D16*
%TO.C,Transmitter*%
X116500000Y-99075000D03*
D17*
X116500000Y-101615000D03*
X116500000Y-104155000D03*
%TD*%
D10*
%TO.C,REF\u002A\u002A*%
X182500000Y-95000000D03*
%TD*%
D18*
%TO.C,RV1*%
X180900000Y-131750000D03*
D19*
X185500000Y-131750000D03*
X190100000Y-131750000D03*
%TD*%
D20*
%TO.C,M1*%
X153850000Y-129750000D03*
D21*
X146650000Y-129750000D03*
%TD*%
D22*
%TO.C,A1*%
X127450000Y-103610000D03*
D12*
X129990000Y-103610000D03*
X132530000Y-103610000D03*
X135070000Y-103610000D03*
X137610000Y-103610000D03*
X140150000Y-103610000D03*
X142690000Y-103610000D03*
X145230000Y-103610000D03*
X147770000Y-103610000D03*
X150310000Y-103610000D03*
X152850000Y-103610000D03*
X155390000Y-103610000D03*
X157930000Y-103610000D03*
X160470000Y-103610000D03*
X163010000Y-103610000D03*
X163010000Y-88370000D03*
X160470000Y-88370000D03*
X157930000Y-88370000D03*
X155390000Y-88370000D03*
X152850000Y-88370000D03*
X150310000Y-88370000D03*
X147770000Y-88370000D03*
X145230000Y-88370000D03*
X142690000Y-88370000D03*
X140150000Y-88370000D03*
X137610000Y-88370000D03*
X135070000Y-88370000D03*
X132530000Y-88370000D03*
X129990000Y-88370000D03*
X127450000Y-88370000D03*
%TD*%
D10*
%TO.C,REF\u002A\u002A*%
X112500000Y-95000000D03*
%TD*%
%TO.C,REF\u002A\u002A*%
X175000000Y-117500000D03*
%TD*%
M02*
