%TF.GenerationSoftware,KiCad,Pcbnew,6.0.7*%
%TF.CreationDate,2023-02-15T11:14:22-05:00*%
%TF.ProjectId,Actuator Driver,41637475-6174-46f7-9220-447269766572,rev?*%
%TF.SameCoordinates,Original*%
%TF.FileFunction,Paste,Top*%
%TF.FilePolarity,Positive*%
%FSLAX46Y46*%
G04 Gerber Fmt 4.6, Leading zero omitted, Abs format (unit mm)*
G04 Created by KiCad (PCBNEW 6.0.7) date 2023-02-15 11:14:22*
%MOMM*%
%LPD*%
G01*
G04 APERTURE LIST*
G04 Aperture macros list*
%AMRoundRect*
0 Rectangle with rounded corners*
0 $1 Rounding radius*
0 $2 $3 $4 $5 $6 $7 $8 $9 X,Y pos of 4 corners*
0 Add a 4 corners polygon primitive as box body*
4,1,4,$2,$3,$4,$5,$6,$7,$8,$9,$2,$3,0*
0 Add four circle primitives for the rounded corners*
1,1,$1+$1,$2,$3*
1,1,$1+$1,$4,$5*
1,1,$1+$1,$6,$7*
1,1,$1+$1,$8,$9*
0 Add four rect primitives between the rounded corners*
20,1,$1+$1,$2,$3,$4,$5,0*
20,1,$1+$1,$4,$5,$6,$7,0*
20,1,$1+$1,$6,$7,$8,$9,0*
20,1,$1+$1,$8,$9,$2,$3,0*%
G04 Aperture macros list end*
%ADD10R,3.050000X2.750000*%
%ADD11R,2.200000X1.200000*%
%ADD12RoundRect,0.250000X0.625000X-0.400000X0.625000X0.400000X-0.625000X0.400000X-0.625000X-0.400000X0*%
%ADD13R,3.300000X2.500000*%
%ADD14R,2.500000X3.300000*%
%ADD15RoundRect,0.250000X-0.625000X0.400000X-0.625000X-0.400000X0.625000X-0.400000X0.625000X0.400000X0*%
%ADD16R,2.750000X3.050000*%
%ADD17R,1.200000X2.200000*%
%ADD18RoundRect,0.250000X0.400000X0.625000X-0.400000X0.625000X-0.400000X-0.625000X0.400000X-0.625000X0*%
%ADD19R,0.782500X0.355600*%
G04 APERTURE END LIST*
D10*
%TO.C,Q3*%
X158975000Y-128225000D03*
X162325000Y-128225000D03*
X158975000Y-131275000D03*
X162325000Y-131275000D03*
D11*
X166950000Y-132030000D03*
X166950000Y-127470000D03*
%TD*%
D12*
%TO.C,R1*%
X149750000Y-124300000D03*
X149750000Y-121200000D03*
%TD*%
D13*
%TO.C,D1*%
X162500000Y-117350000D03*
X162500000Y-124150000D03*
%TD*%
D14*
%TO.C,D3*%
X170350000Y-130000000D03*
X177150000Y-130000000D03*
%TD*%
D13*
%TO.C,D2*%
X144750000Y-117100000D03*
X144750000Y-123900000D03*
%TD*%
D15*
%TO.C,R2*%
X132250000Y-117950000D03*
X132250000Y-121050000D03*
%TD*%
%TO.C,R3*%
X167500000Y-121700000D03*
X167500000Y-124800000D03*
%TD*%
D16*
%TO.C,Q2*%
X135725000Y-119575000D03*
X138775000Y-116225000D03*
X138775000Y-119575000D03*
X135725000Y-116225000D03*
D17*
X134970000Y-124200000D03*
X139530000Y-124200000D03*
%TD*%
D18*
%TO.C,R4*%
X131050000Y-123750000D03*
X127950000Y-123750000D03*
%TD*%
D14*
%TO.C,D4*%
X130400000Y-129750000D03*
X123600000Y-129750000D03*
%TD*%
D16*
%TO.C,Q1*%
X153225000Y-116225000D03*
X156275000Y-116225000D03*
X156275000Y-119575000D03*
X153225000Y-119575000D03*
D17*
X152470000Y-124200000D03*
X157030000Y-124200000D03*
%TD*%
D10*
%TO.C,Q4*%
X141775000Y-131275000D03*
X141775000Y-128225000D03*
X138425000Y-131275000D03*
X138425000Y-128225000D03*
D11*
X133800000Y-127470000D03*
X133800000Y-132030000D03*
%TD*%
D19*
%TO.C,U1*%
X138064349Y-110649999D03*
X138064349Y-110000000D03*
X138064349Y-109350001D03*
X135935651Y-109350001D03*
X135935651Y-110000000D03*
X135935651Y-110649999D03*
%TD*%
M02*
