%TF.GenerationSoftware,KiCad,Pcbnew,6.0.7*%
%TF.CreationDate,2023-02-15T11:14:22-05:00*%
%TF.ProjectId,Actuator Driver,41637475-6174-46f7-9220-447269766572,rev?*%
%TF.SameCoordinates,Original*%
%TF.FileFunction,Legend,Top*%
%TF.FilePolarity,Positive*%
%FSLAX46Y46*%
G04 Gerber Fmt 4.6, Leading zero omitted, Abs format (unit mm)*
G04 Created by KiCad (PCBNEW 6.0.7) date 2023-02-15 11:14:22*
%MOMM*%
%LPD*%
G01*
G04 APERTURE LIST*
%ADD10C,0.150000*%
%ADD11C,0.120000*%
G04 APERTURE END LIST*
D10*
X189488095Y-133500000D02*
X189392857Y-133452380D01*
X189250000Y-133452380D01*
X189107142Y-133500000D01*
X189011904Y-133595238D01*
X188964285Y-133690476D01*
X188916666Y-133880952D01*
X188916666Y-134023809D01*
X188964285Y-134214285D01*
X189011904Y-134309523D01*
X189107142Y-134404761D01*
X189250000Y-134452380D01*
X189345238Y-134452380D01*
X189488095Y-134404761D01*
X189535714Y-134357142D01*
X189535714Y-134023809D01*
X189345238Y-134023809D01*
X189964285Y-134452380D02*
X189964285Y-133452380D01*
X190535714Y-134452380D01*
X190535714Y-133452380D01*
X191011904Y-134452380D02*
X191011904Y-133452380D01*
X191250000Y-133452380D01*
X191392857Y-133500000D01*
X191488095Y-133595238D01*
X191535714Y-133690476D01*
X191583333Y-133880952D01*
X191583333Y-134023809D01*
X191535714Y-134214285D01*
X191488095Y-134309523D01*
X191392857Y-134404761D01*
X191250000Y-134452380D01*
X191011904Y-134452380D01*
X120984761Y-104042380D02*
X120651428Y-103566190D01*
X120413333Y-104042380D02*
X120413333Y-103042380D01*
X120794285Y-103042380D01*
X120889523Y-103090000D01*
X120937142Y-103137619D01*
X120984761Y-103232857D01*
X120984761Y-103375714D01*
X120937142Y-103470952D01*
X120889523Y-103518571D01*
X120794285Y-103566190D01*
X120413333Y-103566190D01*
X121318095Y-104042380D02*
X121841904Y-103375714D01*
X121318095Y-103375714D02*
X121841904Y-104042380D01*
X183976190Y-133452380D02*
X184309523Y-134452380D01*
X184642857Y-133452380D01*
X185119047Y-134452380D02*
X185023809Y-134404761D01*
X184976190Y-134357142D01*
X184928571Y-134261904D01*
X184928571Y-133976190D01*
X184976190Y-133880952D01*
X185023809Y-133833333D01*
X185119047Y-133785714D01*
X185261904Y-133785714D01*
X185357142Y-133833333D01*
X185404761Y-133880952D01*
X185452380Y-133976190D01*
X185452380Y-134261904D01*
X185404761Y-134357142D01*
X185357142Y-134404761D01*
X185261904Y-134452380D01*
X185119047Y-134452380D01*
X186309523Y-133785714D02*
X186309523Y-134452380D01*
X185880952Y-133785714D02*
X185880952Y-134309523D01*
X185928571Y-134404761D01*
X186023809Y-134452380D01*
X186166666Y-134452380D01*
X186261904Y-134404761D01*
X186309523Y-134357142D01*
X186642857Y-133785714D02*
X187023809Y-133785714D01*
X186785714Y-133452380D02*
X186785714Y-134309523D01*
X186833333Y-134404761D01*
X186928571Y-134452380D01*
X187023809Y-134452380D01*
X120319523Y-100532380D02*
X120890952Y-100532380D01*
X120605238Y-101532380D02*
X120605238Y-100532380D01*
X121129047Y-101532380D02*
X121652857Y-100865714D01*
X121129047Y-100865714D02*
X121652857Y-101532380D01*
X179976190Y-133452380D02*
X180309523Y-134452380D01*
X180642857Y-133452380D01*
X180976190Y-134452380D02*
X180976190Y-133785714D01*
X180976190Y-133452380D02*
X180928571Y-133500000D01*
X180976190Y-133547619D01*
X181023809Y-133500000D01*
X180976190Y-133452380D01*
X180976190Y-133547619D01*
X181452380Y-133785714D02*
X181452380Y-134452380D01*
X181452380Y-133880952D02*
X181500000Y-133833333D01*
X181595238Y-133785714D01*
X181738095Y-133785714D01*
X181833333Y-133833333D01*
X181880952Y-133928571D01*
X181880952Y-134452380D01*
X120848095Y-97930000D02*
X120752857Y-97882380D01*
X120610000Y-97882380D01*
X120467142Y-97930000D01*
X120371904Y-98025238D01*
X120324285Y-98120476D01*
X120276666Y-98310952D01*
X120276666Y-98453809D01*
X120324285Y-98644285D01*
X120371904Y-98739523D01*
X120467142Y-98834761D01*
X120610000Y-98882380D01*
X120705238Y-98882380D01*
X120848095Y-98834761D01*
X120895714Y-98787142D01*
X120895714Y-98453809D01*
X120705238Y-98453809D01*
X121324285Y-98882380D02*
X121324285Y-97882380D01*
X121895714Y-98882380D01*
X121895714Y-97882380D01*
X122371904Y-98882380D02*
X122371904Y-97882380D01*
X122610000Y-97882380D01*
X122752857Y-97930000D01*
X122848095Y-98025238D01*
X122895714Y-98120476D01*
X122943333Y-98310952D01*
X122943333Y-98453809D01*
X122895714Y-98644285D01*
X122848095Y-98739523D01*
X122752857Y-98834761D01*
X122610000Y-98882380D01*
X122371904Y-98882380D01*
X120376190Y-95342380D02*
X120709523Y-96342380D01*
X121042857Y-95342380D01*
X121376190Y-96342380D02*
X121376190Y-95675714D01*
X121376190Y-95342380D02*
X121328571Y-95390000D01*
X121376190Y-95437619D01*
X121423809Y-95390000D01*
X121376190Y-95342380D01*
X121376190Y-95437619D01*
X121852380Y-95675714D02*
X121852380Y-96342380D01*
X121852380Y-95770952D02*
X121900000Y-95723333D01*
X121995238Y-95675714D01*
X122138095Y-95675714D01*
X122233333Y-95723333D01*
X122280952Y-95818571D01*
X122280952Y-96342380D01*
%TO.C,Q3*%
X162654761Y-134797619D02*
X162559523Y-134750000D01*
X162464285Y-134654761D01*
X162321428Y-134511904D01*
X162226190Y-134464285D01*
X162130952Y-134464285D01*
X162178571Y-134702380D02*
X162083333Y-134654761D01*
X161988095Y-134559523D01*
X161940476Y-134369047D01*
X161940476Y-134035714D01*
X161988095Y-133845238D01*
X162083333Y-133750000D01*
X162178571Y-133702380D01*
X162369047Y-133702380D01*
X162464285Y-133750000D01*
X162559523Y-133845238D01*
X162607142Y-134035714D01*
X162607142Y-134369047D01*
X162559523Y-134559523D01*
X162464285Y-134654761D01*
X162369047Y-134702380D01*
X162178571Y-134702380D01*
X162940476Y-133702380D02*
X163559523Y-133702380D01*
X163226190Y-134083333D01*
X163369047Y-134083333D01*
X163464285Y-134130952D01*
X163511904Y-134178571D01*
X163559523Y-134273809D01*
X163559523Y-134511904D01*
X163511904Y-134607142D01*
X163464285Y-134654761D01*
X163369047Y-134702380D01*
X163083333Y-134702380D01*
X162988095Y-134654761D01*
X162940476Y-134607142D01*
%TO.C,R5*%
X123433333Y-106382380D02*
X123100000Y-105906190D01*
X122861904Y-106382380D02*
X122861904Y-105382380D01*
X123242857Y-105382380D01*
X123338095Y-105430000D01*
X123385714Y-105477619D01*
X123433333Y-105572857D01*
X123433333Y-105715714D01*
X123385714Y-105810952D01*
X123338095Y-105858571D01*
X123242857Y-105906190D01*
X122861904Y-105906190D01*
X124338095Y-105382380D02*
X123861904Y-105382380D01*
X123814285Y-105858571D01*
X123861904Y-105810952D01*
X123957142Y-105763333D01*
X124195238Y-105763333D01*
X124290476Y-105810952D01*
X124338095Y-105858571D01*
X124385714Y-105953809D01*
X124385714Y-106191904D01*
X124338095Y-106287142D01*
X124290476Y-106334761D01*
X124195238Y-106382380D01*
X123957142Y-106382380D01*
X123861904Y-106334761D01*
X123814285Y-106287142D01*
%TO.C,R1*%
X149583333Y-119952380D02*
X149250000Y-119476190D01*
X149011904Y-119952380D02*
X149011904Y-118952380D01*
X149392857Y-118952380D01*
X149488095Y-119000000D01*
X149535714Y-119047619D01*
X149583333Y-119142857D01*
X149583333Y-119285714D01*
X149535714Y-119380952D01*
X149488095Y-119428571D01*
X149392857Y-119476190D01*
X149011904Y-119476190D01*
X150535714Y-119952380D02*
X149964285Y-119952380D01*
X150250000Y-119952380D02*
X150250000Y-118952380D01*
X150154761Y-119095238D01*
X150059523Y-119190476D01*
X149964285Y-119238095D01*
%TO.C,D1*%
X161761904Y-115702380D02*
X161761904Y-114702380D01*
X162000000Y-114702380D01*
X162142857Y-114750000D01*
X162238095Y-114845238D01*
X162285714Y-114940476D01*
X162333333Y-115130952D01*
X162333333Y-115273809D01*
X162285714Y-115464285D01*
X162238095Y-115559523D01*
X162142857Y-115654761D01*
X162000000Y-115702380D01*
X161761904Y-115702380D01*
X163285714Y-115702380D02*
X162714285Y-115702380D01*
X163000000Y-115702380D02*
X163000000Y-114702380D01*
X162904761Y-114845238D01*
X162809523Y-114940476D01*
X162714285Y-114988095D01*
%TO.C,D3*%
X173011904Y-126352380D02*
X173011904Y-125352380D01*
X173250000Y-125352380D01*
X173392857Y-125400000D01*
X173488095Y-125495238D01*
X173535714Y-125590476D01*
X173583333Y-125780952D01*
X173583333Y-125923809D01*
X173535714Y-126114285D01*
X173488095Y-126209523D01*
X173392857Y-126304761D01*
X173250000Y-126352380D01*
X173011904Y-126352380D01*
X173916666Y-125352380D02*
X174535714Y-125352380D01*
X174202380Y-125733333D01*
X174345238Y-125733333D01*
X174440476Y-125780952D01*
X174488095Y-125828571D01*
X174535714Y-125923809D01*
X174535714Y-126161904D01*
X174488095Y-126257142D01*
X174440476Y-126304761D01*
X174345238Y-126352380D01*
X174059523Y-126352380D01*
X173964285Y-126304761D01*
X173916666Y-126257142D01*
%TO.C,PWRIN*%
X110904761Y-118452380D02*
X110904761Y-117452380D01*
X111285714Y-117452380D01*
X111380952Y-117500000D01*
X111428571Y-117547619D01*
X111476190Y-117642857D01*
X111476190Y-117785714D01*
X111428571Y-117880952D01*
X111380952Y-117928571D01*
X111285714Y-117976190D01*
X110904761Y-117976190D01*
X111809523Y-117452380D02*
X112047619Y-118452380D01*
X112238095Y-117738095D01*
X112428571Y-118452380D01*
X112666666Y-117452380D01*
X113619047Y-118452380D02*
X113285714Y-117976190D01*
X113047619Y-118452380D02*
X113047619Y-117452380D01*
X113428571Y-117452380D01*
X113523809Y-117500000D01*
X113571428Y-117547619D01*
X113619047Y-117642857D01*
X113619047Y-117785714D01*
X113571428Y-117880952D01*
X113523809Y-117928571D01*
X113428571Y-117976190D01*
X113047619Y-117976190D01*
X114047619Y-118452380D02*
X114047619Y-117452380D01*
X114523809Y-118452380D02*
X114523809Y-117452380D01*
X115095238Y-118452380D01*
X115095238Y-117452380D01*
X106928571Y-121182142D02*
X108071428Y-121182142D01*
X117928571Y-121182142D02*
X119071428Y-121182142D01*
X118500000Y-121753571D02*
X118500000Y-120610714D01*
%TO.C,D2*%
X144011904Y-115202380D02*
X144011904Y-114202380D01*
X144250000Y-114202380D01*
X144392857Y-114250000D01*
X144488095Y-114345238D01*
X144535714Y-114440476D01*
X144583333Y-114630952D01*
X144583333Y-114773809D01*
X144535714Y-114964285D01*
X144488095Y-115059523D01*
X144392857Y-115154761D01*
X144250000Y-115202380D01*
X144011904Y-115202380D01*
X144964285Y-114297619D02*
X145011904Y-114250000D01*
X145107142Y-114202380D01*
X145345238Y-114202380D01*
X145440476Y-114250000D01*
X145488095Y-114297619D01*
X145535714Y-114392857D01*
X145535714Y-114488095D01*
X145488095Y-114630952D01*
X144916666Y-115202380D01*
X145535714Y-115202380D01*
%TO.C,R6*%
X112533333Y-106382380D02*
X112200000Y-105906190D01*
X111961904Y-106382380D02*
X111961904Y-105382380D01*
X112342857Y-105382380D01*
X112438095Y-105430000D01*
X112485714Y-105477619D01*
X112533333Y-105572857D01*
X112533333Y-105715714D01*
X112485714Y-105810952D01*
X112438095Y-105858571D01*
X112342857Y-105906190D01*
X111961904Y-105906190D01*
X113390476Y-105382380D02*
X113200000Y-105382380D01*
X113104761Y-105430000D01*
X113057142Y-105477619D01*
X112961904Y-105620476D01*
X112914285Y-105810952D01*
X112914285Y-106191904D01*
X112961904Y-106287142D01*
X113009523Y-106334761D01*
X113104761Y-106382380D01*
X113295238Y-106382380D01*
X113390476Y-106334761D01*
X113438095Y-106287142D01*
X113485714Y-106191904D01*
X113485714Y-105953809D01*
X113438095Y-105858571D01*
X113390476Y-105810952D01*
X113295238Y-105763333D01*
X113104761Y-105763333D01*
X113009523Y-105810952D01*
X112961904Y-105858571D01*
X112914285Y-105953809D01*
%TO.C,R2*%
X132083333Y-116952380D02*
X131750000Y-116476190D01*
X131511904Y-116952380D02*
X131511904Y-115952380D01*
X131892857Y-115952380D01*
X131988095Y-116000000D01*
X132035714Y-116047619D01*
X132083333Y-116142857D01*
X132083333Y-116285714D01*
X132035714Y-116380952D01*
X131988095Y-116428571D01*
X131892857Y-116476190D01*
X131511904Y-116476190D01*
X132464285Y-116047619D02*
X132511904Y-116000000D01*
X132607142Y-115952380D01*
X132845238Y-115952380D01*
X132940476Y-116000000D01*
X132988095Y-116047619D01*
X133035714Y-116142857D01*
X133035714Y-116238095D01*
X132988095Y-116380952D01*
X132416666Y-116952380D01*
X133035714Y-116952380D01*
%TO.C,Transmitter*%
X114200952Y-93062380D02*
X114772380Y-93062380D01*
X114486666Y-94062380D02*
X114486666Y-93062380D01*
X115105714Y-94062380D02*
X115105714Y-93395714D01*
X115105714Y-93586190D02*
X115153333Y-93490952D01*
X115200952Y-93443333D01*
X115296190Y-93395714D01*
X115391428Y-93395714D01*
X116153333Y-94062380D02*
X116153333Y-93538571D01*
X116105714Y-93443333D01*
X116010476Y-93395714D01*
X115820000Y-93395714D01*
X115724761Y-93443333D01*
X116153333Y-94014761D02*
X116058095Y-94062380D01*
X115820000Y-94062380D01*
X115724761Y-94014761D01*
X115677142Y-93919523D01*
X115677142Y-93824285D01*
X115724761Y-93729047D01*
X115820000Y-93681428D01*
X116058095Y-93681428D01*
X116153333Y-93633809D01*
X116629523Y-93395714D02*
X116629523Y-94062380D01*
X116629523Y-93490952D02*
X116677142Y-93443333D01*
X116772380Y-93395714D01*
X116915238Y-93395714D01*
X117010476Y-93443333D01*
X117058095Y-93538571D01*
X117058095Y-94062380D01*
X117486666Y-94014761D02*
X117581904Y-94062380D01*
X117772380Y-94062380D01*
X117867619Y-94014761D01*
X117915238Y-93919523D01*
X117915238Y-93871904D01*
X117867619Y-93776666D01*
X117772380Y-93729047D01*
X117629523Y-93729047D01*
X117534285Y-93681428D01*
X117486666Y-93586190D01*
X117486666Y-93538571D01*
X117534285Y-93443333D01*
X117629523Y-93395714D01*
X117772380Y-93395714D01*
X117867619Y-93443333D01*
X118343809Y-94062380D02*
X118343809Y-93395714D01*
X118343809Y-93490952D02*
X118391428Y-93443333D01*
X118486666Y-93395714D01*
X118629523Y-93395714D01*
X118724761Y-93443333D01*
X118772380Y-93538571D01*
X118772380Y-94062380D01*
X118772380Y-93538571D02*
X118820000Y-93443333D01*
X118915238Y-93395714D01*
X119058095Y-93395714D01*
X119153333Y-93443333D01*
X119200952Y-93538571D01*
X119200952Y-94062380D01*
X119677142Y-94062380D02*
X119677142Y-93395714D01*
X119677142Y-93062380D02*
X119629523Y-93110000D01*
X119677142Y-93157619D01*
X119724761Y-93110000D01*
X119677142Y-93062380D01*
X119677142Y-93157619D01*
X120010476Y-93395714D02*
X120391428Y-93395714D01*
X120153333Y-93062380D02*
X120153333Y-93919523D01*
X120200952Y-94014761D01*
X120296190Y-94062380D01*
X120391428Y-94062380D01*
X120581904Y-93395714D02*
X120962857Y-93395714D01*
X120724761Y-93062380D02*
X120724761Y-93919523D01*
X120772380Y-94014761D01*
X120867619Y-94062380D01*
X120962857Y-94062380D01*
X121677142Y-94014761D02*
X121581904Y-94062380D01*
X121391428Y-94062380D01*
X121296190Y-94014761D01*
X121248571Y-93919523D01*
X121248571Y-93538571D01*
X121296190Y-93443333D01*
X121391428Y-93395714D01*
X121581904Y-93395714D01*
X121677142Y-93443333D01*
X121724761Y-93538571D01*
X121724761Y-93633809D01*
X121248571Y-93729047D01*
X122153333Y-94062380D02*
X122153333Y-93395714D01*
X122153333Y-93586190D02*
X122200952Y-93490952D01*
X122248571Y-93443333D01*
X122343809Y-93395714D01*
X122439047Y-93395714D01*
%TO.C,R3*%
X169772380Y-123416666D02*
X169296190Y-123750000D01*
X169772380Y-123988095D02*
X168772380Y-123988095D01*
X168772380Y-123607142D01*
X168820000Y-123511904D01*
X168867619Y-123464285D01*
X168962857Y-123416666D01*
X169105714Y-123416666D01*
X169200952Y-123464285D01*
X169248571Y-123511904D01*
X169296190Y-123607142D01*
X169296190Y-123988095D01*
X168772380Y-123083333D02*
X168772380Y-122464285D01*
X169153333Y-122797619D01*
X169153333Y-122654761D01*
X169200952Y-122559523D01*
X169248571Y-122511904D01*
X169343809Y-122464285D01*
X169581904Y-122464285D01*
X169677142Y-122511904D01*
X169724761Y-122559523D01*
X169772380Y-122654761D01*
X169772380Y-122940476D01*
X169724761Y-123035714D01*
X169677142Y-123083333D01*
%TO.C,RV1*%
X182204761Y-129852380D02*
X181871428Y-129376190D01*
X181633333Y-129852380D02*
X181633333Y-128852380D01*
X182014285Y-128852380D01*
X182109523Y-128900000D01*
X182157142Y-128947619D01*
X182204761Y-129042857D01*
X182204761Y-129185714D01*
X182157142Y-129280952D01*
X182109523Y-129328571D01*
X182014285Y-129376190D01*
X181633333Y-129376190D01*
X182490476Y-128852380D02*
X182823809Y-129852380D01*
X183157142Y-128852380D01*
X184014285Y-129852380D02*
X183442857Y-129852380D01*
X183728571Y-129852380D02*
X183728571Y-128852380D01*
X183633333Y-128995238D01*
X183538095Y-129090476D01*
X183442857Y-129138095D01*
%TO.C,M1*%
X149440476Y-133402380D02*
X149440476Y-132402380D01*
X149773809Y-133116666D01*
X150107142Y-132402380D01*
X150107142Y-133402380D01*
X151107142Y-133402380D02*
X150535714Y-133402380D01*
X150821428Y-133402380D02*
X150821428Y-132402380D01*
X150726190Y-132545238D01*
X150630952Y-132640476D01*
X150535714Y-132688095D01*
%TO.C,A1*%
X124966666Y-96714285D02*
X124966666Y-96238095D01*
X125252380Y-96809523D02*
X124252380Y-96476190D01*
X125252380Y-96142857D01*
X125252380Y-95285714D02*
X125252380Y-95857142D01*
X125252380Y-95571428D02*
X124252380Y-95571428D01*
X124395238Y-95666666D01*
X124490476Y-95761904D01*
X124538095Y-95857142D01*
%TO.C,Q2*%
X137154761Y-114047619D02*
X137059523Y-114000000D01*
X136964285Y-113904761D01*
X136821428Y-113761904D01*
X136726190Y-113714285D01*
X136630952Y-113714285D01*
X136678571Y-113952380D02*
X136583333Y-113904761D01*
X136488095Y-113809523D01*
X136440476Y-113619047D01*
X136440476Y-113285714D01*
X136488095Y-113095238D01*
X136583333Y-113000000D01*
X136678571Y-112952380D01*
X136869047Y-112952380D01*
X136964285Y-113000000D01*
X137059523Y-113095238D01*
X137107142Y-113285714D01*
X137107142Y-113619047D01*
X137059523Y-113809523D01*
X136964285Y-113904761D01*
X136869047Y-113952380D01*
X136678571Y-113952380D01*
X137488095Y-113047619D02*
X137535714Y-113000000D01*
X137630952Y-112952380D01*
X137869047Y-112952380D01*
X137964285Y-113000000D01*
X138011904Y-113047619D01*
X138059523Y-113142857D01*
X138059523Y-113238095D01*
X138011904Y-113380952D01*
X137440476Y-113952380D01*
X138059523Y-113952380D01*
%TO.C,R4*%
X129333333Y-122452380D02*
X129000000Y-121976190D01*
X128761904Y-122452380D02*
X128761904Y-121452380D01*
X129142857Y-121452380D01*
X129238095Y-121500000D01*
X129285714Y-121547619D01*
X129333333Y-121642857D01*
X129333333Y-121785714D01*
X129285714Y-121880952D01*
X129238095Y-121928571D01*
X129142857Y-121976190D01*
X128761904Y-121976190D01*
X130190476Y-121785714D02*
X130190476Y-122452380D01*
X129952380Y-121404761D02*
X129714285Y-122119047D01*
X130333333Y-122119047D01*
%TO.C,MD2*%
X188215476Y-99182380D02*
X188215476Y-98182380D01*
X188548809Y-98896666D01*
X188882142Y-98182380D01*
X188882142Y-99182380D01*
X189358333Y-99182380D02*
X189358333Y-98182380D01*
X189596428Y-98182380D01*
X189739285Y-98230000D01*
X189834523Y-98325238D01*
X189882142Y-98420476D01*
X189929761Y-98610952D01*
X189929761Y-98753809D01*
X189882142Y-98944285D01*
X189834523Y-99039523D01*
X189739285Y-99134761D01*
X189596428Y-99182380D01*
X189358333Y-99182380D01*
X190310714Y-98277619D02*
X190358333Y-98230000D01*
X190453571Y-98182380D01*
X190691666Y-98182380D01*
X190786904Y-98230000D01*
X190834523Y-98277619D01*
X190882142Y-98372857D01*
X190882142Y-98468095D01*
X190834523Y-98610952D01*
X190263095Y-99182380D01*
X190882142Y-99182380D01*
%TO.C,D4*%
X126261904Y-134302380D02*
X126261904Y-133302380D01*
X126500000Y-133302380D01*
X126642857Y-133350000D01*
X126738095Y-133445238D01*
X126785714Y-133540476D01*
X126833333Y-133730952D01*
X126833333Y-133873809D01*
X126785714Y-134064285D01*
X126738095Y-134159523D01*
X126642857Y-134254761D01*
X126500000Y-134302380D01*
X126261904Y-134302380D01*
X127690476Y-133635714D02*
X127690476Y-134302380D01*
X127452380Y-133254761D02*
X127214285Y-133969047D01*
X127833333Y-133969047D01*
%TO.C,Q1*%
X154654761Y-114047619D02*
X154559523Y-114000000D01*
X154464285Y-113904761D01*
X154321428Y-113761904D01*
X154226190Y-113714285D01*
X154130952Y-113714285D01*
X154178571Y-113952380D02*
X154083333Y-113904761D01*
X153988095Y-113809523D01*
X153940476Y-113619047D01*
X153940476Y-113285714D01*
X153988095Y-113095238D01*
X154083333Y-113000000D01*
X154178571Y-112952380D01*
X154369047Y-112952380D01*
X154464285Y-113000000D01*
X154559523Y-113095238D01*
X154607142Y-113285714D01*
X154607142Y-113619047D01*
X154559523Y-113809523D01*
X154464285Y-113904761D01*
X154369047Y-113952380D01*
X154178571Y-113952380D01*
X155559523Y-113952380D02*
X154988095Y-113952380D01*
X155273809Y-113952380D02*
X155273809Y-112952380D01*
X155178571Y-113095238D01*
X155083333Y-113190476D01*
X154988095Y-113238095D01*
%TO.C,Q4*%
X137904761Y-134547619D02*
X137809523Y-134500000D01*
X137714285Y-134404761D01*
X137571428Y-134261904D01*
X137476190Y-134214285D01*
X137380952Y-134214285D01*
X137428571Y-134452380D02*
X137333333Y-134404761D01*
X137238095Y-134309523D01*
X137190476Y-134119047D01*
X137190476Y-133785714D01*
X137238095Y-133595238D01*
X137333333Y-133500000D01*
X137428571Y-133452380D01*
X137619047Y-133452380D01*
X137714285Y-133500000D01*
X137809523Y-133595238D01*
X137857142Y-133785714D01*
X137857142Y-134119047D01*
X137809523Y-134309523D01*
X137714285Y-134404761D01*
X137619047Y-134452380D01*
X137428571Y-134452380D01*
X138714285Y-133785714D02*
X138714285Y-134452380D01*
X138476190Y-133404761D02*
X138238095Y-134119047D01*
X138857142Y-134119047D01*
%TO.C,U1*%
X136238095Y-107452380D02*
X136238095Y-108261904D01*
X136285714Y-108357142D01*
X136333333Y-108404761D01*
X136428571Y-108452380D01*
X136619047Y-108452380D01*
X136714285Y-108404761D01*
X136761904Y-108357142D01*
X136809523Y-108261904D01*
X136809523Y-107452380D01*
X137809523Y-108452380D02*
X137238095Y-108452380D01*
X137523809Y-108452380D02*
X137523809Y-107452380D01*
X137428571Y-107595238D01*
X137333333Y-107690476D01*
X137238095Y-107738095D01*
D11*
%TO.C,Q3*%
X165220000Y-133200000D02*
X165220000Y-132930000D01*
X165220000Y-126570000D02*
X166320000Y-126570000D01*
X165220000Y-126300000D02*
X165220000Y-126570000D01*
X165220000Y-132930000D02*
X168050000Y-132930000D01*
X163720000Y-126300000D02*
X165220000Y-126300000D01*
X163720000Y-133200000D02*
X165220000Y-133200000D01*
%TO.C,R5*%
X120330000Y-109670000D02*
X126870000Y-109670000D01*
X120330000Y-106930000D02*
X126870000Y-106930000D01*
X126870000Y-109670000D02*
X126870000Y-109340000D01*
X120330000Y-109340000D02*
X120330000Y-109670000D01*
X120330000Y-107260000D02*
X120330000Y-106930000D01*
X126870000Y-106930000D02*
X126870000Y-107260000D01*
%TO.C,R1*%
X150660000Y-123477064D02*
X150660000Y-122022936D01*
X148840000Y-123477064D02*
X148840000Y-122022936D01*
%TO.C,D1*%
X159250000Y-115950000D02*
X165750000Y-115950000D01*
X159250000Y-115950000D02*
X159250000Y-124350000D01*
X165750000Y-115950000D02*
X165750000Y-124350000D01*
%TO.C,D3*%
X168950000Y-133250000D02*
X168950000Y-126750000D01*
X168950000Y-133250000D02*
X177350000Y-133250000D01*
X168950000Y-126750000D02*
X177350000Y-126750000D01*
%TO.C,PWRIN*%
X118060000Y-134285000D02*
X107940000Y-134285000D01*
X118060000Y-125065000D02*
X107940000Y-125065000D01*
X107940000Y-134285000D02*
X107940000Y-132185000D01*
X107940000Y-129965000D02*
X107940000Y-125065000D01*
X107940000Y-129965000D02*
X107350000Y-129965000D01*
X118650000Y-132185000D02*
X118060000Y-132185000D01*
X118060000Y-134285000D02*
X118060000Y-132185000D01*
X107940000Y-132185000D02*
X107350000Y-132185000D01*
X118060000Y-129965000D02*
X118060000Y-125065000D01*
X118650000Y-129965000D02*
X118060000Y-129965000D01*
X107350000Y-129965000D02*
G75*
G03*
X107350000Y-132185000I0J-1110000D01*
G01*
X118650000Y-132185000D02*
G75*
G03*
X118650000Y-129965000I0J1110000D01*
G01*
%TO.C,D2*%
X148000000Y-115700000D02*
X148000000Y-124100000D01*
X141500000Y-115700000D02*
X148000000Y-115700000D01*
X141500000Y-115700000D02*
X141500000Y-124100000D01*
%TO.C,R6*%
X115970000Y-106930000D02*
X115970000Y-107260000D01*
X109430000Y-107260000D02*
X109430000Y-106930000D01*
X109430000Y-109670000D02*
X115970000Y-109670000D01*
X109430000Y-106930000D02*
X115970000Y-106930000D01*
X109430000Y-109340000D02*
X109430000Y-109670000D01*
X115970000Y-109670000D02*
X115970000Y-109340000D01*
%TO.C,R2*%
X131340000Y-118772936D02*
X131340000Y-120227064D01*
X133160000Y-118772936D02*
X133160000Y-120227064D01*
%TO.C,Transmitter*%
X116990000Y-104890000D02*
X119650000Y-104890000D01*
X119650000Y-97210000D02*
X119650000Y-104890000D01*
X116990000Y-97210000D02*
X119650000Y-97210000D01*
X116990000Y-97210000D02*
X116990000Y-104890000D01*
X116990000Y-94610000D02*
X118320000Y-94610000D01*
X116990000Y-95940000D02*
X116990000Y-94610000D01*
%TO.C,R3*%
X166590000Y-122522936D02*
X166590000Y-123977064D01*
X168410000Y-122522936D02*
X168410000Y-123977064D01*
%TO.C,A1*%
X128720000Y-102340000D02*
X126180000Y-102340000D01*
X166950000Y-86970000D02*
X123510000Y-86970000D01*
X126180000Y-89640000D02*
X164280000Y-89640000D01*
X166950000Y-105010000D02*
X166950000Y-86970000D01*
X128720000Y-105010000D02*
X166950000Y-105010000D01*
X126180000Y-89640000D02*
X126180000Y-86970000D01*
X128720000Y-102340000D02*
X128720000Y-105010000D01*
X126180000Y-102340000D02*
X126180000Y-105010000D01*
X164280000Y-102340000D02*
X164280000Y-105010000D01*
X123510000Y-86970000D02*
X123510000Y-105010000D01*
X128720000Y-102340000D02*
X164280000Y-102340000D01*
X123510000Y-105010000D02*
X126180000Y-105010000D01*
X164280000Y-89640000D02*
X164280000Y-86970000D01*
%TO.C,Q2*%
X133800000Y-122470000D02*
X134070000Y-122470000D01*
X134070000Y-122470000D02*
X134070000Y-125300000D01*
X133800000Y-120970000D02*
X133800000Y-122470000D01*
X140430000Y-122470000D02*
X140430000Y-123570000D01*
X140700000Y-122470000D02*
X140430000Y-122470000D01*
X140700000Y-120970000D02*
X140700000Y-122470000D01*
%TO.C,R4*%
X130227064Y-122840000D02*
X128772936Y-122840000D01*
X130227064Y-124660000D02*
X128772936Y-124660000D01*
%TO.C,MD2*%
X190855000Y-100170000D02*
X190855000Y-101500000D01*
X188195000Y-102770000D02*
X188195000Y-125690000D01*
X189525000Y-100170000D02*
X190855000Y-100170000D01*
X188195000Y-125690000D02*
X190855000Y-125690000D01*
X188195000Y-102770000D02*
X190855000Y-102770000D01*
X190855000Y-102770000D02*
X190855000Y-125690000D01*
%TO.C,D4*%
X131800000Y-126500000D02*
X123400000Y-126500000D01*
X131800000Y-126500000D02*
X131800000Y-133000000D01*
X131800000Y-133000000D02*
X123400000Y-133000000D01*
%TO.C,Q1*%
X158200000Y-122470000D02*
X157930000Y-122470000D01*
X151300000Y-120970000D02*
X151300000Y-122470000D01*
X151570000Y-122470000D02*
X151570000Y-125300000D01*
X158200000Y-120970000D02*
X158200000Y-122470000D01*
X157930000Y-122470000D02*
X157930000Y-123570000D01*
X151300000Y-122470000D02*
X151570000Y-122470000D01*
%TO.C,Q4*%
X135530000Y-133200000D02*
X135530000Y-132930000D01*
X135530000Y-132930000D02*
X134430000Y-132930000D01*
X137030000Y-133200000D02*
X135530000Y-133200000D01*
X135530000Y-126300000D02*
X135530000Y-126570000D01*
X135530000Y-126570000D02*
X132700000Y-126570000D01*
X137030000Y-126300000D02*
X135530000Y-126300000D01*
%TO.C,U1*%
X136199900Y-111231900D02*
X137800100Y-111231900D01*
X137800100Y-108768100D02*
X136199900Y-108768100D01*
%TD*%
M02*
